<svg xmlns="http://www.w3.org/2000/svg" width="43.995" height="41.245" viewBox="0 0 43.995 41.245">
  <path id="Path_4942" data-name="Path 4942" d="M2182.383,187.136l-.006-.007a1.372,1.372,0,1,1-1.916-1.964,2.739,2.739,0,0,0,0-3.836,1.359,1.359,0,0,1-.44-1,1.372,1.372,0,0,1,2.356-.96l.006-.008a5.5,5.5,0,0,1,0,7.777Zm-6.638,15.359a2.749,2.749,0,0,1-2.75-2.75v-.019h0c-.965-2.288-3.6-4.3-7.282-5.756l.007-.019a1.458,1.458,0,0,1,.491-2.832,1.416,1.416,0,0,1,.646.159c4.393,1.64,7.546,3.962,8.669,6.621.038.092.071-.041.1-.334a10.794,10.794,0,0,0,.124-1.258v-3.966c.021-3.105,0-6.345,0-6.345v-6.187s.021-3.064,0-5.994v-3.63a9.276,9.276,0,0,0-.107-1.091c-.03-.415-.066-.612-.115-.5-2.2,5.215-12.152,9.149-24.094,9.149-.22,0-.41,0-.587,0h-1.219a1.376,1.376,0,0,0-1.375,1.375,1.376,1.376,0,0,1-1.375,1.375H2145.5a2.75,2.75,0,0,0,0,5.5h1.375a1.376,1.376,0,0,1,1.375,1.375,1.375,1.375,0,0,0,1.375,1.375h1.29c.157,0,.325,0,.516,0,.165,0,.325.007.488.009a4.8,4.8,0,0,1,4.271,2.949l.018.046,4.155,10.4c.683,1.709-.3,3.093-2.2,3.093h-2.6a5.388,5.388,0,0,1-4.675-3.093l-2.408-6.031,0,0a1.371,1.371,0,0,1-.106-.525,1.346,1.346,0,0,1,2.615-.449l2.426,5.976a2.3,2.3,0,0,0,1.934,1.375h.974c.758,0,1.125-.616.815-1.375l-3.35-8.249a2.3,2.3,0,0,0-1.934-1.375h-2.921a3.433,3.433,0,0,1-3.014-1.791c0-.012-.006-.023-.011-.035a3.958,3.958,0,0,1-.215-.488.686.686,0,0,0-.163-.254.67.67,0,0,0-.445-.2h0a5.494,5.494,0,0,1,0-10.957h0a.677.677,0,0,0,.445-.2.711.711,0,0,0,.163-.256l0,0a3.429,3.429,0,0,1,3.238-2.31h2.39c10.74,0,19.689-3.731,21.669-8.421,0-.01.013-.01.018-.016a2.744,2.744,0,0,1,5.482.188v33a2.749,2.749,0,0,1-2.75,2.75Zm-15.811-11.686a1.375,1.375,0,1,1,1.375,1.375,1.376,1.376,0,0,1-1.375-1.375Z" transform="translate(-2140 -164)" fill="#035aa7" fill-rule="evenodd"/>
</svg>
