<svg xmlns="http://www.w3.org/2000/svg" width="427.541" height="651.949" viewBox="0 0 427.541 651.949">
  <g id="Group_5363" data-name="Group 5363" transform="matrix(1, 0.017, -0.017, 1, -17932.78, 13679.688)">
    <g id="Group_5483" data-name="Group 5483">
      <path id="Subtraction_42" data-name="Subtraction 42" d="M23.386,596.192,0,22.86,383.338,0l23.383,573.331L23.386,596.192Zm36.085-76.907c-.185,0-.372,0-.557.012a13,13,0,0,0,.537,26c.184,0,.371,0,.557-.012a13,13,0,0,0-.537-26ZM56.984,460.16c-.185,0-.373,0-.557.012a13,13,0,0,0,.537,26c.184,0,.371,0,.557-.012a13,13,0,0,0-.536-26Zm-2.492-59.126c-.185,0-.371,0-.552.012a13,13,0,0,0,.536,26c.184,0,.371,0,.557-.012a13,13,0,0,0-.541-26Zm-2.486-59.126c-.183,0-.37,0-.554.012a13,13,0,0,0,.536,26c.184,0,.371,0,.557-.012a13,13,0,0,0-.54-26Zm-2.488-59.125c-.184,0-.37,0-.554.012a13,13,0,0,0,.537,26c.183,0,.371,0,.557-.012a13,13,0,0,0-.54-26Zm-2.488-59.126c-.183,0-.37,0-.554.012a13,13,0,0,0,.537,26c.184,0,.371,0,.557-.012a13,13,0,0,0-.541-26Zm-2.488-59.125c-.183,0-.37,0-.554.012a13,13,0,0,0,.537,26c.184,0,.371,0,.557-.012a13,13,0,0,0-.54-26Zm-2.489-59.126c-.183,0-.369,0-.552.012a13,13,0,0,0,.537,26c.183,0,.371,0,.557-.012a13,13,0,0,0-.542-26ZM39.569,46.282c-.187,0-.375,0-.557.012a13,13,0,0,0,.536,25.995c.184,0,.371,0,.557-.012a13,13,0,0,0-.536-25.995Z" transform="translate(17712.496 -13942.697)" fill="#cfd0d2" stroke="rgba(0,0,0,0)" stroke-miterlimit="10" stroke-width="1" style="mix-blend-mode: multiply;isolation: isolate"/>
      <path id="Subtraction_41" data-name="Subtraction 41" d="M23.4,597.191h0L0,22.86,382.441,2,384,33.942l22.739,540.389L23.4,597.19Zm36.07-77.9c-.186,0-.374,0-.557.012a13,13,0,0,0,.535,26c.182,0,.369,0,.557-.012a13,13,0,0,0-.535-26ZM56.983,460.16c-.185,0-.373,0-.557.012a13,13,0,0,0,.535,26c.184,0,.371,0,.557-.012a13,13,0,0,0-.535-26Zm-2.488-59.125c-.186,0-.373,0-.557.012a13,13,0,0,0,.535,26c.183,0,.371,0,.557-.012a13,13,0,0,0-.535-26Zm-2.488-59.126c-.187,0-.374,0-.557.012a13,13,0,0,0,.535,26c.184,0,.371,0,.557-.012a13,13,0,0,0-.535-26ZM49.52,282.784c-.185,0-.373,0-.557.012a13,13,0,0,0,.535,26c.183,0,.371,0,.557-.012a13,13,0,0,0-.535-26Zm-2.488-59.126c-.186,0-.373,0-.557.012a13,13,0,0,0,.535,26c.183,0,.371,0,.557-.012a13,13,0,0,0-.535-26Zm-2.488-59.126c-.185,0-.372,0-.557.012a13,13,0,0,0,.535,26c.183,0,.371,0,.557-.012a13,13,0,0,0-.535-26Zm-2.488-59.125c-.186,0-.373,0-.557.012a13,13,0,0,0,.536,26c.183,0,.371,0,.557-.012a13,13,0,0,0-.536-26ZM39.568,46.281c-.185,0-.373,0-.557.012a13,13,0,0,0,.535,26c.184,0,.371,0,.557-.012a13,13,0,0,0-.536-26Z" transform="translate(17702.936 -13951.695)" fill="#f6f6f6" stroke="rgba(0,0,0,0)" stroke-miterlimit="10" stroke-width="1"/>
    </g>
    <g id="Group_5359" data-name="Group 5359" transform="matrix(0.998, 0.07, -0.07, 0.998, 17767.371, -13991.902)" opacity="0.8">
      <path id="Path_4274" data-name="Path 4274" d="M1.779,49.324q2.548,10.956,4.716,22C8.06,79.293,9.471,87.293,10.871,95.3L225.492,54.684A174.253,174.253,0,0,1,220.7,31.638c-.446-3.242-.819-6.567-2.265-9.5a10.553,10.553,0,0,1-1.415-3.522,18.464,18.464,0,0,1,.253-2.9,12.976,12.976,0,0,0-.706-4.3c-.616-3.262-3.435-7.939-3.08-11.409L0,40.4C.908,43.186,1.194,46.807,1.779,49.324Z" fill="#2295d6" opacity="0.8"/>
      <path id="Path_5967" data-name="Path 5967" d="M-4417.8-14605.363l6.755,55.137,191.886-23-6.391-40.715" transform="translate(5437.519 14305.498) rotate(-4)" fill="none" stroke="#000" stroke-linecap="round" stroke-width="3"/>
    </g>
    <text id="المدونة" transform="translate(17824.303 -13919.817) rotate(-7)" font-size="45" font-family="Somar-Black, Somar" font-weight="800"><tspan x="0" y="0">المدونة</tspan></text>
  </g>
</svg>
