<svg xmlns="http://www.w3.org/2000/svg" width="1753.17" height="1821.643" viewBox="0 0 1753.17 1821.643">
  <path id="Path_5900" data-name="Path 5900" d="M1318.982,237.915c-87.14,27.195-161.483-17.5-219.595-79.732-49.584-53.1-91.912-144.963-178.948-128.061-56.732,11.016-99.706,78.547-74.089,130.35C857.857,183.75,879.783,200,894.787,221.2c28.607,40.412,28,99.2-1.44,139.005s-85.463,57.617-132.483,42.1c-58.026-19.142-92.429-78.779-144.638-110.522-52.822-32.114-126.132-30.732-173.457,9.039S382.9,418.3,420.635,467.265c37.242,48.321,102.449,56.188,147.3,93.808,42.235,35.432,65.35,93.034,60.519,147.808C611.032,906.348,365.032,957.868,216.574,877.36-29.2,744.075,10.784,406.06,161.206,217.384,237.214,122.048,332.32,43.007,433.723-23.992,538.108-92.963,645.637-158.013,759.278-210.684c97.222-45.061,201.615-88.176,310.317-90.389,137.422-2.8,266.942,78.874,332.655,198.088,46.778,84.863,61.515,210.3-5.33,289.344A165.631,165.631,0,0,1,1318.982,237.915Z" transform="translate(240.667 1399.611) rotate(-60)" fill="#f6f6f6" opacity="0.9"/>
</svg>
