<svg xmlns="http://www.w3.org/2000/svg" width="826.48" height="564.075" viewBox="0 0 826.48 564.075">
  <path id="Path_5892" data-name="Path 5892" d="M-50.727,331.519c50.238-51.238,123.235-79.55,197.572-70.1,70.1,8.915,121.689,57.458,150.308,120.049,23.073,50.466,52.446,93.715,111.214,105.487,44.491,8.909,85.236-7.183,128.061-16.825,75.317-16.957,151.5,22.8,168.926,100.458,15.01,66.892-19.035,136.529-67.515,181.348A225.111,225.111,0,0,1,603.723,778c-66.252,41.085-146.99,48.492-223.2,44.886-84.674-4.007-169.519-16.641-250.316-42.78-71.715-23.2-143.788-57.274-191.964-117.3-48.971-61.018-66.492-145.087-49.421-221.1A229.216,229.216,0,0,1-50.727,331.519Z" transform="translate(117.545 -259.616)" fill="#f6f6f6" opacity="0.9"/>
</svg>
