<svg xmlns="http://www.w3.org/2000/svg" width="683.047" height="853.095" viewBox="0 0 683.047 853.095">
  <path id="Path_5891" data-name="Path 5891" d="M852.583,39.794a224.881,224.881,0,0,0-54.129-23.383C736.5-.854,680.351,33.2,648.971,88.656c-34.227,60.5-29.9,132.467-31.019,200.069-1.676,101.284-23.83,191.81-132.971,205.716-49.5,6.307-106.158,23.388-134.444,70.1-45.49,75.126-2.717,175.852,53.783,230.427,72.927,70.442,183.119,85.056,275.907,55.83,205.8-64.82,358.21-330.924,331.1-551.829C998.38,193.47,942.268,92.9,852.583,39.794Z" transform="translate(-331.408 -11.9)" fill="#f6f6f6" opacity="0.9" style="mix-blend-mode: multiply;isolation: isolate"/>
</svg>
