<svg xmlns="http://www.w3.org/2000/svg" width="222.721" height="243.93" viewBox="0 0 222.721 243.93">
  <g id="Group_3755" data-name="Group 3755" transform="translate(-1207.35 -134)">
    <g id="Group_3743" data-name="Group 3743" transform="translate(-208.566 -444.479)">
      <g id="Group_3724" data-name="Group 3724" transform="translate(1432.331 642.024)">
        <g id="Group_3722" data-name="Group 3722">
          <path id="Path_4953" data-name="Path 4953" d="M1455.932,760.373a1.381,1.381,0,0,1-1.185-.668c-6.3-10.44-12.449-22.012-10.323-28.675a6.5,6.5,0,0,1,3.75-4.137,7.269,7.269,0,0,1,5.6-.1l.077.031-.065-.152a7.316,7.316,0,0,1,13.417-5.837l1.929,4.437a7.451,7.451,0,0,1,3.917-4.031c5.815-2.416,9.291,3.668,10.435,5.667.884,1.545,1.953,3.308,3.19,5.349,1.805,2.978,3.852,6.354,5.879,9.981a1.382,1.382,0,1,1-2.412,1.349c-2-3.585-4.037-6.938-5.831-9.9-1.195-1.972-2.324-3.834-3.225-5.409-2.393-4.183-4.478-5.523-6.974-4.487a4.687,4.687,0,0,0-2.457,2.616,4.553,4.553,0,0,0-.051,3.484c.04.092,2.272,5.224,2.272,5.224a1.382,1.382,0,0,1-1.211,1.932c-.1,0-.2.011-.3.018l-.114.008a1.386,1.386,0,0,1-1.359-.828l-6.224-14.308a4.552,4.552,0,0,0-8.348,3.632l6.188,14.224a1.381,1.381,0,0,1-.337,1.573c-.165.151-.325.306-.484.463a1.382,1.382,0,0,1-2.236-.433l-4.182-9.612a4.553,4.553,0,0,0-5.99-2.358,3.794,3.794,0,0,0-2.22,2.443c-2.032,6.367,6.751,20.927,10.056,26.408a1.382,1.382,0,0,1-1.182,2.1Z" transform="translate(-1443.996 -716.439)" fill="#090928"/>
        </g>
        <g id="Group_3723" data-name="Group 3723" transform="translate(26.267 44.26)">
          <path id="Path_4954" data-name="Path 4954" d="M1571.961,891.191c-14.62,0-29.221-6.118-42.465-17.844-13.456-11.913-22.309-26.665-26.388-34.4a18.012,18.012,0,1,1,31.862-16.809c8.763,16.609,24.46,34.023,38.212,32.981,6.575-.493,12.984-5.064,16.33-11.645a32.724,32.724,0,0,0,2.786-8.106,18.012,18.012,0,0,1,35.255,7.4,68.67,68.67,0,0,1-5.93,17.031c-9.066,17.833-26.594,29.8-45.744,31.242Q1573.922,891.191,1571.961,891.191Z" transform="translate(-1501.023 -812.529)" fill="#035aa7"/>
        </g>
      </g>
      <path id="Path_4955" data-name="Path 4955" d="M1664.551,790.386q.535-.228,1.078-.442l.97-11.114,23.31-.531,1.3,9.748c.1.692,2.75,1.259,3.348,1.53,8.609,3.9,14.769,13.348,15.443,22.7.48,6.668-1.351,13.333-4.1,19.354a61.953,61.953,0,0,1-6.195,10.527c-.365.546,5.721,9.5,6.305,10.575a111.19,111.19,0,0,1,6.021,12.717c3.209,8.207,5.512,17.219,3.77,26.04-.337,1.706-1.847,11.374-4.118,11.855-45.3,9.6-77.982,10.491-87.126-6.8,0,0,21.255-47.011,25.043-63.4.172-.742-.276-2.3-1.011-4.154A30.031,30.031,0,0,1,1664.551,790.386Z" transform="translate(-109.057 -107.782)" fill="#090928"/>
      <g id="Group_3725" data-name="Group 3725" transform="translate(1509.549 670.517)">
        <path id="Path_4956" data-name="Path 4956" d="M1657.582,790.379q.556-.24,1.122-.457.464-5.546.929-11.092l23.314-.531,1,7.813a4.465,4.465,0,0,0,.6,2.031,5.023,5.023,0,0,0,2.564,1.506c9.623,3.54,15.556,14,15.845,24.253s-4.219,20.133-10.341,28.357c4.661,3.094,9.367,6.248,13.09,10.424,5.906,6.625,8.765,15.19,10.214,23.807,1.011,6.019,2.707,12.251,1.956,18.4-.955,7.817-7.784,9.887-14.619,11.546a171.563,171.563,0,0,1-49.45,4.561c-14.543-.769-29.627-3.549-40.635-13.841a3.725,3.725,0,0,1-1.528-2.691,3.865,3.865,0,0,1,.739-1.772,410.688,410.688,0,0,0,28.568-53.776,14.718,14.718,0,0,0,1.6-5.568c.036-2.187-.88-4.259-1.555-6.34a29.85,29.85,0,0,1,16.59-36.63Z" transform="translate(-1611.64 -778.298)" fill="#035aa7"/>
      </g>
      <g id="Group_3728" data-name="Group 3728" transform="translate(1534.767 610.079)">
        <g id="Group_3726" data-name="Group 3726" transform="translate(7.003 7.003)">
          <path id="Path_4957" data-name="Path 4957" d="M1703.21,705.535a21.624,21.624,0,0,1-.513-43.241h0a21.624,21.624,0,0,1,1.041,43.235C1703.562,705.533,1703.385,705.535,1703.21,705.535Zm-.447-40.478a18.859,18.859,0,1,0,13.465,5.2,18.881,18.881,0,0,0-13.465-5.2Zm-.033-1.381h0Z" transform="translate(-1681.593 -662.288)" fill="#090928"/>
        </g>
        <g id="Group_3727" data-name="Group 3727" transform="translate(0)">
          <circle id="Ellipse_144" data-name="Ellipse 144" cx="20.242" cy="20.242" r="20.242" transform="translate(0 28.626) rotate(-45)" fill="#fff"/>
          <path id="Path_4958" data-name="Path 4958" d="M1703.21,705.535a21.624,21.624,0,0,1-.513-43.241h0a21.624,21.624,0,0,1,1.041,43.235C1703.562,705.533,1703.385,705.535,1703.21,705.535Zm-.447-40.478a18.859,18.859,0,1,0,13.465,5.2,18.881,18.881,0,0,0-13.465-5.2Zm-.033-1.381h0Z" transform="translate(-1674.591 -655.285)" fill="#090928"/>
        </g>
      </g>
      <path id="Path_4959" data-name="Path 4959" d="M1713.3,641.032c6.518,7.912,1.06,20.282-5.183,26.644-7.649,7.794-24.552,13.789-33.6,5.068-4.009-3.862-6.156-10.607-2.691-15.461,2.834-3.97,8.014-5.991,12.642-6.871,7.4-1.408,15.424-.689,22.358-4.063a18.876,18.876,0,0,0,4.744-3.272C1711.693,642.959,1713.463,641.227,1713.3,641.032Z" transform="translate(-133.617 -33.741)"/>
      <path id="Path_4960" data-name="Path 4960" d="M1757.92,593.535a28.866,28.866,0,0,1,8.72.2c.553.069,7.852,1.179,7.643,1.808,0,0,1.276-3.8,1.807-4.97,1.229-2.7,4.339-4.149,7.305-4.258s7.276,1.432,10.082,2.4c-1.12-.387.4-5.983.817-6.759,1.987-3.686,9.221-3.922,12.746-3.079,3.161.756,6.1,3.346,6.25,6.593.109,2.3-1.173,4.275-2.706,5.875a18.89,18.89,0,0,1-5.781,4.079c-.96.427-4.344,1.935-5.031.449,1.747,3.78-.609,10.424-4.375,12.2-3.328,1.57-8.116,1.069-11.515.044.449.135-2.022,7.642-2.314,8.356-3.607,8.84-12.982,14.4-22.41,11.241-10.23-3.43-16.3-17.269-11.062-26.932a14.641,14.641,0,0,1,7.243-6.51A12.928,12.928,0,0,1,1757.92,593.535Z" transform="translate(-174.66)"/>
      <g id="Group_3731" data-name="Group 3731" transform="translate(1570.03 623.49)">
        <g id="Group_3729" data-name="Group 3729" transform="translate(0 0)">
          <path id="Path_4961" data-name="Path 4961" d="M1755.355,699.67a1.382,1.382,0,0,1-.033-2.763,8.885,8.885,0,0,0,8.879-9.078,9.088,9.088,0,0,0-9.3-8.861c-5.354.129-9.3,3.8-9.19,8.544a1.382,1.382,0,0,1-1.348,1.415,1.4,1.4,0,0,1-1.415-1.348c-.149-6.214,5.072-11.21,11.887-11.374a11.849,11.849,0,0,1,12.127,11.557,11.619,11.619,0,0,1-11.575,11.907Z" transform="translate(-1742.947 -676.201)" fill="#090928"/>
        </g>
        <g id="Group_3730" data-name="Group 3730" transform="translate(0 0)">
          <path id="Path_4962" data-name="Path 4962" d="M1756.974,699.907a10.288,10.288,0,0,0,10.226-10.492,10.464,10.464,0,0,0-10.713-10.209c-5.777.139-10.677,4.182-10.538,9.959" transform="translate(-1744.565 -677.82)" fill="#fff"/>
          <path id="Path_4963" data-name="Path 4963" d="M1755.355,699.67a1.382,1.382,0,0,1-.033-2.763,8.885,8.885,0,0,0,8.879-9.078,9.088,9.088,0,0,0-9.3-8.861c-5.354.129-9.3,3.8-9.19,8.544a1.382,1.382,0,0,1-1.348,1.415,1.4,1.4,0,0,1-1.415-1.348c-.149-6.214,5.072-11.21,11.887-11.374a11.849,11.849,0,0,1,12.127,11.557,11.619,11.619,0,0,1-11.575,11.907Z" transform="translate(-1742.947 -676.201)" fill="#090928"/>
        </g>
      </g>
      <g id="Group_3733" data-name="Group 3733" transform="translate(1513.973 680.78)">
        <g id="Group_3732" data-name="Group 3732" transform="translate(0)">
          <path id="Path_4964" data-name="Path 4964" d="M1622.626,898.136a1.383,1.383,0,0,1-1.224-2.021c.216-.414,21.621-41.507,23.673-46.686,1.8-4.553,1.645-4.911,1.122-6.1l-.091-.208c-.109-.25-.211-.547-.32-.861-.084-.243-.173-.5-.27-.746a31.527,31.527,0,0,1,16.707-40.382q.553-.236,1.113-.457a1.382,1.382,0,0,1,1.015,2.571q-.525.207-1.043.428a28.745,28.745,0,0,0-15.222,36.823c.111.281.215.58.312.86.091.263.177.51.242.661l.086.2c.929,2.11.94,3.123-1.082,8.23-2.1,5.311-22.907,45.248-23.791,46.946A1.381,1.381,0,0,1,1622.626,898.136Z" transform="translate(-1621.245 -800.579)"/>
        </g>
      </g>
      <path id="Path_4965" data-name="Path 4965" d="M1734.254,636.2h0s-14.606,3.55-8.537,12.7,22.46,7.595,22.46,7.595l.91-1.037C1741.861,651.156,1735.471,644.522,1734.254,636.2Z" transform="translate(-162.827 -31.136)" fill="#035aa7"/>
      <g id="Group_3742" data-name="Group 3742" transform="translate(1422.369 685.184)">
        <g id="Group_3734" data-name="Group 3734" transform="translate(45.017 0)">
          <path id="Path_4966" data-name="Path 4966" d="M1538.108,920.942a18.014,18.014,0,0,1-4.785-35.378c35.049-9.68,60.644-31.138,78.247-65.6a18.012,18.012,0,0,1,32.082,16.387c-22.143,43.351-56.036,71.592-100.738,83.937A18.033,18.033,0,0,1,1538.108,920.942Z" transform="translate(-1520.102 -810.141)" fill="#090928"/>
        </g>
        <g id="Group_3735" data-name="Group 3735" transform="translate(45.017 0)">
          <path id="Path_4967" data-name="Path 4967" d="M1538.108,920.942a18.014,18.014,0,0,1-4.785-35.378c35.049-9.68,60.644-31.138,78.247-65.6a18.012,18.012,0,0,1,32.082,16.387c-22.143,43.351-56.036,71.592-100.738,83.937A18.033,18.033,0,0,1,1538.108,920.942Z" transform="translate(-1520.102 -810.141)" fill="#035aa7"/>
        </g>
        <g id="Group_3740" data-name="Group 3740" transform="translate(56.857 15.446)">
          <g id="Group_3736" data-name="Group 3736" transform="translate(38.844 33.516)">
            <path id="Path_4968" data-name="Path 4968" d="M1631.521,967.907a1.382,1.382,0,0,1-.615-2.621,152.124,152.124,0,0,0,56.327-48.271,1.382,1.382,0,0,1,2.245,1.613,154.863,154.863,0,0,1-57.345,49.135A1.375,1.375,0,0,1,1631.521,967.907Z" transform="translate(-1630.138 -916.439)"/>
          </g>
          <g id="Group_3737" data-name="Group 3737" transform="translate(22.008 82.219)">
            <path id="Path_4969" data-name="Path 4969" d="M1594.968,1032.1a1.382,1.382,0,0,1-.468-2.683,159.064,159.064,0,0,0,16.69-7.1,1.382,1.382,0,1,1,1.227,2.477,161.754,161.754,0,0,1-16.982,7.223A1.371,1.371,0,0,1,1594.968,1032.1Z" transform="translate(-1593.586 -1022.175)"/>
          </g>
          <g id="Group_3738" data-name="Group 3738" transform="translate(0 52.293)">
            <path id="Path_4970" data-name="Path 4970" d="M1547.188,966.27a1.382,1.382,0,0,1-.367-2.714,130.811,130.811,0,0,0,17.652-6.234,1.382,1.382,0,1,1,1.11,2.531,133.489,133.489,0,0,1-18.026,6.367A1.361,1.361,0,0,1,1547.188,966.27Z" transform="translate(-1545.807 -957.205)"/>
          </g>
          <g id="Group_3739" data-name="Group 3739" transform="translate(17.839)">
            <path id="Path_4971" data-name="Path 4971" d="M1585.919,898.732a1.382,1.382,0,0,1-.556-2.648c23.664-10.379,41.973-27.3,55.972-51.715a1.382,1.382,0,1,1,2.4,1.374c-14.3,24.952-33.034,42.246-57.26,52.871A1.378,1.378,0,0,1,1585.919,898.732Z" transform="translate(-1584.536 -843.675)"/>
          </g>
        </g>
      </g>
    </g>
    <g id="Group_3754" data-name="Group 3754" transform="translate(1197.226 326.081) rotate(-60)">
      <g id="Group_3746" data-name="Group 3746" transform="translate(20.247 0)">
        <path id="Path_4978" data-name="Path 4978" d="M1028.434,723.438a1.292,1.292,0,0,0,.2-.016,1.314,1.314,0,0,0,1.1-1.5l-2.354-15.078s-.655-5.305-.673-5.457v-.007a4.462,4.462,0,0,1,1.016-3.262,4.594,4.594,0,0,1,3.038-1.775c2.636-.284,4.224,1.554,5.307,6.14.407,1.722.948,3.776,1.521,5.95.857,3.255,1.828,6.945,2.709,10.842a1.314,1.314,0,1,0,2.562-.58c-.891-3.942-1.868-7.655-2.731-10.931-.593-2.252-1.1-4.2-1.5-5.886-.514-2.176-2.094-8.8-8.143-8.148a7.233,7.233,0,0,0-4.817,2.755,7.1,7.1,0,0,0-1.567,5.217h0c.024.2.133,1.086.679,5.506l2.36,15.119A1.314,1.314,0,0,0,1028.434,723.438Z" transform="translate(-1024.052 -693.686)" fill="#090928"/>
      </g>
      <g id="Group_3747" data-name="Group 3747" transform="translate(0 18.397)">
        <path id="Path_4979" data-name="Path 4979" d="M1055.664,776.673a1.315,1.315,0,0,0,1.244-1.737c-2.007-5.9-7.339-21.589-4.076-27.236a3.722,3.722,0,0,1,2.64-1.877,4.465,4.465,0,0,1,5.245,3.513c.005.028.012.057.02.085l2.482,9.269a1.313,1.313,0,0,0,2.018,1.179l.036-.021h0l.022-.014a1.322,1.322,0,0,0,.5-1.779l-2.848-14.4a4.464,4.464,0,1,1,8.758-1.732l2.949,14.9a1.314,1.314,0,0,0,2.578-.51l-2.949-14.9a7.091,7.091,0,1,0-13.913,2.753l.047.234c-.043-.03-.087-.06-.131-.09a7.041,7.041,0,0,0-5.322-1.065,6.3,6.3,0,0,0-4.406,3.141c-3.4,5.886.045,18.164,3.864,29.4A1.315,1.315,0,0,0,1055.664,776.673Z" transform="translate(-1049.167 -735.695)" fill="#090928"/>
      </g>
    </g>
    <path id="Path_6021" data-name="Path 6021" d="M2840.317-9858.4s-78.893,36.131-122.317,2.651" transform="translate(-1416 10201)" fill="none" stroke="#09091d" stroke-width="3"/>
    <path id="Path_6022" data-name="Path 6022" d="M2840.317-9858.4s-78.893,36.131-122.317,2.651" transform="translate(-1416 10217.381)" fill="none" stroke="#09091d" stroke-width="4"/>
  </g>
</svg>
