<svg xmlns="http://www.w3.org/2000/svg" width="43.995" height="41.245" viewBox="0 0 43.995 41.245">
  <path id="Path_4940" data-name="Path 4940" d="M832.62,793a1.375,1.375,0,0,1-1.375-1.375v-22a1.376,1.376,0,0,0-1.375-1.375h-2.75a1.376,1.376,0,0,0-1.375,1.375v28.184a3.438,3.438,0,0,1-3.437,3.437h-1.375a3.438,3.438,0,0,1-3.437-3.437V783.372A1.376,1.376,0,0,0,816.122,782h-2.75A1.376,1.376,0,0,0,812,783.372v14.436a3.438,3.438,0,0,1-3.437,3.437h-1.375a3.438,3.438,0,0,1-3.437-3.437v-8.936a1.376,1.376,0,0,0-1.375-1.375h-2.75a1.376,1.376,0,0,0-1.375,1.375V798.5a2.749,2.749,0,0,1-2.75,2.75,5.5,5.5,0,0,1-5.5-5.5V761.375a1.375,1.375,0,1,1,2.75,0v34.371c0,1.519,1.059,2.75,2.062,2.75a.686.686,0,0,0,.687-.687v-9.624a3.438,3.438,0,0,1,3.437-3.437h4.125a3.438,3.438,0,0,1,3.437,3.437v8.936a1.375,1.375,0,0,0,2.75,0V782.685a3.438,3.438,0,0,1,3.437-3.437h4.125a3.438,3.438,0,0,1,3.437,3.437v14.436a1.375,1.375,0,0,0,2.75,0V768.937a3.438,3.438,0,0,1,3.437-3.437h4.124a3.438,3.438,0,0,1,3.437,3.437v22.685A1.375,1.375,0,0,1,832.62,793Zm0,2.75a1.375,1.375,0,1,1-1.375,1.375,1.376,1.376,0,0,1,1.375-1.375Z" transform="translate(-790 -760)" fill="#035aa7" fill-rule="evenodd"/>
</svg>
