<svg xmlns="http://www.w3.org/2000/svg" xmlns:xlink="http://www.w3.org/1999/xlink" width="2133.814" height="7577.822" viewBox="0 0 2133.814 7577.822">
  <defs>
    <clipPath id="clip-path">
      <rect id="SVGID" width="1920" height="1431" transform="translate(0.707 -101.031)" fill="none"/>
    </clipPath>
  </defs>
  <g id="Group_5487" data-name="Group 5487" transform="translate(363.814 61.911)">
    <g id="Group_5034" data-name="Group 5034" transform="translate(-150.707 2710.942)" opacity="0.5" clip-path="url(#clip-path)">
      <path id="Path_5673" data-name="Path 5673" d="M1519.118,70.02A538.687,538.687,0,0,0,1395.764,21.3c-141.191-35.976-269.147,34.97-340.658,150.529-78,126.051-68.139,276.011-70.69,416.868-3.819,211.037-54.305,399.659-303.029,428.634C568.581,1030.472,439.463,1066.062,375,1163.394c-103.668,156.533-6.192,366.408,122.567,480.121,166.194,146.773,417.312,177.224,628.768,116.328,468.989-135.061,816.328-689.519,754.545-1149.8C1851.375,390.222,1723.5,180.672,1519.118,70.02Z" transform="translate(579.338 -112.932)" fill="#f6f6f6" opacity="0.9" style="mix-blend-mode: multiply;isolation: isolate"/>
      <path id="Path_5678" data-name="Path 5678" d="M-27.052,356.995c68.038-69.392,166.9-107.736,267.576-94.935,94.943,12.074,164.806,77.817,203.565,162.585,31.249,68.347,71.028,126.921,150.62,142.863,60.255,12.066,115.437-9.728,173.436-22.787,102-22.965,205.182,30.882,228.78,136.053,20.329,90.594-25.779,184.9-91.437,245.6a304.874,304.874,0,0,1-46.2,35.3c-89.727,55.642-199.072,65.674-302.285,60.789-114.676-5.427-229.583-22.537-339.008-57.938C120.865,933.1,23.254,886.959-41.991,805.668c-66.323-82.637-90.051-196.494-66.932-299.439C-95.976,448.573-66.763,397.5-27.052,356.995Z" transform="translate(-194.987 430.933)" fill="#f6f6f6" opacity="0.9"/>
    </g>
    <g id="Group_170" data-name="Group 170" transform="translate(-363.813 7515.911) rotate(-90)" opacity="0.4">
      <g id="Group_169" data-name="Group 169" transform="translate(0)">
        <path id="Path_192" data-name="Path 192" d="M601.521,1681.01c318.658-102.611,563.219-322.316,794.467-566.06,222.582-234.6,443.086-481.744,732.872-624.47,597.394-294.237,1299.27-145.027,1884.406,107.245,653.837,281.88,1268.06,706.067,1975.117,829.805,346.733,60.678,717.727,31.538,1019.708-172.317,250.184-168.9,385.8-436.416,442.306-737.105,32.1-170.8,43.1-344.36,51.768-518.109h75.657c-2.4,49.254-4.952,98.428-8.193,147.376-18.815,284.5-55.586,580.123-197.654,829.032-161.337,282.716-447.3,462.225-749.945,527.474-369.324,79.634-752.342,3.733-1104.963-119.635-339.75-118.863-661.434-286.562-983.346-449.739C3919.284,623.07,3238.3,306.981,2539.345,438.347c-163.494,30.717-322.281,87.261-467.144,173.2-142.983,84.815-268.847,196.212-387.437,314.833-232.012,232.111-442.077,495.888-719.177,671.551-286.454,181.6-631.676,261.525-964.105,224.21-.5-.048-.993-.145-1.483-.193V1740.4C201.108,1763.895,406.45,1743.813,601.521,1681.01Z" transform="translate(0 0)" fill="#f5f2f6"/>
      </g>
    </g>
  </g>
</svg>
