<svg xmlns="http://www.w3.org/2000/svg" width="111.543" height="82.322" viewBox="0 0 111.543 82.322">
  <g id="Group_5136" data-name="Group 5136" transform="translate(2390.814 10464.684)">
    <circle id="Ellipse_164" data-name="Ellipse 164" cx="4.225" cy="4.225" r="4.225" transform="translate(-2319.051 -10428.479) rotate(-45)" fill="#fc346c"/>
    <path id="Rectangle_1837" data-name="Rectangle 1837" d="M5.4,0h0a5.4,5.4,0,0,1,5.4,5.4V8.368a0,0,0,0,1,0,0H0a0,0,0,0,1,0,0V5.4A5.4,5.4,0,0,1,5.4,0Z" transform="translate(-2314.636 -10450.039)" fill="#183c6c"/>
    <path id="Path_5756" data-name="Path 5756" d="M3.161,0H91.585a3.161,3.161,0,0,1,3.161,3.161V56.368A5.747,5.747,0,0,1,89,62.115H3.161A3.161,3.161,0,0,1,0,58.954V3.161A3.161,3.161,0,0,1,3.161,0Z" transform="translate(-2374.017 -10444.477)" fill="#183c6c"/>
    <path id="Rectangle_1840" data-name="Rectangle 1840" d="M17.889,0h0A17.889,17.889,0,0,1,35.778,17.889V40.3a0,0,0,0,1,0,0H0a0,0,0,0,1,0,0V17.889A17.889,17.889,0,0,1,17.889,0Z" transform="translate(-2348.534 -10464.684)" fill="#183c6c"/>
    <path id="Rectangle_1841" data-name="Rectangle 1841" d="M11,0H83.746a11,11,0,0,1,11,11V51.115a11,11,0,0,1-11,11H15a15,15,0,0,1-15-15V11A11,11,0,0,1,11,0Z" transform="translate(-2390.814 -10444.477)" fill="#035aa7"/>
    <path id="Rectangle_1842" data-name="Rectangle 1842" d="M17.889,0h0A17.889,17.889,0,0,1,35.778,17.889V40.3a0,0,0,0,1,0,0H0a0,0,0,0,1,0,0V17.889A17.889,17.889,0,0,1,17.889,0Z" transform="translate(-2361.533 -10464.684)" fill="#035aa7"/>
    <path id="Path_5752" data-name="Path 5752" d="M2095.865,626.914a17.214,17.214,0,1,1-6.592-13.548A17.192,17.192,0,0,1,2095.865,626.914Z" transform="translate(-4420.708 -11040.576)" fill="#fff"/>
    <path id="Path_5753" data-name="Path 5753" d="M2129.893,635.982a17.19,17.19,0,0,1-6.59,13.548c-.186.007-.374.011-.562.011a13.56,13.56,0,0,1,0-27.119c.188,0,.374,0,.56.012A17.183,17.183,0,0,1,2129.893,635.982Z" transform="translate(-4454.736 -11049.645)" fill="#ea676c"/>
    <g id="Group_5133" data-name="Group 5133" transform="translate(-2372.561 -10433.854)">
      <path id="Path_5754" data-name="Path 5754" d="M2035.389,639.723a20.193,20.193,0,1,1,20.194-20.193A20.216,20.216,0,0,1,2035.389,639.723Zm0-39.78a19.587,19.587,0,1,0,19.587,19.587A19.609,19.609,0,0,0,2035.389,599.943Z" transform="translate(-2015.196 -599.337)" fill="#240448"/>
    </g>
    <circle id="Ellipse_166" data-name="Ellipse 166" cx="5.419" cy="5.419" r="5.419" transform="translate(-2353.826 -10457.767)" fill="#fff"/>
    <path id="Rectangle_1843" data-name="Rectangle 1843" d="M5.4,0h0a5.4,5.4,0,0,1,5.4,5.4V8.368a0,0,0,0,1,0,0H0a0,0,0,0,1,0,0V5.4A5.4,5.4,0,0,1,5.4,0Z" transform="translate(-2318.731 -10450.039)" fill="#035aa7"/>
    <path id="Rectangle_1844" data-name="Rectangle 1844" d="M5.4,0h0a5.4,5.4,0,0,1,5.4,5.4V8.368a0,0,0,0,1,0,0H0a0,0,0,0,1,0,0V5.4A5.4,5.4,0,0,1,5.4,0Z" transform="translate(-2282.192 -10436.841) rotate(90)" fill="#fdb958"/>
    <path id="Rectangle_1845" data-name="Rectangle 1845" d="M5.4,0h0a5.4,5.4,0,0,1,5.4,5.4V8.368a0,0,0,0,1,0,0H0a0,0,0,0,1,0,0V5.4A5.4,5.4,0,0,1,5.4,0Z" transform="translate(-2282.192 -10416.837) rotate(90)" fill="#fdb958"/>
    <rect id="Rectangle_1846" data-name="Rectangle 1846" width="7.941" height="4.849" transform="translate(-2290.56 -10394.586)" fill="#fdb958"/>
  </g>
</svg>
