<svg xmlns="http://www.w3.org/2000/svg" width="70.669" height="52.494" viewBox="0 0 70.669 52.494">
  <path id="Path_4731" data-name="Path 4731" d="M708.076,636.736l-28.3,28.3c-.14.162-.251.342-.405.5l-3.838,3.838a8.936,8.936,0,0,1-12.569,0l-4.942-4.942c-.154-.155-.265-.334-.405-.5l-15.049-15.049a8.825,8.825,0,0,1,0-12.477l3.838-3.838a8.825,8.825,0,0,1,12.477,0l5.508,5.508a.692.692,0,0,1,.077.059,5.877,5.877,0,0,0,7.352,0,.7.7,0,0,1,.077-.059l10.917-10.917c.019-.019.022-.044.044-.063a2.205,2.205,0,0,1,3.128,3.11l.01.008-11.741,11.744c-.033.027-.063.049-.1.078-3.017,3.021-9.015,3.021-12.032,0a1.028,1.028,0,0,0-.1-.078l-5.49-5.489a5.514,5.514,0,0,0-7.8,0l-2.279,2.278a5.514,5.514,0,0,0,0,7.8l15.05,15.05a5.358,5.358,0,0,0,.4.5l3.382,3.382a5.632,5.632,0,0,0,7.888,0l2.278-2.278a5.773,5.773,0,0,0,.409-.5l28.292-28.3a5.514,5.514,0,0,0,0-7.8l-3.346-3.349,0,0a.229.229,0,0,1-.033-.025,2.208,2.208,0,0,1,3.124-3.121c.011.011.011.022.022.033h0l4.128,4.125a8.825,8.825,0,0,1,0,12.477Zm-17.3-11.16a2.208,2.208,0,1,1,2.208-2.208,2.209,2.209,0,0,1-2.208,2.208Z" transform="translate(-639.99 -619.455)" fill="#1cd83c" fill-rule="evenodd"/>
</svg>
