<svg xmlns="http://www.w3.org/2000/svg" width="43.995" height="35.746" viewBox="0 0 43.995 35.746">
  <path id="Path_4939" data-name="Path 4939" d="M828.5,1242.871H827.12a1.375,1.375,0,1,1,0-2.75H828.5a2.749,2.749,0,0,0,2.75-2.75v-4.125a1.21,1.21,0,0,0-.05-.323c-.014-.041-.032-.085-.05-.128a1.207,1.207,0,0,0-.062-.137,2.885,2.885,0,0,0-2.035-1.424,13.834,13.834,0,0,0-4.676-.738,13.623,13.623,0,0,0-4.567.729,3.119,3.119,0,0,0-1.56.708l-.006-.007a1.264,1.264,0,1,1-1.453-2.049,9.944,9.944,0,0,1,2.75-1.386,6.849,6.849,0,0,1-2.009-4.308c-.018-.183-.028-.371-.028-.561V1219.5a5.5,5.5,0,0,1,5.5-5.5h2.75a5.5,5.5,0,0,1,5.5,5.5v4.125a1.375,1.375,0,0,1-2.75,0V1219.5a2.749,2.749,0,0,0-2.75-2.75H823a2.749,2.749,0,0,0-2.75,2.75v4.125a4.124,4.124,0,0,0,4.124,4.124c5.316,0,9.624,2.463,9.624,5.5v4.125a5.5,5.5,0,0,1-5.5,5.5Zm-14.447-11.837a1.371,1.371,0,0,1-2.674-.429,1.386,1.386,0,0,1,.118-.552l0,0a5.462,5.462,0,0,0,.511-2.3,5.554,5.554,0,0,0-.08-.9,3.67,3.67,0,0,0,.08-.77v-5.6a3.7,3.7,0,0,0-3.666-3.733h-3.667a3.7,3.7,0,0,0-3.666,3.733v5.6a3.809,3.809,0,0,0,.08.77,5.465,5.465,0,0,0,5.419,6.4c9.11,0,16.5,3.387,16.5,7.562v3.437a5.5,5.5,0,0,1-5.5,5.5h-22a5.5,5.5,0,0,1-5.5-5.5v-3.437c0-1.579,1.052-3.033,2.834-4.236a1.254,1.254,0,0,1,.78-.276,1.272,1.272,0,0,1,.689,2.343l.009.013a2.861,2.861,0,0,0-1.562,2.156v3.437a2.749,2.749,0,0,0,2.75,2.75h22a2.749,2.749,0,0,0,2.75-2.75v-3.437c0-2.658-6.155-4.812-13.748-4.812a8.214,8.214,0,0,1-5.687-2.282,8.3,8.3,0,0,1-1.49-1.909c0-.009-.012-.016-.016-.025-.122-.218-.234-.445-.337-.674-.012-.023-.023-.046-.032-.069-.094-.215-.177-.436-.252-.66-.014-.041-.03-.081-.043-.122-.066-.208-.121-.424-.17-.639-.014-.057-.034-.114-.045-.172-.044-.211-.074-.426-.1-.641-.009-.067-.023-.131-.03-.2a8.232,8.232,0,0,1-.045-.859c0-.151.014-.3.023-.449-.011-.156-.023-.309-.023-.468v-6.416a6.305,6.305,0,0,1,6.187-6.416h4.125a6.305,6.305,0,0,1,6.187,6.416v6.416c0,.158-.012.311-.023.468.009.149.023.3.023.449a8.142,8.142,0,0,1-.7,3.286Zm-15.111,4.276a1.375,1.375,0,1,1-1.375-1.375,1.376,1.376,0,0,1,1.375,1.375Z" transform="translate(-790 -1214)" fill="#035aa7" fill-rule="evenodd"/>
</svg>
