<svg xmlns="http://www.w3.org/2000/svg" width="48.714" height="31.494" viewBox="0 0 48.714 31.494">
  <g id="delivery" transform="translate(0.25 0.25)">
    <g id="Group_2718" data-name="Group 2718" transform="translate(0)">
      <path id="Path_3784" data-name="Path 3784" d="M37.316,76.166a1.722,1.722,0,1,0,0,3.444,8.742,8.742,0,0,1,8.732,8.732v6.765H44.009a5.136,5.136,0,0,0-9.7,0H32.272V73.967A2.971,2.971,0,0,0,29.3,71H9.412a2.971,2.971,0,0,0-2.969,2.967v3.921H4.722a1.722,1.722,0,0,0,0,3.444H8.166A1.721,1.721,0,0,0,9.888,79.61V74.444H28.829V95.107H23.346a5.136,5.136,0,0,0-9.7,0H9.888V89.941a1.721,1.721,0,0,0-1.722-1.722H4.722a1.722,1.722,0,0,0,0,3.444H6.444v3.921a2.971,2.971,0,0,0,2.969,2.967h4.236a5.136,5.136,0,0,0,9.7,0H34.311a5.136,5.136,0,0,0,9.7,0H47.77a1.721,1.721,0,0,0,1.722-1.722V88.341A12.189,12.189,0,0,0,37.316,76.166ZM18.5,98.551a1.722,1.722,0,1,1,1.722-1.722A1.724,1.724,0,0,1,18.5,98.551Zm20.663,0a1.722,1.722,0,1,1,1.722-1.722A1.724,1.724,0,0,1,39.16,98.551Z" transform="translate(-1.278 -71)" fill="#035aa7" stroke="#fff" stroke-width="0.5"/>
      <path id="Path_3785" data-name="Path 3785" d="M18.506,82.888l-.5.5a1.722,1.722,0,1,0,2.435,2.435l3.444-3.444a1.72,1.72,0,0,0,0-2.435L20.436,76.5A1.722,1.722,0,1,0,18,78.939l.5.5H3.722a1.722,1.722,0,0,0,0,3.444Z" transform="translate(-2 -67.391)" fill="#035aa7" stroke="#fff" stroke-width="0.5"/>
    </g>
  </g>
</svg>
