<svg id="Group_488" data-name="Group 488" xmlns="http://www.w3.org/2000/svg" width="196.151" height="68.836" viewBox="0 0 196.151 68.836">
  <path id="Path_551" data-name="Path 551" d="M81.8,113.423l-.6.262c-.215.1-.457.195-.724.3a7.887,7.887,0,0,1-2.9.523q-2.057,0-2.054-1.007,0-1.972,6.163-1.975H81.8Zm5.061,7.276a2.437,2.437,0,0,0,1.652-.593c.027-.023.059-.046.09-.072.136-.109.306-.247.5-.4.061-.052.127-.107.2-.16,0,0,0,0,0,0l.5-.416.314-.262c.048-.039.095-.077.141-.118l.056-.045c.066-.057.132-.111.2-.165q.156-.129.306-.258l.219-.186h0l.131-.111c.161-.134.308-.258.437-.364.281-.24.478-.406.525-.446a.056.056,0,0,1,.011-.009,1.037,1.037,0,0,0,.3-.522,1.166,1.166,0,0,0-.041-.684,1.183,1.183,0,0,0-.423-.545,1.164,1.164,0,0,0-.466-.2,1.4,1.4,0,0,1-.552-.22l-.01-.007a.81.81,0,0,1-.281-.613v-7.89a13.311,13.311,0,0,0-.686-4.534,6.953,6.953,0,0,0-2.1-3.041A8.877,8.877,0,0,0,84.3,97.123a21.37,21.37,0,0,0-5.156-.545,18.273,18.273,0,0,0-3.507.324,20.664,20.664,0,0,0-3.183.887q-1.009.4-1.774.765c-.378.181-.715.353-1.007.518a.062.062,0,0,0-.016.009c-.038.018-.138.071-.269.147-.039.025-.079.05-.122.079a3.692,3.692,0,0,0-.349.253l-.093.077a2.118,2.118,0,0,0-.475.579,1.151,1.151,0,0,0-.125.369,1.015,1.015,0,0,0,.01.34v0a1.267,1.267,0,0,0,.068.206c.509,1.167,1.532,3.5,1.532,3.5a.685.685,0,0,0,.084.149c.188.267.755.749,2.206.147l.016-.007q1.052-.475,2.489-1.014a9.72,9.72,0,0,1,1.975-.566,12.424,12.424,0,0,1,2.016-.16,3.615,3.615,0,0,1,2.217.606,2.261,2.261,0,0,1,.844,1.853l-3.382-.163a15.16,15.16,0,0,0-3.043.143c-.423.066-.835.145-1.238.24-.29.068-.577.143-.857.226l0,0a.068.068,0,0,0-.016,0,18.2,18.2,0,0,0-2.283.984.044.044,0,0,0-.014.009.886.886,0,0,0-.084.045l-.24.144a.714.714,0,0,1-.066.039c-.032.02-.063.041-.095.058-.136.08-.269.159-.4.24a6.894,6.894,0,0,0-3.344,5.885,6.8,6.8,0,0,0,2.195,5.319q2.2,1.971,6.387,1.975a14.771,14.771,0,0,0,4.19-.6,22.437,22.437,0,0,0,3.869-1.532,4.635,4.635,0,0,0,.423.441c.147.136.317.285.5.443a5.093,5.093,0,0,0,2.631,1.145Z" transform="translate(-38.794 -56.246)" fill="#0d1c45"/>
  <path id="Path_552" data-name="Path 552" d="M148.317,99.462a1.7,1.7,0,0,0-.762-1.435l-.01-.006a4.32,4.32,0,0,0-.583-.3l-.032-.013c-.228-.079-.469-.163-.724-.244a.081.081,0,0,1-.011,0h-.007v0c-.577-.179-1.224-.355-1.946-.522a14.944,14.944,0,0,0-3.444-.406,14.605,14.605,0,0,0-3.79.466,9.073,9.073,0,0,0-3.021,1.389,6.383,6.383,0,0,0-2.177,2.5,7.851,7.851,0,0,0-.685,3.385q0,.189.007.374a6.615,6.615,0,0,0,2.955,5.2l.005,0a6.726,6.726,0,0,0,.853.491q2.858,1.374,5.81,2.543l.02.008c.742.3,1.109.62,1.109.968q0,.322-.441.461a4.015,4.015,0,0,1-1.211.143,12.58,12.58,0,0,1-4.634-.884c-.805-.3-1.464-.548-1.975-.747l-.681-.274c-.229-.081-1.738-.577-2.023.439a.913.913,0,0,0-.023.145,2.585,2.585,0,0,0,0,.5l.317,3.558.033.379a2.491,2.491,0,0,0,1.657,2.153l.039.014s0,0,0,0c.147.048.306.093.48.132l.011,0a27.911,27.911,0,0,0,3.17.631,29.684,29.684,0,0,0,4.193.281,11.38,11.38,0,0,0,7.05-1.935,6.56,6.56,0,0,0,2.539-5.559,6.126,6.126,0,0,0-1.611-4.374,11.789,11.789,0,0,0-4.511-2.8q-2.461-.926-3.548-1.471t-1.088-1.106a.616.616,0,0,1,.362-.5,1.845,1.845,0,0,1,.966-.221,7.592,7.592,0,0,1,3.387.885q.926.445,1.47.747c.362.2.6.33.706.382.939.5,1.4.052,1.625-.387a1.859,1.859,0,0,0,.188-.849Z" transform="translate(-76.226 -56.219)" fill="#0d1c45"/>
  <path id="Path_553" data-name="Path 553" d="M25.773,100.878H11.179V97.507h11.53a1.245,1.245,0,0,0,1.244-1.244V90.437a1.245,1.245,0,0,0-1.244-1.244H11.179V85.966H24.562a1.244,1.244,0,0,0,1.244-1.244V78.844A1.244,1.244,0,0,0,24.562,77.6H1.245A1.245,1.245,0,0,0,0,78.844V108a1.245,1.245,0,0,0,1.245,1.244H25.773A1.245,1.245,0,0,0,27.017,108v-5.877A1.245,1.245,0,0,0,25.773,100.878Z" transform="translate(0 -45.194)" fill="#0d1c45"/>
  <path id="Path_554" data-name="Path 554" d="M433.445,99.35h-5.626a1,1,0,0,0-.907.584l-4.22,9.177-4.125-9.032a1.244,1.244,0,0,0-1.131-.729h-7.025a1.243,1.243,0,0,0-1.131,1.76l8.968,17.67-2.83,6.155a1.244,1.244,0,0,0,1.132,1.762h5.079a1.247,1.247,0,0,0,1.132-.724l1.961-4.267,1.868-4.063,7.763-16.881A1,1,0,0,0,433.445,99.35Z" transform="translate(-238.294 -57.861)" fill="#0d1c45"/>
  <path id="Path_555" data-name="Path 555" d="M297.138,92.978a4.194,4.194,0,0,1,2.159-.588,3.727,3.727,0,0,1,3.217,1.491,7.19,7.19,0,0,1,1.1,4.315,6.553,6.553,0,0,1-.923,3.649,2.812,2.812,0,0,1-2.45,1.414,4.9,4.9,0,0,1-2.629-.785l-.127-.083c-.315-.21-.423-.318-.658-.488s-.432-.319-.59-.448V93.446M294,106.709a10.735,10.735,0,0,0,7.887,3.1,9.559,9.559,0,0,0,7.652-3.411,13.012,13.012,0,0,0,2.747-8.672,13.257,13.257,0,0,0-2.67-8.67,8.723,8.723,0,0,0-3.217-2.572,10.2,10.2,0,0,0-4.276-.844,11.194,11.194,0,0,0-4.629,1.023l-1.258.548V79a1.245,1.245,0,0,0-1.245-1.244H288.34a1.216,1.216,0,0,0-.536.122.783.783,0,0,0-.073.036v0A1.238,1.238,0,0,0,287.1,79V108.1a1.245,1.245,0,0,0,1.244,1.244h3.54a.769.769,0,0,0,.111-.008.884.884,0,0,0,.6-.418Z" transform="translate(-167.202 -45.287)" fill="#0d1c45"/>
  <path id="Path_556" data-name="Path 556" d="M366.189,121.411a.993.993,0,0,0,.826.5h5.079a1.245,1.245,0,0,0,1.245-1.244V100.594a1.248,1.248,0,0,0-1.245-1.244h-6.651a.19.19,0,0,0-.034,0,.085.085,0,0,0-.034,0,1.242,1.242,0,0,0-1.176,1.24v13.448l-1.28.565a7.947,7.947,0,0,1-1.075.4c-.145.041-.283.074-.414.1a4.269,4.269,0,0,1-.8.1,1.3,1.3,0,0,1-1.286-1.026,2.7,2.7,0,0,1-.128-.864V100.594a1.241,1.241,0,0,0-.945-1.206c-.028-.007-.054-.013-.082-.018a1.152,1.152,0,0,0-.217-.02h-6.652c-.029,0-.059,0-.088,0,0,0-.007,0-.009,0a.773.773,0,0,1-.077.009,1.249,1.249,0,0,0-.921.641.2.2,0,0,0-.022.05,1.219,1.219,0,0,0-.127.543v13.892c0,.1,0,.195.007.292s.009.21.016.317a7.9,7.9,0,0,0,7.715,7.285c.094,0,.189,0,.285,0a12.1,12.1,0,0,0,3.649-.622,15.349,15.349,0,0,0,2.455-1.09c.38-.2.76-.43,1.136-.672Z" transform="translate(-203.878 -57.861)" fill="#0d1c45"/>
  <path id="Path_557" data-name="Path 557" d="M233.894,58.078l0,0,0,0Z" transform="translate(-136.218 -33.824)" fill="#0d1c45"/>
  <path id="Path_558" data-name="Path 558" d="M224.365,20.34c.239-.272,3.328-3.038,3.328-3.038l-.743-1.975s-3.756,1.96-6.847.606l-.895,1.964-1.281-1.026,2.413-1.381-1.611.654s.88-1.531,1.31-2.289c1.516-.066,4.516.172,4.516.172l3.047-1.27,2.722.654C230.417,13.725,228.274,19.492,224.365,20.34Zm-22.1,3.13a.663.663,0,0,1,0-1.325.663.663,0,1,1,0,1.325Zm.446.913a.247.247,0,0,1-.137.327.255.255,0,0,1-.327-.137.251.251,0,0,1,.137-.327.269.269,0,0,1,.208,0v.007A.221.221,0,0,1,202.708,24.384Zm16.31,1.029a.175.175,0,0,1-.175.175.174.174,0,0,1,0-.349A.176.176,0,0,1,219.018,25.413Zm-.027-.8a.451.451,0,1,1,.446-.449A.452.452,0,0,1,218.992,24.618Zm1.821-1.9a3.36,3.36,0,0,0-2.722.193s-.057-.234.579-1.052c-2.137.585-2.413,3.524-2.307,3.489,0,0,.683-.849.922-1.109a1.617,1.617,0,0,0,.02.243,1.809,1.809,0,0,0,1.065,1.381,1.281,1.281,0,0,0,1.7-.6,1.79,1.79,0,0,0,.051-1.624l.835.542s-.34,1.979-1.469,2.187a9.792,9.792,0,0,1-2.192-.186s1.255.61,1.75.84c-.462.512-1.434,1.575-1.434,1.575a4.452,4.452,0,0,0,.322,2.357c-2.205-2.079-2.755-4.757-2.837-7.632a11.274,11.274,0,0,0,3.1,9.143c-1.163,2.28-.142,3.836,1.832,4.326.371,1.014,1.094,3.345,1.094,3.345a2.8,2.8,0,0,1-1.049,1.482c.459-.345.93-.7,1.259-.943l.539.482-1.918,1.273a8.632,8.632,0,0,1-3.665.55,3.1,3.1,0,0,1-.729-.13,12.759,12.759,0,0,1-4.993-2.671l-2.435-3.025.634-.411-.393-.579-.758.495-.349,1.787.606-1.005.4.588.882,1.167a18.737,18.737,0,0,0,3.411,3.442,15.863,15.863,0,0,0,6.7,1.222s-.274.605-.378.831a12.366,12.366,0,0,1-6.1-.95,8.03,8.03,0,0,0,4.951,1.248c-1.052.895-5.959,2.139-8.608-3.5a4.206,4.206,0,0,1-3.851-1.412,2.692,2.692,0,0,0,1.251,1.418l-1.741.709.917.033-.223,2.7-1.456-.862-4.337,4.368-.638,7.588,4.32,2.194.327,2.9-2.712-1.588a3.028,3.028,0,0,0-2.94-.067c-1.483.78-3.578,1.886-3.855,2.057l-8.321-5.256c.179-.318,1.209-2.07,1.372-2.353.784.568,1.5,1.081,2.3,1.652a21.029,21.029,0,0,1,6.982-4.26,36.185,36.185,0,0,0,1.719-6.3c.053-.338-3.3-4.4-3.3-4.4l1.189-2.552.252,2.388,1.118-9.607,2.061-3.6.944.4,1.67-.643c-.25.08-1.392.413-1.931-.122.555-.157,3.246-.546,3.246-.546l1.865-1.608L203.4,25.893l-2.936-.02s-1.3-.753-1.549-1.518a1.273,1.273,0,0,1,.59-1.523,2.446,2.446,0,0,0,2.083,2.653,1.911,1.911,0,0,0,1.288-.283,2.1,2.1,0,0,0,.994-1.662,3.552,3.552,0,0,0-.274-1.2c.78.623,2.033,1.606,2.033,1.606l-.953-3.082.048.955-1.283-.974.46.669a11.117,11.117,0,0,0-3.372-.38,7.658,7.658,0,0,0-.971.331c0-.048,1.445-1.308,1.445-1.308l-.628.312a5.289,5.289,0,0,0-2.276,2.192c-.142.258-.285.5-.413.687-.634-.725-.738-1.452-.426-2.8,1.118-1.036,2.265-2.088,3.383-3.124V15.654c.322-.7,1.129-2.024,1.129-2.024l.343,1.927,2-.131.977-1.489-.044-1.856-.305-.517.573-.884c1.242-.864,8.648,1.685,10.68,3.011l-3.239-2.815A2.621,2.621,0,0,0,214.862,9.6a4.878,4.878,0,0,0-.592-2.125,2.026,2.026,0,0,0-1.368.135c-.217-1.556-.425-3.067-.617-4.426.765-.822,1.452-1.56,2.183-2.351l1.964,1.032s.628,2.778-.267,3.966l-1.025.06c-.17.437-.289.753-.464,1.206a1.293,1.293,0,0,0,1.1.736c.141-.164.38-.449.572-.665V6.147l.2-.166.2,2.3-1.226.409-.676,2.106.661.747,1.44-.552.06.312s-1.272.338-1.518,1.348l1.637,1.4s.1,1.619.179,2.748c1.2,1.217,3.864,3.645,3.864,3.645l.064,2.013s-.541-.208-.9-.349C220.556,22.386,220.812,22.713,220.812,22.713Zm-.68,12.667c-.04.212-.071.4-.122.654a2.642,2.642,0,0,1-1.118-1.823C219.284,34.581,219.682,34.952,220.132,35.38ZM196.4,20.657l-.8-.257,1.363-2.213-.672-3.409L187.1,10.188V9.344l1.747-.139,8.928,3.548.855,3.425,1.653.337ZM201.29,1.821,202.7.272c.879.077,3.952.948,3.952.948.058,1.18-.291,2.8-1.734,5.626l.735-.508c-.718,1.642-.786,2.884-.265,3.761l-1.67,2.353-.974.3-.479-1.4.844-.053c.256-.464.831-1.54.831-1.54s-1.25-1.827-1.648-2.24a7.123,7.123,0,0,1,.387-.769Zm26.392,10.572-2.583.888L219.456,13l-1.41,3.089-.446.068-.855-10.347.577-.873c-.152-.872-.493-3.254-.493-3.254S215.1.8,214.372.42c-.864.844-1.719,1.679-2.543,2.488.055.435.159,1.213.243,1.854a8.444,8.444,0,0,1-.238,3.48,5.146,5.146,0,0,1-1.509,2.539l-2.848-.968s.157-.616.241-.954c-.59-.943-1.184-1.9-1.807-2.9A7.784,7.784,0,0,0,206.97.7l-4.4-.7a16.25,16.25,0,0,1-1.6,1.114L200.9,2.393l1.255,3.984-.466,1.613-.608,1.1.681,3.714-1.6,3.142-.851-.365-.279-2.848L189.007,8.69l-2.364.461V10.21l5.849,10.239s2.727.76,4.048,1.125c.246.813.479,1.592.725,2.417a4.972,4.972,0,0,1-2.49-.205c.205.079,1.741.669,2.6.915-.371.168-1.1.506-1.1.506l2.177-.524-.108.643.3.367-1.1.981,1.065-.639-.767,1.266,1.016-.981L196.891,30.5l-.42,2.667-.84,4.689L182.4,60.509s-1.993,2-2.261,2.245l.484,1.3h36.986a10.9,10.9,0,0,0,2.962-.608c.224-.066,1.53-.474.7-.474H204.625c-.207-1.558-.635-4.842-.81-6.559a9.22,9.22,0,0,1,.033-3.524c.981-3.5,2.985-11.1,2.985-11.1l2.1.349s3.674,7.1,9.439,2.928c0,0,.532-.08.811-.135.486-1.447,3.06-3.9,3.06-3.9l-.793-.508s-1.35-4.079-.707-5.312c-.669-.557-1.821-1.518-1.821-1.518V31.659c-1.1-.921-.853-3.208-.853-3.208l2.075-1.6.638.674-.208-.89,1.014.687-.836-.954.754-1.429.948.654-.572-.8a4.74,4.74,0,0,0,1.942-.431,2.346,2.346,0,0,1-1.637-.144s1.262-.588,1.883-.884c-1.783.568-2.351.11-2.351.11l.126-.839,1.627-.111,2.145-1.9a18.863,18.863,0,0,0,5.141-7.437Z" transform="translate(-104.91)" fill="#0d1c45"/>
  <path id="Path_559" data-name="Path 559" d="M213.252,128.568l-.374-1.231-1.509-.259c-.928,1.1-2.742,3.259-2.742,3.259l-.117.36s.484,2.05.778,3.274c1.916-.864,5.473-2.322,5.473-2.322s-.382-2.011-.579-3.043Z" transform="translate(-121.434 -74.01)" fill="#0d1c45"/>
  <path id="Path_560" data-name="Path 560" d="M227.832,80.426c-.473-.345-.963-.665-1.414-1.034a7.794,7.794,0,0,1-2.659-3.5,9.545,9.545,0,0,1-.329-3.9c.062-.689.2-1.37.314-2.055-.112.221-1.387,5.19-1.387,5.19l-.514.487-.464,6.038,3.058,2.753,1.319-2.422-1.246-2.711.477-.353S226.942,79.881,227.832,80.426Z" transform="translate(-128.929 -40.731)" fill="#0d1c45"/>
  <path id="Path_561" data-name="Path 561" d="M216.563,145.562l.014-.013a.036.036,0,0,0-.014,0Z" transform="translate(-126.124 -84.766)" fill="#0d1c45"/>
  <path id="Path_562" data-name="Path 562" d="M231.664,75.219c.195-.892.585-2.691.585-2.691l-1.129-.95-2.269,1-.59,2.526,1.184,1.549S230.93,75.694,231.664,75.219Z" transform="translate(-132.937 -41.686)" fill="#0d1c45"/>
  <path id="Path_563" data-name="Path 563" d="M234.844,84.523l-2.286,2.053c.32.418.875,1.147.875,1.147l3.179-1.547-.32-1.661Z" transform="translate(-135.44 -49.221)" fill="#0d1c45"/>
  <path id="Path_564" data-name="Path 564" d="M256.259,68.518a3.4,3.4,0,0,1-.519-.316,2.238,2.238,0,0,1-.632-1.074,9,9,0,0,1-.234-1.266,13.846,13.846,0,0,0-2-5.9,15.452,15.452,0,0,1,1.617,6.083,9.652,9.652,0,0,0,.479,2.424c.259.753.537,1.748,1.185,2a.731.731,0,0,1,.517.506.7.7,0,0,1-.716.82,3.358,3.358,0,0,1-2.243-1.317,3.216,3.216,0,0,0,1.739,1.513,1.366,1.366,0,0,0,1.71-.692,2.533,2.533,0,0,0-.007-1.8A1.9,1.9,0,0,0,256.259,68.518Z" transform="translate(-147.271 -34.923)" fill="#0d1c45"/>
  <path id="Path_565" data-name="Path 565" d="M248.1,61.148a1.074,1.074,0,0,1-.084.557l-.685,1.555a3.9,3.9,0,0,0,2.273-1.323l-.957-2.707-.727.435Z" transform="translate(-144.043 -34.495)" fill="#0d1c45"/>
  <path id="Path_566" data-name="Path 566" d="M246.205,30.12l-.915-1.3-1.724,1.626.473,1.045A2.843,2.843,0,0,0,246.205,30.12Z" transform="translate(-141.851 -16.784)" fill="#0d1c45"/>
  <path id="Path_567" data-name="Path 567" d="M246.891,70.678l.254,1.167,1.763.135.623-1.164-1-.871Z" transform="translate(-143.787 -40.735)" fill="#0d1c45"/>
  <path id="Path_568" data-name="Path 568" d="M261.218,9.285c-.522-.307-.972-.57-1.558-.915a1.758,1.758,0,0,0-.775,1.5l1.246,1.01A2.255,2.255,0,0,0,261.218,9.285Z" transform="translate(-150.772 -4.875)" fill="#0d1c45"/>
  <path id="Path_569" data-name="Path 569" d="M245.053,61.823c-.3.038-.528.066-.8.1-.285.635-.557,1.24-.855,1.907l.665.215,1.291-1.111C245.251,62.563,245.159,62.218,245.053,61.823Z" transform="translate(-141.75 -36.005)" fill="#0d1c45"/>
  <path id="Path_570" data-name="Path 570" d="M252.646,67.113l-.667.833c.371.221.672.4,1.01.6C253.453,67.891,253.351,67.515,252.646,67.113Z" transform="translate(-146.75 -39.086)" fill="#0d1c45"/>
  <path id="Path_571" data-name="Path 571" d="M236.333,9.475a1.912,1.912,0,0,0,.442-1.353l-1.8-.7a2.826,2.826,0,0,0-.371,2.05Z" transform="translate(-136.596 -4.324)" fill="#0d1c45"/>
  <path id="Path_572" data-name="Path 572" d="M84.792,59.666c-.061-.64-.091-1.311-.091-1.982a23.986,23.986,0,0,1,1.555-8.353A36.122,36.122,0,0,0,84.792,59.666Zm-1.8-6.768a31.557,31.557,0,0,0-.549,5.091c-.64-.488-1.524-1.037-2.164-1.463.915-1.4,1.982-2.744,2.8-4.207Zm-3.2,3.353-.122-.091a46.24,46.24,0,0,0,3.14-4.451C81.927,53.233,80.464,55.337,79.793,56.252Zm-.488-.3-.122-.091c.579-.732,2.866-4.085,2.9-4.085-.518.518-2.134,3.384-2.591,3.963Zm-8.536-1.555a2.013,2.013,0,0,1,1.8-.823,7.15,7.15,0,0,1,2.347.518,9.706,9.706,0,0,0-2.1-.3A3.2,3.2,0,0,0,70.769,54.392ZM86.1,44.118c-.4.549-.457.335-.823.457l-.091.091a83.2,83.2,0,0,1-7.195,10.517,3.076,3.076,0,0,1-.457-.213l-.183-.091a10.835,10.835,0,0,0-4.878-1.555,2.2,2.2,0,0,0-1.921.976l-.091.213a3.482,3.482,0,0,0-.4,1.158c0,.122.122.061.122.183,0,.061-.091.152-.122.183.152.183.213.457.457.457a4.606,4.606,0,0,1,1.189-.213,13.439,13.439,0,0,1,4.451.854c-.945.884-2.866,2.073-2.866,2.5,0,.61.915.518,1.463,1.067l.3.091a2.615,2.615,0,0,0,.7.061c1.372-.091,2.439-1.372,3.384-2.561a17.86,17.86,0,0,1,3.414,1.921c.244,1.951,1.036,3.9,2.835,3.9.884,0,2.286-.823,2.286-1.707,0-.3-.274-.335-.579-.335-1.372,0-1.86-1.646-1.86-3.963,0-4.085,1.616-10.121,3.262-12.194a.661.661,0,0,0,.152-.427,2.136,2.136,0,0,0-1.829-1.768A.9.9,0,0,0,86.1,44.118Z" transform="translate(-40.807 -25.463)" fill="#e9202d"/>
  <path id="Path_573" data-name="Path 573" d="M113.308,71.137a6.077,6.077,0,0,1-2.195,3.079,14.15,14.15,0,0,0,1.86-2.561c.122-.274.3-.823.335-.823Zm-2.927,1.4a1.069,1.069,0,0,1-.091-.488,32.559,32.559,0,0,1,1.311-5.335,1.791,1.791,0,0,0,1.1.4c.091,0,.152-.03.244-.03,0,2.988-1.707,5.579-2.378,5.579A.167.167,0,0,1,110.381,72.54Zm2.53-15.243a32.854,32.854,0,0,0-2.195,6.524A16.549,16.549,0,0,1,112.911,57.3Zm-.061,8.749a.955.955,0,0,1-.884-.61l.3-1.128A5.558,5.558,0,0,1,112.85,66.046Zm3.353-3.11c-.976,1.036-1.311,2.043-2.195,2.683a6.846,6.846,0,0,0-1.4-2.317,39.022,39.022,0,0,1,2.043-4.847.844.844,0,0,0,.091-.4,2.632,2.632,0,0,0-1.829-2.073.241.241,0,0,0-.244.152c-1.311,2.957-4.42,11.554-4.42,16.218,0,1.677.457,3.049,1.585,3.049,1.738,0,4.573-3.567,4.573-7.408a6.959,6.959,0,0,0-.122-1.372,7.684,7.684,0,0,0,2.8-3.6,1.661,1.661,0,0,0,.213-.64.139.139,0,0,0-.122-.152C116.966,62.236,116.6,62.571,116.2,62.937Z" transform="translate(-63.042 -32.606)" fill="#e9202d"/>
  <path id="Path_574" data-name="Path 574" d="M130.726,65.057a10.512,10.512,0,0,0,.122,2.073,2.282,2.282,0,0,1-.3-1.1A2.892,2.892,0,0,1,130.726,65.057Zm-4.573,1.524a6.939,6.939,0,0,1,1.433-3.963A13.836,13.836,0,0,0,126.153,66.582Zm6.981-4.177a1.2,1.2,0,0,0-.823-.335c-2.012,0-4.451,5-4.817,6.341a25.752,25.752,0,0,1,1.829-5.244.519.519,0,0,0,.03-.213c0-.64-1.006-1.128-1.707-1.128a.7.7,0,0,0-.549.183,22.415,22.415,0,0,0-2.134,8.018c0,1.463.427,2.5,1.677,2.5a.489.489,0,0,0,.488-.4,24.891,24.891,0,0,1,3.171-6.951,5.167,5.167,0,0,0-.03.671c0,1.829.457,2.866,1.341,2.866a.385.385,0,0,0,.427-.427,6.961,6.961,0,0,1-.061-.762c0-2.408,1.463-3.6,1.463-4.512A.839.839,0,0,0,133.134,62.405Z" transform="translate(-72.778 -36.007)" fill="#e9202d"/>
  <path id="Path_575" data-name="Path 575" d="M146.788,53.734A6.344,6.344,0,0,1,147.733,52a5.017,5.017,0,0,1-.7,1.463c0-.03-.091.427-.274.427A1.32,1.32,0,0,1,146.788,53.734Zm1.036,1.494a21.074,21.074,0,0,1,1.768-2.5.112.112,0,0,0,.03-.091c0-.427-1.341-1.25-1.89-1.25-.579,0-1.433,2.408-1.433,2.927,0,.488.854,1.006,1.28,1.006A.3.3,0,0,0,147.825,55.228Zm-3.262,8.6c-.03.213-.061.4-.091.4s-.031-.091-.031-.3c.031-1.1,1.219-4.6,1.677-4.6A25.762,25.762,0,0,0,144.563,63.825Zm3.933-3.536c-1.067,1.037-2.164,3.78-3.719,4.725,0-1.8,1.037-4.542,2.469-7.134a1.1,1.1,0,0,0,.152-.579c0-.854-1.067-1.433-1.768-1.433a.54.54,0,0,0-.518.244c-1.28,2.866-2.408,5.792-2.408,7.835,0,1.28.549,2.5,1.921,2.5,1.86,0,5-6.128,5-6.646a.144.144,0,0,0-.152-.152C149.257,59.649,148.892,59.953,148.5,60.289Z" transform="translate(-83.109 -29.927)" fill="#e9202d"/>
  <path id="Path_576" data-name="Path 576" d="M156.827,66.252c0-.671,1.25-1.677,1.25-1.677A18.094,18.094,0,0,0,156.827,66.252Zm-.7.366a.758.758,0,0,1-.152.335,5.506,5.506,0,0,1,1.921-3.17,1.629,1.629,0,0,1,.274-.213,12.187,12.187,0,0,0-1.829,2.561A4.379,4.379,0,0,0,156.126,66.618Zm6.768-.091c-.762.671-2.225,4.451-4.42,4.451-.915,0-1.311-.671-1.311-1.585a4.72,4.72,0,0,1,.274-1.494c.427-1.28,1.951-3.872,2.652-3.872.152,0,.244.122.244.366a5.149,5.149,0,0,1-.762,1.982.492.492,0,0,0-.091.274.329.329,0,0,0,.366.335c1.158,0,2.256-2.652,2.256-3.231a2.009,2.009,0,0,0-1.982-1.707c-2.774,0-5.518,4.817-5.518,7.621a3.257,3.257,0,0,0,3.445,3.018c2.439,0,3.933-2.744,5.183-5.091l.366-.671a2.866,2.866,0,0,0,.366-.915c0-.061-.031-.122-.092-.122C163.717,65.886,163.412,66.1,162.894,66.526Z" transform="translate(-90.039 -36.134)" fill="#e9202d"/>
  <path id="Path_577" data-name="Path 577" d="M179.644,67.71c-.183.854-.579,2.012-.7,2.53-.031-.122.945-4.055.945-4.055.061-.3.213-.4.244-.4a.236.236,0,0,1-.031.091A10.838,10.838,0,0,1,179.644,67.71Zm-1.768-.854a.433.433,0,0,0-.061.183.657.657,0,0,0,.335.488c0,.518-2.866,3.536-3.231,3.536-.061,0-.091-.091-.091-.213,0-1.189,2.378-7.073,3.323-7.073.152,0,.183.091.183.427A9.11,9.11,0,0,1,177.876,66.856Zm-3.2-1.585c-.091.152-.3.7-.335.732a5.214,5.214,0,0,1,1.86-2.988A13.39,13.39,0,0,0,174.675,65.271Zm1.86-1.707c-.762,1.037-1.616,1.86-1.494,1.86-.091,0,.579-.945.579-1.006a5.275,5.275,0,0,1,1.037-.976Zm6.676,2.8c-1.006.976-1.921,3.567-3.262,4.695a12.351,12.351,0,0,1,1.433-5.03,1.082,1.082,0,0,0,.061-.3c0-.64-.823-1.25-1.372-1.463a2.654,2.654,0,0,0-2.561-2.439c-2.439,0-4.878,4.512-4.878,8.018,0,.915.549,2.8,2.1,2.8a5.214,5.214,0,0,0,2.9-1.982,2.141,2.141,0,0,0,1.4,1.89l.122.061a1.726,1.726,0,0,0,.549.091,1.329,1.329,0,0,0,.823-.274c1.311-1.067,3.811-6.341,3.811-6.554a.144.144,0,0,0-.152-.152A2.3,2.3,0,0,0,183.21,66.368Z" transform="translate(-100.539 -36.007)" fill="#e9202d"/>
</svg>
