<svg id="Group_5065" data-name="Group 5065" xmlns="http://www.w3.org/2000/svg" width="156.048" height="69.765" viewBox="0 0 156.048 69.765">
  <g id="Group_48" data-name="Group 48" transform="translate(0 0)">
    <path id="Path_223" data-name="Path 223" d="M345.161,115.122,339.18,133.1a19.831,19.831,0,0,0,2.01.935,26.068,26.068,0,0,0,29.1-7.676c.48-.6.935-1.226,1.39-1.851a25.741,25.741,0,0,1,3.714-4.356c2.169-1.905,5.673-3.464,9-2.129,3.919,1.57,5.171,6.139,5.844,8.595l3.04,11.093c1.716,6.263,3.143,12.852.165,18.513-2.532,4.817-8.084,7.97-14.144,8.033l-.2,0c-6.208,0-11.495-2.963-14.852-5.465-.54-.4-1.076-.824-1.617-1.246-2.384-1.87-4.636-3.638-7.2-3.823s-5.158,1.309-7.34,2.8l-1.036.716c-2.315,1.61-4.708,3.275-7.64,3.952-3.645.84-8.369-.4-9.952-4.336-1.128-2.8-.126-5.811.536-7.8l4.8-14.423a13.53,13.53,0,0,1-3.941-4.686,11.96,11.96,0,0,1,1.246-12.354,16.56,16.56,0,0,1,10.306-5.83l.034-.1c1.024-3.075,2.184-6.561,4.763-9.205a12.7,12.7,0,0,1,14.106-2.662c4.917,2.226,7.961,8.73,7.961,13.48V115.1Zm9.821,34.914c.238,0,.478.008.72.026,3.68.265,6.612,2.566,9.2,4.6.515.4,1.028.807,1.544,1.191,2.909,2.168,7.456,4.737,12.66,4.737h.161c4.656-.049,9.051-2.489,10.936-6.073,2.358-4.483,1.129-10.048-.457-15.836L386.7,127.582c-.75-2.736-1.713-5.376-3.67-6.16-1.793-.718-3.932.349-5.222,1.48a22.715,22.715,0,0,0-3.168,3.762c-.486.667-.973,1.334-1.486,1.977-7.638,9.568-21.968,13.348-33.332,8.793q-.947-.381-1.818-.816L333.487,150.2c-.653,1.961-1.191,3.842-.614,5.276.783,1.95,3.582,2.628,5.726,2.13,2.242-.516,4.247-1.911,6.368-3.388.355-.246.71-.493,1.064-.735C348.559,151.764,351.576,150.035,354.982,150.035Zm-13.928-34.188a12.1,12.1,0,0,0-6.043,3.981,8.331,8.331,0,0,0-.857,8.49,9.2,9.2,0,0,0,1.9,2.551Zm5.342-4.419,19.042,0c-.647-3.511-3-7.114-5.631-8.3a9.1,9.1,0,0,0-9.967,1.881A17.121,17.121,0,0,0,346.4,111.428Z" transform="translate(-328.961 -98.707)" fill="#20baa7"/>
  </g>
  <path id="Path_224" data-name="Path 224" d="M421.7,133.257V127.2h7.6v-3.374h-7.6v-6.057h8.671v-3.406H417.688v22.3h12.679v-3.406Z" transform="translate(-345.751 -101.67)" fill="#20baa7"/>
  <path id="Path_225" data-name="Path 225" d="M450.482,121.951a5.036,5.036,0,0,0-3.771-1.469,4.86,4.86,0,0,0-4.89,2.9v-9.021h-3.786v22.3h3.786v-8.579a4.556,4.556,0,0,1,1.089-3.406,3.457,3.457,0,0,1,2.445-1.043,2.6,2.6,0,0,1,2,.853,3.4,3.4,0,0,1,.771,2.368v9.806h3.786V126.194A5.819,5.819,0,0,0,450.482,121.951Z" transform="translate(-349.602 -101.67)" fill="#20baa7"/>
  <path id="Path_226" data-name="Path 226" d="M462.65,114.094a2.231,2.231,0,0,0-1.638-.662,2.253,2.253,0,0,0-2.27,2.271,2.239,2.239,0,0,0,.657,1.639,2.2,2.2,0,0,0,1.613.662,2.264,2.264,0,0,0,2.3-2.3A2.187,2.187,0,0,0,462.65,114.094Z" transform="translate(-353.521 -101.494)" fill="#20baa7"/>
  <path id="Path_227" data-name="Path 227" d="M470.906,135.074l7.444-10.28v-2.65H466.869v3.031H474l-7.413,10.156v2.8h12.174v-3.061Z" transform="translate(-355.005 -103.142)" fill="#20baa7"/>
  <path id="Path_228" data-name="Path 228" d="M484.335,114.363v22.3h3.78v-22.3Z" transform="translate(-358.364 -101.67)" fill="#20baa7"/>
  <path id="Path_229" data-name="Path 229" d="M429.99,171.786a1.508,1.508,0,1,0,.478,1.1A1.519,1.519,0,0,0,429.99,171.786Zm-3.662,0a1.521,1.521,0,1,0,.473,1.1A1.53,1.53,0,0,0,426.328,171.786Zm15-6.139a1.53,1.53,0,0,1-.658-.293,1.042,1.042,0,0,1-.328-.493,2.486,2.486,0,0,1-.092-.735v-6.488a5.743,5.743,0,0,0-1.043-3.719,4.269,4.269,0,0,0-3.468-1.264h-5.389v11.471a2.386,2.386,0,0,1-.236,1.264c-.16.237-.493.35-1.007.35h-2.983a4.646,4.646,0,0,1-4.654-4.654v-2.933H417.7v2.933a8.144,8.144,0,0,0,.663,3.282,8.453,8.453,0,0,0,1.813,2.671,8.6,8.6,0,0,0,2.676,1.819,8.189,8.189,0,0,0,3.278.657h3.2a4.9,4.9,0,0,0,3.7-1.171,5.459,5.459,0,0,0,1.1-3.811v-8.1h1.433a.721.721,0,0,1,.75.4,3.445,3.445,0,0,1,.164,1.213v6.488a4.719,4.719,0,0,0,1.392,3.811q1.395,1.172,4.582,1.171v-3.776A5.469,5.469,0,0,1,441.333,165.647Z" transform="translate(-345.754 -108.916)" fill="#20baa7"/>
  <path id="Path_230" data-name="Path 230" d="M449.6,145.945v16.732a2.064,2.064,0,0,1-.385,1.3,1.758,1.758,0,0,1-1.449.493A1.94,1.94,0,0,0,446.3,165a1.883,1.883,0,0,0-.514,1.372,1.842,1.842,0,0,0,.514,1.34,1.935,1.935,0,0,0,1.464.529,6.183,6.183,0,0,0,4.289-1.227,4.9,4.9,0,0,0,1.321-3.755V145.945Z" transform="translate(-351.069 -107.646)" fill="#20baa7"/>
  <path id="Path_231" data-name="Path 231" d="M475.667,171.786a1.51,1.51,0,1,0,.478,1.1A1.522,1.522,0,0,0,475.667,171.786Zm8.358-6.047a7.5,7.5,0,0,1-1.213-2.435c-.267-.919-.513-1.865-.729-2.841s-.463-1.931-.714-2.861a7.861,7.861,0,0,0-1.176-2.491,5.779,5.779,0,0,0-2.106-1.778,7.556,7.556,0,0,0-3.447-.678,5.937,5.937,0,0,0-2.677.642,7.752,7.752,0,0,0-2.306,1.777,9.91,9.91,0,0,0-1.706,2.676,11.869,11.869,0,0,0-.9,3.335h3.776a9.079,9.079,0,0,1,.55-1.849,6.184,6.184,0,0,1,.879-1.485,4.167,4.167,0,0,1,1.12-.97,2.475,2.475,0,0,1,1.264-.349,3.056,3.056,0,0,1,1.762.457,3.588,3.588,0,0,1,1.078,1.227,6.523,6.523,0,0,1,.642,1.742c.149.648.288,1.315.422,2s.282,1.366.442,2.05a6.335,6.335,0,0,0,.714,1.834H465.223a1.955,1.955,0,0,0-1.47.534,1.906,1.906,0,0,0-.513,1.372,1.865,1.865,0,0,0,.513,1.34,1.95,1.95,0,0,0,1.47.529h20.851v-3.776Z" transform="translate(-354.372 -108.916)" fill="#20baa7"/>
  <path id="Path_232" data-name="Path 232" d="M507.91,164.033a27.115,27.115,0,0,1-.842-2.928c-.231-1.018-.478-2.029-.735-3.046a9.064,9.064,0,0,0-1.151-2.713,5.919,5.919,0,0,0-2.111-1.942,7.406,7.406,0,0,0-3.606-.75,5.917,5.917,0,0,0-2.677.642,7.715,7.715,0,0,0-2.311,1.777,9.906,9.906,0,0,0-1.706,2.676,11.7,11.7,0,0,0-.893,3.335h3.776a8.5,8.5,0,0,1,.55-1.849,5.908,5.908,0,0,1,.878-1.485,4.083,4.083,0,0,1,1.115-.97,2.481,2.481,0,0,1,1.269-.349,3.05,3.05,0,0,1,1.757.457,3.483,3.483,0,0,1,1.079,1.227,6.589,6.589,0,0,1,.642,1.742c.149.648.288,1.315.421,2s.283,1.366.442,2.05a6.368,6.368,0,0,0,.714,1.834H490.043a1.952,1.952,0,0,0-1.469.534,1.9,1.9,0,0,0-.509,1.372,1.861,1.861,0,0,0,.509,1.34,1.946,1.946,0,0,0,1.469.529H509.43v-3.077A6.109,6.109,0,0,1,507.91,164.033Z" transform="translate(-359.07 -108.916)" fill="#20baa7"/>
  <path id="Path_233" data-name="Path 233" d="M516.771,145.945v22.3h3.781v-22.3Z" transform="translate(-364.503 -107.646)" fill="#20baa7"/>
  <path id="Path_234" data-name="Path 234" d="M461.338,159.969V146.885h0V122.148h-3.777v42.329a4.481,4.481,0,0,1-.365,1.813,4.433,4.433,0,0,1-.643,1.06,4.366,4.366,0,0,1-.358.428c-.1.1-.217.173-.324.26a5.323,5.323,0,0,1-.7.481,5.173,5.173,0,0,1-.457.25,4.531,4.531,0,0,1-1.8.364h-2.437v3.776h2.437a8.464,8.464,0,0,0,1.362-.117v.007c.037-.006.072-.018.109-.024.218-.038.434-.088.647-.144.092-.024.186-.044.279-.071a8.05,8.05,0,0,0,.866-.312,8.373,8.373,0,0,0,2.372-1.548c.1-.094.225-.167.323-.266a8.343,8.343,0,0,0,.677-.82,8.611,8.611,0,0,0,1.138-1.856,8.2,8.2,0,0,0,.657-3.277v-.733h2.2v-3.777h-2.2Z" transform="translate(-351.955 -103.143)" fill="#20baa7"/>
  <path id="Path_235" data-name="Path 235" d="M502.712,133.485h-8.06a2.694,2.694,0,0,0,.667,1.884,2.143,2.143,0,0,0,1.541.573,2.105,2.105,0,0,0,1.312-.4,1.855,1.855,0,0,0,.687-1.021h3.769a4.92,4.92,0,0,1-1,2.2,5.316,5.316,0,0,1-1.957,1.52,6.686,6.686,0,0,1-5.675-.166,5.132,5.132,0,0,1-2.071-2.072,6.422,6.422,0,0,1-.75-3.166,6.488,6.488,0,0,1,.74-3.176,5.068,5.068,0,0,1,2.072-2.062,6.842,6.842,0,0,1,6.081-.01,5.008,5.008,0,0,1,2.03,1.989,5.918,5.918,0,0,1,.718,2.947A4.957,4.957,0,0,1,502.712,133.485Zm-4.113-3.218a2.264,2.264,0,0,0-1.572-.572,2.335,2.335,0,0,0-1.625.583,2.442,2.442,0,0,0-.729,1.708h4.54A2.145,2.145,0,0,0,498.6,130.267Z" transform="translate(-359.659 -104.039)" fill="#20baa7"/>
  <path id="Path_236" data-name="Path 236" d="M518.611,133.485h-8.06a2.693,2.693,0,0,0,.667,1.884,2.143,2.143,0,0,0,1.541.573,2.1,2.1,0,0,0,1.312-.4,1.856,1.856,0,0,0,.687-1.021h3.769a4.92,4.92,0,0,1-1,2.2,5.314,5.314,0,0,1-1.958,1.52,6.193,6.193,0,0,1-2.644.552,6.258,6.258,0,0,1-3.031-.718,5.134,5.134,0,0,1-2.071-2.072,6.422,6.422,0,0,1-.75-3.166,6.492,6.492,0,0,1,.739-3.176,5.07,5.07,0,0,1,2.072-2.062,6.842,6.842,0,0,1,6.081-.01,5.005,5.005,0,0,1,2.03,1.989,5.919,5.919,0,0,1,.719,2.947A4.952,4.952,0,0,1,518.611,133.485Zm-4.113-3.218a2.265,2.265,0,0,0-1.572-.572,2.335,2.335,0,0,0-1.625.583,2.441,2.441,0,0,0-.729,1.708h4.54A2.144,2.144,0,0,0,514.5,130.267Z" transform="translate(-362.667 -104.039)" fill="#20baa7"/>
</svg>
