<svg xmlns="http://www.w3.org/2000/svg" width="58.014" height="61.247" viewBox="0 0 58.014 61.247">
  <path id="Icon" d="M65.4,1437.245a13.83,13.83,0,0,0,14.01-13.566v-14.7H91.66a2.359,2.359,0,0,0,0-4.718H79.409v-14.635A13.865,13.865,0,0,0,65.371,1376H49.977A13.826,13.826,0,0,0,36,1389.6v34.052a13.821,13.821,0,0,0,14.043,13.6H65.4Zm-5.551-28.261,5.047,4.9a2.323,2.323,0,0,1,.063,3.278l-.063.063a2.534,2.534,0,0,1-3.44,0l-9.211-8.914a2.283,2.283,0,0,1-.118-3.22c.038-.041.077-.08.118-.118l9.211-8.914a2.489,2.489,0,0,1,3.44,0,2.319,2.319,0,0,1,.064,3.273c-.021.022-.042.043-.064.064l-5.047,4.87H79.4v4.715Z" transform="translate(-36 -1376)" fill="#035aa7"/>
</svg>
