<svg xmlns="http://www.w3.org/2000/svg" width="1331.957" height="820.976" viewBox="0 0 1331.957 820.976">
  <g id="Group_3125" data-name="Group 3125" transform="translate(-294 -259.024)">
    <g id="Group_3115" data-name="Group 3115" transform="translate(5.43 49.485)">
      <g id="Group_3081" data-name="Group 3081" transform="translate(809.381 466.617) rotate(180)">
        <path id="Path_4283" data-name="Path 4283" d="M903.47,436.953,928.8,401.048a10.7,10.7,0,0,0-2.575-14.91l-20.063-14.153a95.224,95.224,0,0,0,2.189-9.786l24.131-4.209a10.7,10.7,0,0,0,8.7-12.377l-7.337-42.063a10.7,10.7,0,0,0-12.378-8.7l-24.191,4.219a94.937,94.937,0,0,0-5.1-8.057l14.154-20.064a10.7,10.7,0,0,0-2.575-14.91l-34.89-24.613A10.7,10.7,0,0,0,853.956,234l-14.12,20.018a95.075,95.075,0,0,0-11.52-2.482l-4.665-24.112a10.7,10.7,0,0,0-12.536-8.472l-41.92,8.109a10.7,10.7,0,0,0-8.472,12.536l4.652,24.047q-3.488,2.048-6.816,4.409l-20.017-14.121a10.7,10.7,0,0,0-14.909,2.575L699.019,291.4a10.7,10.7,0,0,0,2.575,14.91l20.064,14.154a95.117,95.117,0,0,0-2.567,12.2L693.842,337.7a10.7,10.7,0,0,0-8.439,12.382l7.649,42.617a10.7,10.7,0,0,0,12.622,8.6l26.427-5.268q1.674,2.752,3.542,5.4L719.726,424A10.7,10.7,0,0,0,722.3,438.9l34.89,24.613a10.7,10.7,0,0,0,14.909-2.575l15.884-22.515q4.5,1.266,9.072,2.078L801.7,466.98a10.7,10.7,0,0,0,12.588,8.653l42.53-8.3a10.7,10.7,0,0,0,8.488-12.348L860.871,429.7q3.742-2.1,7.309-4.55l20.381,14.379A10.7,10.7,0,0,0,903.47,436.953Z" transform="translate(-685.233 -218.755)" fill="#fdb958"/>
        <path id="Path_4328" data-name="Path 4328" d="M74.273,0A74.273,74.273,0,1,1,0,74.273,74.273,74.273,0,0,1,74.273,0Z" transform="translate(41.313 69.103) rotate(-10.421)" fill="#f6f6f6"/>
      </g>
      <rect id="Rectangle_1631" data-name="Rectangle 1631" width="1331.957" height="130.051" rx="65.025" transform="translate(288.57 900.464)" fill="#c4ddff"/>
      <path id="Path_4284" data-name="Path 4284" d="M582.94,801.458H402.887a41.473,41.473,0,0,1,41.479-41.479,41.026,41.026,0,0,1,6.879.568A56.692,56.692,0,0,1,556.588,770.8,31.019,31.019,0,0,1,582.94,801.458Z" transform="translate(1.969 -179.03)" fill="#c4ddff"/>
      <path id="Path_4285" data-name="Path 4285" d="M1597.378,636.414h323.205a51.1,51.1,0,0,0-46.187-29.239c-.661,0-1.3.018-1.947.053a59.934,59.934,0,0,0-49.16-25.571,57.743,57.743,0,0,0-8,.539,85.2,85.2,0,0,0-157.091-.522c-.348-.017-.7-.017-1.044-.017A60.011,60.011,0,0,0,1597.378,636.414Z" transform="translate(-395.414 -112.678)" fill="#c4ddff"/>
      <g id="Group_3089" data-name="Group 3089" transform="translate(677.025 282.347)">
        <path id="Path_4287" data-name="Path 4287" d="M950.149,967.029l435.937-23.2a21.113,21.113,0,0,0,19.961-22.205l-30.541-573.768a21.113,21.113,0,0,0-22.205-19.961l-435.937,23.2a49.3,49.3,0,0,0-46.612,51.853L898.3,920.417A49.3,49.3,0,0,0,950.149,967.029Z" transform="translate(-870.682 -327.861)" fill="#62cce6"/>
        <rect id="Rectangle_1632" data-name="Rectangle 1632" width="431.148" height="524.558" transform="matrix(-0.999, 0.053, -0.053, -0.999, 489.261, 560.973)" fill="#fff"/>
        <rect id="Rectangle_1633" data-name="Rectangle 1633" width="431.148" height="524.558" transform="matrix(-0.999, 0.053, -0.053, -0.999, 503.313, 560.225)" fill="#c4ddff"/>
        <rect id="Rectangle_1634" data-name="Rectangle 1634" width="431.148" height="524.558" transform="matrix(-0.999, 0.053, -0.053, -0.999, 519.841, 560.401)" fill="#fff"/>
        <path id="Path_4288" data-name="Path 4288" d="M1098.608,995.086l418.71-60.093a20.458,20.458,0,0,0,17.344-23.157l-79.093-551.095a20.457,20.457,0,0,0-23.156-17.344L1013.7,403.491a47.771,47.771,0,0,0-40.5,54.074l71.332,497.021A47.772,47.772,0,0,0,1098.608,995.086Z" transform="translate(-904.625 -332.96)" fill="#035aa7"/>
        <circle id="Ellipse_121" data-name="Ellipse 121" cx="15.714" cy="15.714" r="15.714" transform="translate(552.685 467.591) rotate(-64.82)" fill="#fff"/>
        <circle id="Ellipse_122" data-name="Ellipse 122" cx="15.714" cy="15.714" r="15.714" transform="matrix(0.723, -0.69, 0.69, 0.723, 561.551, 521.427)" fill="#fff"/>
        <circle id="Ellipse_123" data-name="Ellipse 123" cx="15.714" cy="15.714" r="15.714" transform="matrix(0.82, -0.572, 0.572, 0.82, 508.122, 149.335)" fill="#fff"/>
        <circle id="Ellipse_124" data-name="Ellipse 124" cx="15.714" cy="15.714" r="15.714" transform="matrix(0.999, -0.041, 0.041, 0.999, 504.769, 76.294)" fill="#fff"/>
        <path id="Path_4289" data-name="Path 4289" d="M1369.507,612.314,1154.689,645.97a56.936,56.936,0,0,1-65.062-47.437h0a56.935,56.935,0,0,1,47.436-65.062l214.817-33.656a56.936,56.936,0,0,1,65.062,47.436h0A56.935,56.935,0,0,1,1369.507,612.314Z" transform="translate(-943.29 -384.836)" fill="#fff"/>
        <g id="Group_3083" data-name="Group 3083" transform="translate(517.448 78.979)">
          <path id="Path_4295" data-name="Path 4295" d="M1649.759,462.251a3.671,3.671,0,0,1-.517-7.3l60.588-8.7a3.67,3.67,0,0,1,1.043,7.266l-60.588,8.7A3.809,3.809,0,0,1,1649.759,462.251Z" transform="translate(-1646.092 -446.213)"/>
        </g>
        <g id="Group_3084" data-name="Group 3084" transform="translate(526.329 140.865)">
          <path id="Path_4296" data-name="Path 4296" d="M1663.068,554.99a3.671,3.671,0,0,1-.516-7.3l60.589-8.7a3.67,3.67,0,0,1,1.042,7.266l-60.589,8.7A3.7,3.7,0,0,1,1663.068,554.99Z" transform="translate(-1659.402 -538.952)"/>
        </g>
        <circle id="Ellipse_125" data-name="Ellipse 125" cx="15.714" cy="15.714" r="15.714" transform="matrix(0.921, -0.39, 0.39, 0.921, 520.522, 204.511)" fill="#fff"/>
        <g id="Group_3085" data-name="Group 3085" transform="translate(537.452 200.48)">
          <path id="Path_4297" data-name="Path 4297" d="M1679.735,644.323a3.671,3.671,0,0,1-.516-7.3l60.588-8.7a3.67,3.67,0,0,1,1.042,7.266l-60.588,8.7A3.7,3.7,0,0,1,1679.735,644.323Z" transform="translate(-1676.069 -628.286)"/>
        </g>
        <g id="Group_3086" data-name="Group 3086" transform="translate(569.92 447.689)">
          <path id="Path_4298" data-name="Path 4298" d="M1728.39,1014.774a3.671,3.671,0,0,1-.516-7.3l60.589-8.7a3.67,3.67,0,1,1,1.042,7.266l-60.588,8.7A3.714,3.714,0,0,1,1728.39,1014.774Z" transform="translate(-1724.724 -998.736)"/>
        </g>
        <circle id="Ellipse_126" data-name="Ellipse 126" cx="15.714" cy="15.714" r="15.714" transform="translate(543.172 406.058) rotate(-64.82)" fill="#fff"/>
        <g id="Group_3087" data-name="Group 3087" transform="translate(560.408 386.157)">
          <path id="Path_4299" data-name="Path 4299" d="M1714.136,922.565a3.671,3.671,0,0,1-.517-7.3l60.589-8.7a3.67,3.67,0,0,1,1.043,7.266l-60.589,8.7A3.7,3.7,0,0,1,1714.136,922.565Z" transform="translate(-1710.469 -906.528)"/>
        </g>
        <g id="Group_3088" data-name="Group 3088" transform="translate(578.802 509.576)">
          <path id="Path_4300" data-name="Path 4300" d="M1741.7,1107.513a3.671,3.671,0,0,1-.517-7.3l60.588-8.7a3.67,3.67,0,0,1,1.042,7.266l-60.588,8.7A3.717,3.717,0,0,1,1741.7,1107.513Z" transform="translate(-1738.035 -1091.475)"/>
        </g>
      </g>
      <g id="Group_3101" data-name="Group 3101" transform="translate(413.496 445.768)">
        <path id="Path_4301" data-name="Path 4301" d="M609.315,593.678a16.6,16.6,0,0,1,2.956-13.864c6.015-8.08,17.855-9.231,25.854-3.433,4.864,3.527,6.93,9.622,11.014,13.874,2.94,3.06,7.676,3.736,11.508,5.063,9.19,3.185,19.276,8.233,23.621,17.463,3.648,7.748,3.85,21-6.055,24.1-5.379,1.681-11.112-2.023-14.118-6.292-3.194-4.537-2.619-10.834-6.572-14.964a14.9,14.9,0,0,0-6.6-3.758,23.378,23.378,0,0,0-23.9,7.1c-3.917,4.607-6.556,11.168-12.4,12.73-6.29,1.682-12.6-4.091-12.043-10.432.481-5.487,4.795-10.1,7.388-14.714a29.038,29.038,0,0,0,1.661-3.405c1.21-3.017-.842-5.357-1.856-8.016A13.929,13.929,0,0,1,609.315,593.678Z" transform="translate(-517.952 -572.751)"/>
        <path id="Path_4302" data-name="Path 4302" d="M859.651,1326.512h-29.13c-8.95,0-17.689-3.876-25.167-8.51-6-3.716-15-11.193-22.339-6.691-4.4,2.7-7.406,7.742-10.041,12.028a6.661,6.661,0,0,1-5.674,3.172h-1.51a9.36,9.36,0,0,1-9.344-9.9l2.4-41.363,58.8-7.766C840.222,1281.458,852.833,1303.067,859.651,1326.512Z" transform="translate(-569.144 -803.874)"/>
        <path id="Path_4303" data-name="Path 4303" d="M475.776,1326.512h29.13c8.95,0,17.689-3.876,25.167-8.51,6-3.716,15-11.193,22.339-6.691,4.4,2.7,7.406,7.742,10.041,12.028a6.66,6.66,0,0,0,5.674,3.172h1.51a9.36,9.36,0,0,0,9.344-9.9l-2.4-41.363-58.8-7.766C495.2,1281.458,482.593,1303.067,475.776,1326.512Z" transform="translate(-475.776 -803.874)"/>
        <g id="Group_3090" data-name="Group 3090" transform="translate(41.387 225.788)">
          <path id="Path_4304" data-name="Path 4304" d="M537.91,1145.79,577.34,935.841a30.332,30.332,0,0,1,59.622,11.2l-39.429,209.949C594.795,1171.559,534.819,1162.254,537.91,1145.79Z" transform="translate(-537.795 -911.101)" fill="#ea676c"/>
        </g>
        <g id="Group_3091" data-name="Group 3091" transform="translate(135.837 236.826)">
          <path id="Path_4305" data-name="Path 4305" d="M733.672,1164.1,680.379,965.857a30.332,30.332,0,0,1,58.584-15.749l53.292,198.244C796.6,1164.531,737.311,1177.643,733.672,1164.1Z" transform="translate(-679.331 -927.643)" fill="#ea676c"/>
        </g>
        <path id="Path_4306" data-name="Path 4306" d="M704.176,896.522q-70.5,20.546-141.27,0c-2.683-.776-.689-34.594-.419-38.693a184.306,184.306,0,0,1,6.236-36.477c8.593-31.4,25.827-61.989,62.655-61.989,29.883,0,48.215,21.269,57.892,47.513A262.366,262.366,0,0,1,700.5,847.65C701.478,852.731,708.094,895.381,704.176,896.522Z" transform="translate(-504.302 -634.834)" fill="#035aa7"/>
        <path id="Path_4307" data-name="Path 4307" d="M627.077,744.958H676.12l5.013,28.31h-59.07Z" transform="translate(-524.443 -630.041)" fill="#035aa7"/>
        <g id="Group_3092" data-name="Group 3092" transform="translate(189.089 231.527)">
          <path id="Path_4308" data-name="Path 4308" d="M772.525,976.947a2.335,2.335,0,0,1-.236-4.659c8.275-.85,30.256-3.106,35.182-10.053a4.411,4.411,0,0,0,.726-3.82,5.435,5.435,0,0,0-6.551-4.023l-13.353,3.192A2.336,2.336,0,0,1,785.436,955c.037-.28.073-.563.1-.847a2.337,2.337,0,0,1,1.783-2.056l19.759-4.724a5.436,5.436,0,0,0-2.529-10.574l-19.876,4.752a2.336,2.336,0,0,1-2.5-.994l-.091-.139c-.066-.1-.132-.2-.2-.3a2.336,2.336,0,0,1,1.381-3.6l7.254-1.734a5.44,5.44,0,0,0,3.28-2.557,5.614,5.614,0,0,0,.743-4.23c-.592-2.308-2.166-4.315-9.613-3.375-2.367.3-5.211.584-8.221.886-4.5.453-9.607.966-14.925,1.69a2.336,2.336,0,0,1-.629-4.629c5.4-.735,10.546-1.252,15.087-1.709,3.11-.312,5.8-.582,8.1-.873,3.106-.39,12.56-1.582,14.722,6.849a10.126,10.126,0,0,1-.651,6.627l5.048-1.207a10.108,10.108,0,0,1,5.6,19.4,10.034,10.034,0,0,1,3.676,5.67,9.135,9.135,0,0,1-1.459,7.608c-5.421,7.643-22.511,10.353-38.516,12C772.685,976.943,772.6,976.947,772.525,976.947Z" transform="translate(-759.132 -919.702)"/>
        </g>
        <g id="Group_3093" data-name="Group 3093" transform="translate(290.261 81.197)">
          <path id="Path_4309" data-name="Path 4309" d="M950.406,753.486a2.336,2.336,0,0,1-1.516-4.113c6.331-5.4,23.147-19.729,23.261-28.244a4.412,4.412,0,0,0-1.57-3.557,5.436,5.436,0,0,0-7.677.406l-9.182,10.207a2.336,2.336,0,0,1-3.819-.505c-.128-.252-.258-.5-.4-.753a2.335,2.335,0,0,1,.3-2.7l13.587-15.1a5.436,5.436,0,1,0-8.082-7.271L941.642,717.04a2.339,2.339,0,0,1-2.625.6l-.115-.047c-.123-.051-.247-.1-.372-.15a2.335,2.335,0,0,1-.9-3.745c3.891-4.326,4.769-5.3,4.991-5.546h0a5.437,5.437,0,0,0,1.247-3.967,5.612,5.612,0,0,0-1.789-3.9c-1.8-1.564-4.232-2.322-9.83,2.677-1.779,1.589-3.958,3.437-6.264,5.395-3.451,2.928-7.363,6.247-11.332,9.862a2.335,2.335,0,1,1-3.145-3.453c4.029-3.67,7.974-7.018,11.455-9.971,2.382-2.021,4.44-3.767,6.175-5.317,2.334-2.085,9.443-8.43,16.008-2.716a10.119,10.119,0,0,1,3.224,5.827l3.473-3.86a10.107,10.107,0,0,1,15.622,12.8,10.027,10.027,0,0,1,6.245,2.581,9.132,9.132,0,0,1,3.117,7.093c-.125,9.37-12.658,21.3-24.9,31.736A2.326,2.326,0,0,1,950.406,753.486Z" transform="translate(-910.741 -694.428)"/>
        </g>
        <g id="Group_3094" data-name="Group 3094" transform="translate(121.682 116.937)">
          <path id="Path_4310" data-name="Path 4310" d="M736.67,826.511a154.181,154.181,0,0,1-78.55-21.47l23.971-40.64a107.191,107.191,0,0,0,119.937-7.124l5.844-4.457a23.591,23.591,0,1,1,28.614,37.516l-5.844,4.457a154.258,154.258,0,0,1-84.7,31.442Q741.3,826.511,736.67,826.511Z" transform="translate(-658.12 -747.985)" fill="#035aa7"/>
        </g>
        <g id="Group_3095" data-name="Group 3095" transform="translate(26.786 141.605)">
          <path id="Path_4311" data-name="Path 4311" d="M595.416,948.937c-23.394,0-43.186-7.154-57.439-20.811-18.162-17.4-25.913-44.1-20.228-69.677,5.531-24.884,21.969-47.366,50.254-68.73a23.592,23.592,0,1,1,28.439,37.65c-18.7,14.124-29.679,28.026-32.633,41.317-2.1,9.437.576,19.4,6.811,25.371,13.044,12.5,43.407,7.973,66.095-1.521a23.591,23.591,0,0,1,18.213,43.526c-10.564,4.42-31.8,11.961-55.322,12.8Q597.492,948.936,595.416,948.937Z" transform="translate(-515.915 -784.951)" fill="#035aa7"/>
        </g>
        <g id="Group_3098" data-name="Group 3098" transform="translate(71.64 195.933)">
          <g id="Group_3096" data-name="Group 3096" transform="translate(16.874 98.193)">
            <path id="Path_4312" data-name="Path 4312" d="M626.19,1027.309a107.365,107.365,0,0,1-15.781-1.136,2.336,2.336,0,0,1,.689-4.62,102.606,102.606,0,0,0,15.092,1.085c1.345,0,2.725-.025,4.1-.075,17.746-.631,34.181-5.2,44.843-8.923a2.336,2.336,0,0,1,1.539,4.411c-10.967,3.828-27.887,8.528-46.216,9.181C629.027,1027.283,627.59,1027.309,626.19,1027.309Z" transform="translate(-608.417 -1013.509)"/>
          </g>
          <g id="Group_3097" data-name="Group 3097">
            <path id="Path_4313" data-name="Path 4313" d="M667.5,969.229a2.336,2.336,0,0,1-.769-4.542c3.313-1.156,6.563-2.4,9.661-3.7a21.256,21.256,0,1,0-16.41-39.216c-23.37,9.78-54.809,14.279-68.613,1.053-6.812-6.526-9.746-17.346-7.475-27.564,2.043-9.189,7.734-18.672,16.915-28.186a2.336,2.336,0,0,1,3.361,3.244c-8.576,8.886-13.863,17.619-15.716,25.956-1.924,8.659.489,17.757,6.146,23.177,11.74,11.248,40.871,7.514,63.578-1.989A25.927,25.927,0,1,1,678.19,965.3c-3.184,1.333-6.523,2.611-9.924,3.8A2.355,2.355,0,0,1,667.5,969.229Z" transform="translate(-583.131 -866.364)"/>
          </g>
        </g>
        <g id="Group_3100" data-name="Group 3100" transform="translate(86.498 33.942)">
          <g id="Group_3099" data-name="Group 3099">
            <path id="Path_4314" data-name="Path 4314" d="M677.871,642.3a16.232,16.232,0,0,0-1.947-1.074,37.626,37.626,0,0,1-9.9-6.865,26.417,26.417,0,0,0-18.211-7.246c-6.522,0-12.107,2.865-17.113,6.261-4.3,2.918-7.916,5.666-12.472,7.4a16.214,16.214,0,0,0-3.111,1.592,13.636,13.636,0,0,0-4.418,18.305,13.293,13.293,0,0,0,14.294,6.444,26.514,26.514,0,0,0,45.483.27,13.25,13.25,0,0,0,12.011-6.87A13.646,13.646,0,0,0,677.871,642.3Z" transform="translate(-606.547 -624.778)" fill="#fff"/>
            <path id="Path_4315" data-name="Path 4315" d="M646.661,681.309a29,29,0,0,1-23.98-12.818,15.513,15.513,0,0,1-15.156-7.813,16.06,16.06,0,0,1,5.16-21.426,18.63,18.63,0,0,1,3.558-1.82c3.593-1.37,6.578-3.428,10.035-5.812q.96-.662,1.959-1.342c4.573-3.1,10.8-6.665,18.423-6.665a28.726,28.726,0,0,1,19.817,7.885,35.274,35.274,0,0,0,9.281,6.445,18.834,18.834,0,0,1,2.226,1.228h0a15.89,15.89,0,0,1,5.389,21.325,15.467,15.467,0,0,1-12.757,8.043A28.643,28.643,0,0,1,646.661,681.309ZM625,663.338l.846,1.427a24.3,24.3,0,0,0,20.81,11.873,24.025,24.025,0,0,0,20.668-11.627l.7-1.155,1.353.035a10.848,10.848,0,0,0,9.913-5.676,11.266,11.266,0,0,0-3.842-15.115h0a13.924,13.924,0,0,0-1.668-.921,39.941,39.941,0,0,1-10.52-7.286,24.071,24.071,0,0,0-16.607-6.608c-6.351,0-11.78,3.131-15.8,5.858q-.985.669-1.929,1.323a51.791,51.791,0,0,1-11.022,6.33,13.944,13.944,0,0,0-2.663,1.364,11.25,11.25,0,0,0-3.673,15.185,10.935,10.935,0,0,0,11.807,5.321Z" transform="translate(-605.396 -623.614)"/>
          </g>
        </g>
        <path id="Path_4316" data-name="Path 4316" d="M674.3,679.1l-.366.151a12.41,12.41,0,0,1-12.821-2.176,11.546,11.546,0,0,0-15.312.194,12.106,12.106,0,0,1-12.794,2.081l-.18-.075a4.815,4.815,0,0,0-6.332,6.216,28.968,28.968,0,0,0,27.026,18.538h0a28.966,28.966,0,0,0,27.155-18.882A4.8,4.8,0,0,0,674.3,679.1Z" transform="translate(-525.804 -606.522)"/>
        <path id="Path_4317" data-name="Path 4317" d="M674.846,776.3H661.654a6.952,6.952,0,0,1-6.952-6.952h0a6.952,6.952,0,0,1,6.952-6.952h13.192a6.953,6.953,0,0,1,6.953,6.952h0A6.952,6.952,0,0,1,674.846,776.3Z" transform="translate(-535.301 -635.843)"/>
        <path id="Path_4318" data-name="Path 4318" d="M660.631,774.914c4.08.9,6.8,57.312-7,97.963l15.348-16.918,18.8,8.933c1.688-13.559-11.158-98.635-19.467-91.672Z" transform="translate(-534.945 -639.309)"/>
      </g>
      <g id="Group_3102" data-name="Group 3102" transform="translate(929.497 827.258)">
        <rect id="Rectangle_1635" data-name="Rectangle 1635" width="186.145" height="61.873" transform="translate(135.286 54.168) rotate(-0.53)" fill="#fff"/>
        <rect id="Rectangle_1636" data-name="Rectangle 1636" width="118.044" height="42.636" transform="matrix(1, -0.009, 0.009, 1, 152.172, 4.185)" fill="#fff"/>
        <path id="Path_4319" data-name="Path 4319" d="M1575.748,1280.032l-139.609,1.293a33.245,33.245,0,0,1-.507-56.29l139.6-1.292a3.735,3.735,0,0,0-.069-7.469l-290.854,2.692a35.615,35.615,0,0,0,.659,71.228l290.854-2.692a3.735,3.735,0,0,0-.069-7.469Z" transform="translate(-1249.019 -1168.328)" fill="#ea676c"/>
        <path id="Path_4320" data-name="Path 4320" d="M1530.994,1187.062l-103.133.424a23.121,23.121,0,0,1-.277-35.505l103.264-.424h.013a3.566,3.566,0,0,0-.042-7.132l-231.14.95c-.043,0-.086,0-.129,0a24.884,24.884,0,0,0,.334,49.767l231.139-.95h.013a3.566,3.566,0,0,0-.042-7.132Z" transform="translate(-1257.628 -1144.425)" fill="#ea676c"/>
      </g>
      <g id="Group_3109" data-name="Group 3109" transform="translate(1349.55 596.119)">
        <path id="Rectangle_1637" data-name="Rectangle 1637" d="M0,0H132.406a0,0,0,0,1,0,0V107.313A59.786,59.786,0,0,1,72.62,167.1H59.786A59.786,59.786,0,0,1,0,107.313V0A0,0,0,0,1,0,0Z" transform="translate(54.068 203.824)" fill="#c4ddff"/>
        <g id="Group_3103" data-name="Group 3103" transform="translate(21.685 180.277)">
          <path id="Path_4321" data-name="Path 4321" d="M2005.821,1239.976h-52.614a42.279,42.279,0,0,1-42.232-42.232v-127.2a2.336,2.336,0,0,1,2.335-2.336h132.406a2.336,2.336,0,0,1,2.336,2.336v127.2A42.279,42.279,0,0,1,2005.821,1239.976Zm-90.174-167.1v124.867a37.6,37.6,0,0,0,37.561,37.561h52.614a37.6,37.6,0,0,0,37.56-37.561V1072.877Z" transform="translate(-1910.975 -1068.206)"/>
        </g>
        <g id="Group_3108" data-name="Group 3108">
          <g id="Group_3104" data-name="Group 3104">
            <path id="Path_4322" data-name="Path 4322" d="M1986.5,832.9H1895.9a17.422,17.422,0,1,1,0-34.844H1986.5a17.422,17.422,0,1,1,0,34.844Z" transform="translate(-1878.48 -798.056)" fill="#035aa7"/>
          </g>
          <g id="Group_3105" data-name="Group 3105" transform="translate(27.604 64.88)">
            <path id="Path_4323" data-name="Path 4323" d="M2027.861,930.125h-90.594a17.422,17.422,0,1,1,0-34.844h90.594a17.422,17.422,0,0,1,0,34.844Z" transform="translate(-1919.845 -895.281)" fill="#035aa7"/>
          </g>
          <g id="Group_3106" data-name="Group 3106" transform="translate(54.589)">
            <path id="Path_4324" data-name="Path 4324" d="M1977.7,887.408a17.421,17.421,0,0,1-17.422-17.422V815.478a17.422,17.422,0,0,1,34.844,0v54.508A17.422,17.422,0,0,1,1977.7,887.408Z" transform="translate(-1960.283 -798.056)" fill="#035aa7"/>
          </g>
          <g id="Group_3107" data-name="Group 3107" transform="translate(90.594 64.46)">
            <path id="Path_4325" data-name="Path 4325" d="M2031.66,976.689a17.422,17.422,0,0,1-17.422-17.422V912.073a17.422,17.422,0,1,1,34.844,0v47.194A17.422,17.422,0,0,1,2031.66,976.689Z" transform="translate(-2014.238 -894.651)" fill="#035aa7"/>
          </g>
        </g>
      </g>
      <g id="Group_3114" data-name="Group 3114" transform="translate(734.463 743.094)">
        <g id="Group_3111" data-name="Group 3111" transform="translate(0)">
          <g id="Group_3110" data-name="Group 3110">
            <path id="Path_4326" data-name="Path 4326" d="M1074.558,1155.9H997.447a4.022,4.022,0,0,1-2.217-.663,264.526,264.526,0,0,1-24.24-17.5c-4.383-3.649-14.541-13.22-14.229-23.267.149-4.79,2.5-8.882,6.973-12.161a21.794,21.794,0,0,1,14.2-3.981,27.037,27.037,0,0,1,5.543.99c-3.136-10.88-4.706-28.284,3.183-36.641,3.286-3.479,9.47-6.717,20.283-2.384,12.626,5.06,22.035,17.086,27.965,35.746q.854,2.683,1.6,5.535c1.732-8.658,3.8-17.256,6.169-25.68,4.186-14.856,8.237-25.86,13.136-35.682,4.1-8.232,10.764-18.6,19.206-21.249,5.06-1.586,8.384.018,10.279,1.643,5.563,4.774,6.7,16.564,3.575,37.107-1.785,11.779-4.521,23.257-5.835,28.774-.249,1.048-.447,1.881-.577,2.458-1.166,5.183-2.419,10.249-3.743,15.117a56.332,56.332,0,0,1,8.881-2.28,33.187,33.187,0,0,1,10.165-.246,21.764,21.764,0,0,1,5.05,1.32c5,2.005,6.742,5.369,7.327,7.837,1.388,5.858-1.885,13.172-10.008,22.359a184.433,184.433,0,0,1-23.063,21.974A4.057,4.057,0,0,1,1074.558,1155.9Zm-76.92-4.671h76.7a179.836,179.836,0,0,0,22.3-21.275c8.649-9.782,9.647-15.29,8.961-18.187-.488-2.055-1.967-3.553-4.522-4.578a17.139,17.139,0,0,0-3.973-1.031,28.492,28.492,0,0,0-8.719.226,53.3,53.3,0,0,0-12.242,3.684,2.335,2.335,0,0,1-3.173-2.789c1.766-6.13,3.427-12.644,4.936-19.364.134-.591.335-1.442.591-2.512,1.3-5.456,4.005-16.807,5.761-28.394,3.463-22.771.824-30.438-2-32.859-1.472-1.261-3.381-1.5-5.839-.731-5.286,1.658-11.272,8.538-16.423,18.876-4.763,9.55-8.717,20.3-12.819,34.864A340.4,340.4,0,0,0,1038.99,1114a2.335,2.335,0,0,1-2.3,1.957h0a2.336,2.336,0,0,1-2.3-1.95,120.22,120.22,0,0,0-3.926-16.559c-5.487-17.267-13.982-28.311-25.251-32.826-6.626-2.657-11.865-2.222-15.148,1.254-7.288,7.721-4.315,27.542-.6,36.47a2.335,2.335,0,0,1-3.143,3.014,24.538,24.538,0,0,0-8.71-2.38,17.04,17.04,0,0,0-11.11,3.092c-3.3,2.418-4.958,5.211-5.062,8.537-.255,8.215,9.54,17.026,12.548,19.531A259.072,259.072,0,0,0,997.638,1151.225Z" transform="translate(-956.754 -1018.304)"/>
          </g>
        </g>
        <g id="Group_3113" data-name="Group 3113" transform="translate(36.66 132.921)">
          <g id="Group_3112" data-name="Group 3112">
            <path id="Path_4327" data-name="Path 4327" d="M1079.215,1303.093h-49.872a4.028,4.028,0,0,1-3.972-3.335l-13.619-77.538a4.034,4.034,0,0,1,3.971-4.731H1053.2a4,4,0,0,0,.876,0h38.763a4.034,4.034,0,0,1,3.973,4.727l-13.621,77.541A4.027,4.027,0,0,1,1079.215,1303.093Zm-49.336-4.671h48.8l13.4-76.261h-37.925a2.328,2.328,0,0,1-1.028,0h-36.635Z" transform="translate(-1011.691 -1217.49)"/>
          </g>
        </g>
      </g>
    </g>
    <text id="مدونة_بسيط" data-name="مدونة بسيط" transform="translate(1138.721 512.864) rotate(-9)" fill="#183c6c" font-size="80" font-family="Somar-Bold, Somar" font-weight="700"><tspan x="-289.6" y="0">مدونة بسيط</tspan></text>
  </g>
</svg>
