<svg xmlns="http://www.w3.org/2000/svg" width="430.932" height="130.539" viewBox="0 0 430.932 130.539">
  <g id="Group_5482" data-name="Group 5482" transform="translate(1.469 -2666.48)">
    <g id="Group_442" data-name="Group 442" transform="translate(18.693 2656.481)">
      <g id="Group_245" data-name="Group 245" transform="translate(-2.942 9.999)">
        <path id="Path_317" data-name="Path 317" d="M1900.291,703.367c-3.038,3.551-13.087-2.82-19.582-3.017a219.812,219.812,0,0,1-42.642-5.7c.246-16.543,3.815-30.013,11.064-44.861,3.958-8.112,12.455-17.864,21.458-17.209v4.864a21,21,0,0,1,3.979.372,18.99,18.99,0,0,1,9.27,4.634,38.171,38.171,0,0,0,6.827,12.7c.126.671.225,1.352.3,2.039l2.094,16.313Z" transform="translate(-1838.068 -592.082)" fill="#035aa7"/>
        <path id="Path_318" data-name="Path 318" d="M1933.616,597.085h17.674l3.006,12.934H1930.61Z" transform="translate(-1910.092 -560.758)" fill="#035aa7"/>
        <g id="Group_242" data-name="Group 242" transform="translate(20.759 9.199)">
          <ellipse id="Ellipse_20" data-name="Ellipse 20" cx="10.631" cy="10.631" rx="10.631" ry="10.631" transform="translate(21.057 24.006) rotate(-172.027)" fill="#fff"/>
          <g id="Group_241" data-name="Group 241" transform="translate(0.717 0.716)">
            <path id="Path_319" data-name="Path 319" d="M1942.939,425.973a11.287,11.287,0,1,0-11.286-11.287A11.3,11.3,0,0,0,1942.939,425.973Zm0-21.263a9.976,9.976,0,1,1-9.976,9.976A9.987,9.987,0,0,1,1942.939,404.71Z" transform="translate(-1931.653 -403.4)" fill="#090928"/>
          </g>
        </g>
        <path id="Path_320" data-name="Path 320" d="M1927.851,355.081a21.543,21.543,0,0,1-9.9-1.91c-1.921-.884-3.3-2.416-5.244-1.577a5.307,5.307,0,0,0-3.053,4.766c0,.5-.693,1.577-.68,2.229.012.579.84.66.68,1.125-1.447,4.184-6.224,2.541-8.51.123-2.808-2.971-3.742-8.89.665-10.964a4.585,4.585,0,0,1,1.754-.394c1.264-.054,2.621.574,3.741-.017,1.821-.963,1.008-3.474,1.227-5.1,1.029-7.638,10.311-7.452,15.472-4.865a15.479,15.479,0,0,1,7.038,7.118c1.192,2.457,1.5,7.38-1.357,8.977A4.479,4.479,0,0,1,1927.851,355.081Z" transform="translate(-1882.953 -336.883)" fill="#090928"/>
        <g id="Group_244" data-name="Group 244" transform="translate(23.399 11.268)">
          <path id="Path_321" data-name="Path 321" d="M2001.7,430.755c-2.18-1.022-4.962-2.344-7.412-1.516a6,6,0,0,0-3.764,6.188,2.828,2.828,0,0,0,1.9,2.355Z" transform="translate(-1989.815 -428.32)" fill="#fff"/>
          <g id="Group_243" data-name="Group 243">
            <path id="Path_322" data-name="Path 322" d="M1988.682,434.679a.655.655,0,0,0,.235-1.267,2.183,2.183,0,0,1-1.489-1.84,5.327,5.327,0,0,1,3.325-5.471c2.177-.736,4.774.481,6.86,1.459l.064.03a.655.655,0,0,0,.556-1.187l-.063-.03c-2.3-1.077-5.161-2.418-7.837-1.514a6.633,6.633,0,0,0-4.2,6.9,3.484,3.484,0,0,0,2.316,2.871A.655.655,0,0,0,1988.682,434.679Z" transform="translate(-1986.074 -424.561)" fill="#090928"/>
          </g>
        </g>
        <path id="Path_323" data-name="Path 323" d="M1793.236,669.834l.736,6.06a17.428,17.428,0,0,1-6.557-2.393c-13.464-8.3-13.1-33.357-13.1-33.357h-1.892a3.8,3.8,0,0,1-3.457-2.225c-.016-.034-.029-.065-.042-.1a3.759,3.759,0,0,1-.3-1.473,3.788,3.788,0,0,1,7.412-1.109l2.015,6.728c.047.162.094.325.147.487a38.169,38.169,0,0,0,6.827,12.7,54.823,54.823,0,0,0,15.752,13.254Z" transform="translate(-1732.426 -591.355)" fill="#ea676c"/>
      </g>
      <g id="Group_246" data-name="Group 246" transform="translate(8.115 62.209)">
        <path id="Path_324" data-name="Path 324" d="M1748.645,763.609a40.818,40.818,0,0,0,11.031-1.6,66.089,66.089,0,0,0,20.345-10.225,9.46,9.46,0,1,0-11.217-15.236,46.616,46.616,0,0,1-14.246,7.246c-4.775,1.341-8.6,1.208-11.364-.4a10.971,10.971,0,0,1-5.055-9.241,21,21,0,0,1,2.317-9.321,9.46,9.46,0,1,0-17.084-8.13,39.61,39.61,0,0,0-4.149,17.823,29.832,29.832,0,0,0,14.478,25.236A29.434,29.434,0,0,0,1748.645,763.609Z" transform="translate(-1719.214 -711.303)" fill="#035aa7"/>
      </g>
      <g id="Group_248" data-name="Group 248" transform="translate(13.021 84.402)">
        <g id="Group_247" data-name="Group 247">
          <path id="Path_325" data-name="Path 325" d="M1739.371,890.956h0a41.574,41.574,0,0,0,11.208-1.629A66.767,66.767,0,0,0,1771.136,879a10.115,10.115,0,0,0-11.994-16.291,46.946,46.946,0,0,1-13.24,6.882c-4.914,1.525-8.944,1.5-11.653-.072a10.307,10.307,0,0,1-4.729-8.687.655.655,0,0,0-.655-.642h-.013a.655.655,0,0,0-.642.668,11.637,11.637,0,0,0,5.382,9.8c3.035,1.761,7.427,1.827,12.7.19a47.611,47.611,0,0,0,13.628-7.079,8.8,8.8,0,0,1,10.44,14.181,65.425,65.425,0,0,1-20.134,10.121,40.26,40.26,0,0,1-10.853,1.58,28.723,28.723,0,0,1-14.618-3.762,27.565,27.565,0,0,1-8.717-8.021.655.655,0,0,0-1.071.756,28.869,28.869,0,0,0,9.129,8.4A30.016,30.016,0,0,0,1739.371,890.956Z" transform="translate(-1714.847 -860.188)" fill="#090928"/>
        </g>
      </g>
      <g id="Group_249" data-name="Group 249" transform="translate(70.013 76.204)">
        <path id="Path_326" data-name="Path 326" d="M1588.882,828.56a.652.652,0,0,0,.2-.031c6.086-1.942,12.5-4.378,13.957-7.72a3.346,3.346,0,0,0-.05-2.874,3.764,3.764,0,0,0-2.35-2.007l.243-.115a3.772,3.772,0,1,0-3.222-6.821l-2.451,1.157c.013-.034.026-.069.038-.1a3.847,3.847,0,0,0-.131-2.949c-1.432-2.909-4.868-1.725-6-1.335-.886.305-1.919.633-3.116,1.012-1.742.552-3.717,1.177-5.771,1.908a.655.655,0,1,0,.439,1.235c2.032-.723,3.995-1.345,5.727-1.893,1.155-.366,2.246-.712,3.148-1.022,2.434-.839,3.748-.637,4.394.676a2.532,2.532,0,0,1,.07,1.938,2.462,2.462,0,0,1-1.221,1.435l-2.706,1.278a.655.655,0,0,0-.172,1.067c.037.035.073.072.11.108l.047.047a.655.655,0,0,0,.742.129l7.41-3.5a2.461,2.461,0,1,1,2.1,4.451l-7.366,3.479a.655.655,0,0,0-.371.667c.013.118.023.235.031.352a.655.655,0,0,0,.933.545l4.978-2.351a2.464,2.464,0,0,1,3.276,1.174,2.059,2.059,0,0,1,.033,1.791c-1.413,3.248-9.943,5.97-13.153,6.995a.655.655,0,0,0,.2,1.28Z" transform="translate(-1579.795 -805.192)" fill="#090928"/>
      </g>
    </g>
    <path id="Path_6022" data-name="Path 6022" d="M5072-9392s-103.394,31.625-234.045,25.543S4644-9392,4644-9392" transform="translate(-4644 12157.68)" fill="none" stroke="#2295d6" stroke-width="10"/>
  </g>
</svg>
