<svg xmlns="http://www.w3.org/2000/svg" width="34.487" height="34.502" viewBox="0 0 34.487 34.502">
  <path id="Path_4935" data-name="Path 4935" d="M972.912,176.97a1.062,1.062,0,0,1-1.062-1.062c0-.28-1.771-1.61-2.193-2.032l-1.152-1.154h.034a4.222,4.222,0,0,1-.937-2.655v-4.778a1.063,1.063,0,0,0-1.062-1.062h-2.124a1.063,1.063,0,0,0-1.062,1.062v.365a.793.793,0,0,1-1.347.571l-3.522-3.522a2.122,2.122,0,0,0-3,0l-12.765,12.763a2.123,2.123,0,0,0-.621,1.5h.021a2.123,2.123,0,0,0,2.124,2.124c1.012,0,2.124,1.427,2.124,3.186v7.433a2.123,2.123,0,0,0,2.124,2.124h3.185a1.062,1.062,0,0,0,1.062-1.062v-6.9a2.656,2.656,0,0,1,2.655-2.655h3.186a2.656,2.656,0,0,1,2.655,2.655v6.9a1.062,1.062,0,0,0,1.062,1.062h3.185a2.123,2.123,0,0,0,2.124-2.124v-7.433a1.062,1.062,0,0,1,2.124,0v7.433a4.246,4.246,0,0,1-4.247,4.247h-3.185a3.185,3.185,0,0,1-3.186-3.186V184.4a1.063,1.063,0,0,0-1.062-1.062h-2.124a1.063,1.063,0,0,0-1.062,1.062v6.371a3.185,3.185,0,0,1-3.186,3.186h-3.185a4.247,4.247,0,0,1-4.247-4.247v-7.433a1.35,1.35,0,0,0-1.062-1.195c-.009,0-.012-.009-.021-.012a4.246,4.246,0,0,1-3.164-4.1v.23a4.223,4.223,0,0,1,1.221-3.233L953.981,161.2a4.248,4.248,0,0,1,6.006,0l1.867,1.867a2.64,2.64,0,0,1,2.032-.964h3.185a2.656,2.656,0,0,1,2.655,2.655v5.309a2.116,2.116,0,0,0,.6,1.472l2.428,2.426c.834.834,1.221,1.248,1.221,1.942a1.063,1.063,0,0,1-1.062,1.062Zm-2.124,2.124a1.062,1.062,0,1,1-1.062,1.062,1.063,1.063,0,0,1,1.062-1.062Z" transform="translate(-939.737 -159.708)" fill="#035aa7" stroke="#069" stroke-width="0.5" fill-rule="evenodd"/>
</svg>
