<svg xmlns="http://www.w3.org/2000/svg" width="832.471" height="1034" viewBox="0 0 832.471 1034">
  <path id="Path_5860" data-name="Path 5860" d="M931.879,173.843c50.5-45.22,149.832-60.913,214.289-45.126,89.861,22.009,143.089,116.652,185.356,203.387,53.268,109.307,77.246,235.484,61.524,357.333s-72.224,238.525-160.816,318.151c-60.548,54.418-134.051,90.636-209.624,116.566-68.992,23.671-213.9,32.594-213.9,32.594s-144.38-37.917-192.032-95.763S550.041,916.793,579.12,846.5c37.739-91.219,137.948-131.036,204.063-201.905C828.065,596.48,856.43,532.1,864.5,465.21c7.471-61.907-1.2-120.532,19.948-180.92C897.16,247.993,903.909,198.889,931.879,173.843Z" transform="translate(-565.331 -122.748)" fill="#f6f6f6"/>
</svg>
