<svg xmlns="http://www.w3.org/2000/svg" width="42.296" height="42.284" viewBox="0 0 42.296 42.284">
  <path id="Path_3965" data-name="Path 3965" d="M1841.547,484.866l15.88,15.879a5.246,5.246,0,0,0,4.024,1.519h-.289a5.283,5.283,0,0,0,5.284-5.283v-1.321a1.321,1.321,0,1,0-2.642,0v1.321a2.641,2.641,0,0,1-2.642,2.642l-.011.026a2.634,2.634,0,0,1-1.858-.773L1843.416,483a2.64,2.64,0,0,1,0-3.736l15.877-15.879a2.638,2.638,0,0,1,1.86-.773c0,.015.009.026.009.026a2.641,2.641,0,0,1,2.642,2.642v2.642a5.282,5.282,0,0,0,5.284,5.283h7.925a2.641,2.641,0,0,1,2.642,2.642v10.567a2.641,2.641,0,0,1-2.642,2.642h-1.321a1.321,1.321,0,0,0,0,2.642h1.321a5.283,5.283,0,0,0,5.284-5.283V475.846a5.285,5.285,0,0,0-5.284-5.283h-7.925a2.641,2.641,0,0,1-2.642-2.642v-2.642a5.285,5.285,0,0,0-5.284-5.283h.287a5.252,5.252,0,0,0-4.022,1.519l-15.88,15.879a5.285,5.285,0,0,0,0,7.472Zm26.22,4.189a1.321,1.321,0,1,0,1.321,1.321,1.322,1.322,0,0,0-1.321-1.321Z" transform="translate(-1840 -459.988)" fill="#ea676c" fill-rule="evenodd"/>
</svg>
