<svg xmlns="http://www.w3.org/2000/svg" width="352.081" height="753.722" viewBox="0 0 352.081 753.722">
  <g id="Component_5_16" data-name="Component 5 – 16" transform="translate(0 4.096)">
    <path id="Path_471" data-name="Path 471" d="M5235.255-9135.936l.065-9.085s-3.727-89.659-2.591-136.605" transform="translate(-4959 9281.626)" fill="none" stroke="#3d3d3d" stroke-linecap="round" stroke-width="8"/>
    <path id="Path_470" data-name="Path 470" d="M5230.485-9165.58l-.065-7.5s11.777-55.229,10.006-133.322" transform="translate(-5147.743 9311.271)" fill="none" stroke="#3d3d3d" stroke-linecap="round" stroke-width="8"/>
    <g id="Group_434" data-name="Group 434" transform="translate(-784 -1379.374)">
      <g id="Group_225" data-name="Group 225" transform="translate(784 1525.268)">
        <path id="Path_252" data-name="Path 252" d="M859.486,260.792c-1.569-.079-3.22-.157-4.789-.157H642.9c-1.528,0-3.1.079-4.624.157-36.455,2.36-65.313,31.229-65.4,66.548V540.317h.917V864.367H854.7c38.808,0,70.268-29.97,70.268-66.941V327.5C924.965,292.1,896.065,263.152,859.486,260.792Z" transform="translate(-572.884 -260.635)" fill="#069"/>
      </g>
      <g id="Group_425" data-name="Group 425" transform="translate(850 1540.513)">
        <g id="Group_417" data-name="Group 417" transform="translate(0 0.001)">
          <circle id="Ellipse_27" data-name="Ellipse 27" cx="12.488" cy="12.488" r="12.488" fill="#fff"/>
        </g>
        <g id="Group_418" data-name="Group 418" transform="translate(194.604)">
          <path id="Path_459" data-name="Path 459" d="M452.426,380.047a12.488,12.488,0,1,1-12.486-12.489A12.488,12.488,0,0,1,452.426,380.047Z" transform="translate(-427.451 -367.558)" fill="#fff"/>
        </g>
      </g>
      <g id="Group_427" data-name="Group 427" transform="translate(1056.669 1525.194)">
        <path id="Path_461" data-name="Path 461" d="M989.55,259.278s7.507-5.6-1.938-17" transform="translate(-978.652 -242.278)" fill="none" stroke="#3d3d3d" stroke-linecap="round" stroke-miterlimit="10" stroke-width="6"/>
        <path id="Path_462" data-name="Path 462" d="M985.926,258.816c3.3-2.4,7-8.23,3.043-16.691" transform="translate(-985.926 -241.793)" fill="none" stroke="#3d3d3d" stroke-linecap="round" stroke-miterlimit="10" stroke-width="6"/>
      </g>
      <g id="Group_426" data-name="Group 426" transform="translate(856.705 1525.193)">
        <path id="Path_461-2" data-name="Path 461" d="M990.44,259.279s-7.507-5.6,1.938-17" transform="translate(-987.612 -242.278)" fill="none" stroke="#3d3d3d" stroke-linecap="round" stroke-miterlimit="10" stroke-width="6"/>
        <path id="Path_462-2" data-name="Path 462" d="M990.68,258.817c-3.3-2.4-7-8.231-3.043-16.692" transform="translate(-975.615 -241.792)" fill="none" stroke="#3d3d3d" stroke-linecap="round" stroke-miterlimit="10" stroke-width="6"/>
      </g>
    </g>
  </g>
</svg>
