<svg xmlns="http://www.w3.org/2000/svg" width="1019.319" height="951.379" viewBox="0 0 1019.319 951.379">
  <g id="Group_5484" data-name="Group 5484" transform="translate(-440.442 0.079)">
    <g id="Group_3549" data-name="Group 3549" transform="translate(440.442 944.126)">
      <rect id="Rectangle_1703" data-name="Rectangle 1703" width="1019.319" height="7.174" fill="#183c6c"/>
    </g>
    <g id="Group_3599" data-name="Group 3599" transform="translate(-2473.389 -54.673)">
      <path id="Path_4850" data-name="Path 4850" d="M3854.532,1066.314c8.728,4.5,25.2,2.329,22.979-10.626-1.118-6.511-8.907-9.817-14.914-9.51a17.071,17.071,0,0,0-10.706,4.62c-3.116,2.933-4.256,7.42-7.664,10.069a.6.6,0,0,0,.27,1.066,25.12,25.12,0,0,1,9.8,4.231Z" transform="translate(-120.193 -98.356)" fill="#ea676c"/>
      <path id="Path_4851" data-name="Path 4851" d="M3720.456,930.888a21.641,21.641,0,0,0-8.088-10.769c-7.255-5.158-23.509-7.466-27.075,3.42-3.283,10.022,7.886,14.8,14.869,18.459,5.485,2.872,12.456,6.245,15.571,11.943l1.72,3.145a.663.663,0,0,0,1.216-.126l1.241-4.116C3722.085,945.624,3722.813,937.7,3720.456,930.888Z" fill="#ea676c"/>
      <path id="Path_4852" data-name="Path 4852" d="M3717.023,1084.267a9.586,9.586,0,0,0-4.137,2.138,17.086,17.086,0,0,0-5.8,9.654,14.48,14.48,0,0,0,.474,7.655c1.248,3.537,4.664,7.084,8.667,5.063,3.241-1.636,3.648-5.574,3.321-8.8a21.688,21.688,0,0,1,.509-8.788,8.333,8.333,0,0,1,1.8-3.22,7.3,7.3,0,0,1,2.251-1.612.291.291,0,0,0,.026-.528,13.115,13.115,0,0,0-5.545-1.7A6.89,6.89,0,0,0,3717.023,1084.267Z" transform="translate(-16.66 -127.005)" fill="#ea676c"/>
      <g id="Group_3595" data-name="Group 3595" transform="translate(3703.838 958.253)">
        <path id="Path_4853" data-name="Path 4853" d="M3774.935,1105.164a.736.736,0,0,1-.731-.662c-.437-4.3-2.358-14.292-10.72-14.292h-.087a.736.736,0,0,1-.006-1.473h.095a10.169,10.169,0,0,1,8.952,5.169,24.744,24.744,0,0,1,3.231,10.446.737.737,0,0,1-.658.807A.752.752,0,0,1,3774.935,1105.164Z" transform="translate(-3762.66 -1088.737)" fill="#ea676c"/>
      </g>
      <g id="Group_3596" data-name="Group 3596" transform="translate(3717.841 960.023)">
        <path id="Path_4854" data-name="Path 4854" d="M3820.442,1110.9a.737.737,0,0,1-.7-.954,42.025,42.025,0,0,1,2.116-5.525,22.776,22.776,0,0,1,3.09-4.915l.078-.093c1.04-1.244,2.611-3.123,4.3-3.454a.736.736,0,0,1,.284,1.445c-1.173.23-2.654,2-3.449,2.954l-.078.094a21.316,21.316,0,0,0-2.887,4.6,40.59,40.59,0,0,0-2.041,5.331A.737.737,0,0,1,3820.442,1110.9Z" transform="translate(-3819.705 -1095.945)" fill="#ea676c"/>
      </g>
      <g id="Group_3597" data-name="Group 3597" transform="translate(3716.623 951.801)">
        <path id="Path_4855" data-name="Path 4855" d="M3815.534,1085.268a.758.758,0,0,1-.081,0,.736.736,0,0,1-.652-.812c.636-5.824,1.207-13.491-.046-21.148a.736.736,0,1,1,1.454-.238c1.282,7.832.7,15.629.057,21.546A.737.737,0,0,1,3815.534,1085.268Z" transform="translate(-3814.745 -1062.449)" fill="#ea676c"/>
      </g>
      <g id="Group_3598" data-name="Group 3598" transform="translate(3701.368 973.481)">
        <path id="Path_4856" data-name="Path 4856" d="M3775.781,1175.563h-14.975a.736.736,0,0,1-.716-.566l-3.988-16.728a3.845,3.845,0,0,1-2.374-1.079,3.692,3.692,0,0,1-1.131-2.663,3.8,3.8,0,0,1,3.837-3.753h23.721a3.862,3.862,0,0,1,2.7,1.091,3.689,3.689,0,0,1,1.132,2.662,3.794,3.794,0,0,1-3.507,3.742L3776.5,1175A.736.736,0,0,1,3775.781,1175.563Zm-14.394-1.473H3775.2l3.984-16.715a.736.736,0,0,1,.716-.566h.255a2.327,2.327,0,0,0,2.364-2.282,2.228,2.228,0,0,0-.686-1.606,2.4,2.4,0,0,0-1.678-.675h-23.721a2.326,2.326,0,0,0-2.364,2.281,2.23,2.23,0,0,0,.685,1.607,2.389,2.389,0,0,0,1.678.675h.253a.736.736,0,0,1,.716.566Z" transform="translate(-3752.597 -1150.774)" fill="#090928"/>
      </g>
    </g>
    <g id="Group_3591" data-name="Group 3591" transform="translate(497.102 645.806)">
      <g id="Group_3581" data-name="Group 3581" transform="translate(55.735 60.214)">
        <g id="Group_3577" data-name="Group 3577" transform="translate(85.449)">
          <path id="Path_4825" data-name="Path 4825" d="M125.67,328.264a1.245,1.245,0,0,1,.705-1.961c4.648-1.1,16.992-4.01,19.295-8.357a2.619,2.619,0,0,0,.136-2.3,3.213,3.213,0,0,0-4.139-1.855l-7.346,2.8a1.242,1.242,0,0,1-1.686-1.165c0-.165,0-.33-.007-.495a1.242,1.242,0,0,1,.8-1.208l10.87-4.144a3.206,3.206,0,1,0-2.284-5.992l-10.935,4.168a1.243,1.243,0,0,1-1.387-.354l-.06-.069c-.045-.055-.093-.108-.141-.163a1.241,1.241,0,0,1,.483-1.992l3.991-1.521a3.2,3.2,0,0,0,1.724-1.745,3.3,3.3,0,0,0,.11-2.53c-.713-1.789-2.4-2.152-5.818-1.26-1.32.342-2.912.715-4.6,1.109-2.525.591-5.387,1.26-8.355,2.064a1.243,1.243,0,1,1-.65-2.4c3.01-.818,5.894-1.492,8.439-2.088,1.743-.406,3.247-.758,4.538-1.1,1.715-.447,6.932-1.808,8.754,2.745a5.738,5.738,0,0,1,.06,3.934l2.958-1.129a5.694,5.694,0,0,1,4.373,10.509,5.666,5.666,0,0,1,2.628,2.987,5.065,5.065,0,0,1-.261,4.35c-2.494,4.708-11.975,7.5-20.921,9.613A1.244,1.244,0,0,1,125.67,328.264Z" transform="translate(-115.459 -295.174)" fill="#090928"/>
        </g>
        <g id="Group_3580" data-name="Group 3580" transform="translate(0 11.253)">
          <g id="Group_3578" data-name="Group 3578" transform="translate(24.689 4.965)">
            <path id="Path_4826" data-name="Path 4826" d="M90.3,303.952a1.244,1.244,0,0,1,1.423-1.918c.05.017.108.038.167.057a1.244,1.244,0,0,1-.777,2.363c-.093-.031-.177-.06-.256-.089A1.249,1.249,0,0,1,90.3,303.952Z" transform="translate(-90.049 -301.956)"/>
          </g>
          <g id="Group_3579" data-name="Group 3579">
            <path id="Path_4827" data-name="Path 4827" d="M83.081,323.443a22.631,22.631,0,0,1-3.283-6.031,1.242,1.242,0,1,1,2.339-.839,20.187,20.187,0,0,0,2.927,5.366,25.91,25.91,0,0,0,12.736,8.7c18.439,6.079,40.768,3.96,56.884-5.392a12.265,12.265,0,1,0-12.312-21.217c-10.17,5.9-25,7.233-36.891,3.312a1.244,1.244,0,0,1,.777-2.362c11.263,3.711,25.273,2.465,34.866-3.1A14.752,14.752,0,0,1,155.931,327.4c-16.7,9.694-39.828,11.894-58.91,5.6A28.388,28.388,0,0,1,83.081,323.443Z" transform="translate(-79.724 -299.88)"/>
          </g>
        </g>
      </g>
      <path id="Path_4828" data-name="Path 4828" d="M78.309,283.282a9.5,9.5,0,0,1,.636-8.092c2.8-5.038,9.44-6.581,14.417-3.89,3.027,1.636,4.658,4.94,7.3,7.047,1.9,1.516,4.639,1.545,6.913,2.009,5.457,1.117,11.561,3.226,14.723,8.137,2.652,4.125,3.764,11.633-1.626,14.137-2.927,1.358-6.461-.313-8.489-2.511-2.152-2.336-2.3-5.952-4.854-8a8.554,8.554,0,0,0-4.029-1.636A13.384,13.384,0,0,0,90.262,296.3c-1.877,2.91-2.881,6.832-6.081,8.159-3.443,1.428-7.458-1.375-7.621-5.017-.139-3.152,1.963-6.1,3.089-8.907a16.757,16.757,0,0,0,.686-2.059c.459-1.8-.88-2.977-1.657-4.412A8.153,8.153,0,0,1,78.309,283.282Z" transform="translate(-28.4 -269.992)"/>
      <path id="Path_4829" data-name="Path 4829" d="M160.37,414.2H143.69c-5.124,0-10.129-2.219-14.409-4.873-3.434-2.128-8.592-6.408-12.793-3.831-2.518,1.545-4.24,4.433-5.748,6.887a3.816,3.816,0,0,1-3.25,1.817h-.863a5.359,5.359,0,0,1-5.352-5.67l1.375-23.685,33.668-4.448C149.247,388.4,156.468,400.771,160.37,414.2Z" transform="translate(5.978 -116.403)" fill="#035aa7"/>
      <path id="Path_4830" data-name="Path 4830" d="M56.416,414.2H73.1c5.124,0,10.129-2.219,14.412-4.873,3.431-2.128,8.589-6.408,12.791-3.831,2.518,1.545,4.242,4.433,5.751,6.887A3.812,3.812,0,0,0,109.3,414.2h.866a5.357,5.357,0,0,0,5.349-5.67l-1.375-23.685-33.668-4.448C67.542,388.4,60.321,400.771,56.416,414.2Z" transform="translate(-56.416 -116.403)" fill="#035aa7"/>
      <g id="Group_3582" data-name="Group 3582" transform="translate(23.698 127.81)">
        <path id="Path_4831" data-name="Path 4831" d="M66.392,457.829l22.58-120.22a17.368,17.368,0,0,1,34.139,6.411L100.534,464.242C98.968,472.585,64.623,467.257,66.392,457.829Z" transform="translate(-66.326 -323.443)"/>
      </g>
      <g id="Group_3583" data-name="Group 3583" transform="translate(77.783 134.131)">
        <path id="Path_4832" data-name="Path 4832" d="M120.059,461.488,89.545,347.968a17.367,17.367,0,1,1,33.544-9.017l30.516,113.517C156.1,461.732,122.145,469.24,120.059,461.488Z" transform="translate(-88.945 -326.086)"/>
      </g>
      <path id="Path_4833" data-name="Path 4833" d="M151.806,377.734a142.268,142.268,0,0,1-80.894,0c-1.538-.445-.395-19.809-.239-22.157a105.442,105.442,0,0,1,3.57-20.887c4.921-17.982,14.79-35.495,35.878-35.495,17.111,0,27.609,12.178,33.149,27.207a150.123,150.123,0,0,1,6.43,23.345C150.259,352.657,154.049,377.079,151.806,377.734Z" transform="translate(-37.354 -229.366)" fill="#035aa7"/>
      <path id="Path_4834" data-name="Path 4834" d="M82.664,296.893h28.083l2.871,16.211H79.793Z" transform="translate(-23.894 -232.569)" fill="#035aa7"/>
      <g id="Group_3584" data-name="Group 3584" transform="translate(26.342 72.531)">
        <path id="Path_4835" data-name="Path 4835" d="M88.185,371.538a20.608,20.608,0,0,1-11.758-3.577c-7.587-5.2-10.634-14.534-8.144-24.971a71.482,71.482,0,0,1,25.894-39.852,13.512,13.512,0,0,1,18.2,1.554,13.508,13.508,0,0,1,21.765,12.269c-2.324,18.831-14.338,38.242-30.6,49.457A27.254,27.254,0,0,1,88.185,371.538Zm-.741-26.932Z" transform="translate(-67.432 -300.325)" fill="#035aa7"/>
      </g>
      <g id="Group_3585" data-name="Group 3585" transform="translate(3.111 81.617)">
        <path id="Path_4836" data-name="Path 4836" d="M233.189,324.185l-3.515,20.026,15.839,12.745,26.34-10.1-5.345,18.354-36.028,13.56-15.028-13.781-86.64,32.579-4.51,1.7-2.21,20.285L86.055,433.105,69.934,422.846l2.369-.872,24.1-8.915,3.515-20.026L84.066,380.3,57.717,390.381l5.345-18.354,36.051-13.554,15.014,13.79,85.9-32.325,5.256-1.981,2.2-20.262,36.042-13.569,16.115,10.282-2.318.861Z" transform="translate(-57.717 -304.125)" fill="#fdb958"/>
        <path id="Path_4837" data-name="Path 4837" d="M121.7,350.389l-4.51,1.7-2.212,20.287L78.947,385.925,62.826,375.664l2.37-.873c4.51,1.954,16.509,6.5,23.431,3.357,8.632-3.95,28.67-19.019,25.978-35.2C112.812,332.13,117.773,341.276,121.7,350.389Z" transform="translate(-50.609 -256.943)" fill="#fccc6c" opacity="0.5" style="mix-blend-mode: screen;isolation: isolate"/>
        <path id="Path_4838" data-name="Path 4838" d="M176.848,314.407l-2.317.861c-2.1-1.121-4.527-2.429-6.978-3.843-6.8-3.893-34.182,6.179-37.738,8.336s-4.347,24.362-6.815,27.8c-1.619,2.267-4.156-3.3-5.77-7.628l5.256-1.98,2.2-20.263,36.043-13.568Z" transform="translate(25.079 -304.125)" fill="#fccc6c" opacity="0.5" style="mix-blend-mode: screen;isolation: isolate"/>
        <path id="Path_4839" data-name="Path 4839" d="M81.309,348.664h0a7.75,7.75,0,0,0,10.583,3.847l62.714-31.427Z" transform="translate(-24.896 -280.531)" fill="#fccc6c" opacity="0.5" style="mix-blend-mode: screen;isolation: isolate"/>
      </g>
      <g id="Group_3587" data-name="Group 3587" transform="translate(50.328 17.892)">
        <path id="Path_4840" data-name="Path 4840" d="M116.353,284.49a9.153,9.153,0,0,0-1.186-.464,21.455,21.455,0,0,1-6.136-3.154,15.14,15.14,0,0,0-10.885-2.745c-3.7.493-6.657,2.537-9.242,4.842a35.064,35.064,0,0,1-6.526,5.139,9.409,9.409,0,0,0-1.645,1.138A7.811,7.811,0,0,0,79.6,299.971a7.609,7.609,0,0,0,8.6,2.583,15.183,15.183,0,0,0,25.839-3.266,7.582,7.582,0,0,0,6.3-4.8A7.811,7.811,0,0,0,116.353,284.49Z" transform="translate(-76.75 -276.752)" fill="#fff"/>
        <g id="Group_3586" data-name="Group 3586">
          <path id="Path_4841" data-name="Path 4841" d="M100.88,310.323a16.533,16.533,0,0,1-12.4-5.624,8.792,8.792,0,0,1-9.151-3.25,9.1,9.1,0,0,1,1.308-12.42,10.382,10.382,0,0,1,1.865-1.291,27.308,27.308,0,0,0,5.277-4.065q.5-.448,1.011-.909c2.353-2.1,5.6-4.577,9.907-5.146a16.363,16.363,0,0,1,11.774,2.97,20.341,20.341,0,0,0,5.78,2.975,10.555,10.555,0,0,1,1.344.524h0a9.007,9.007,0,0,1,4.615,11.581,8.764,8.764,0,0,1-6.614,5.476,16.383,16.383,0,0,1-14.715,9.18Zm-11.968-8.29a1.24,1.24,0,0,1,.978.476,14.008,14.008,0,0,0,12.793,5.21,13.858,13.858,0,0,0,10.933-8.209,1.241,1.241,0,0,1,1.007-.736,6.325,6.325,0,0,0,5.277-4.024,6.547,6.547,0,0,0-3.364-8.412h0a8.307,8.307,0,0,0-1.028-.4,22.758,22.758,0,0,1-6.492-3.331,13.88,13.88,0,0,0-9.993-2.52c-3.63.481-6.492,2.676-8.577,4.536-.342.3-.672.6-1,.9a29.75,29.75,0,0,1-5.763,4.407,8.06,8.06,0,0,0-1.425.985,6.536,6.536,0,0,0-.959,9.024A6.361,6.361,0,0,0,88.51,302.1,1.174,1.174,0,0,1,88.912,302.033Z" transform="translate(-77.463 -277.475)"/>
        </g>
      </g>
      <path id="Path_4842" data-name="Path 4842" d="M108.187,286.738l-.2.115a7.107,7.107,0,0,1-7.441-.273,6.615,6.615,0,0,0-8.678,1.26,6.932,6.932,0,0,1-7.107,2.145l-.108-.031a2.759,2.759,0,0,0-3.128,4.005,16.585,16.585,0,0,0,16.736,8.491h0a16.587,16.587,0,0,0,14-12.759A2.751,2.751,0,0,0,108.187,286.738Z" transform="translate(-21.965 -248.424)"/>
      <g id="Group_3590" data-name="Group 3590" transform="translate(49.474 89.803)">
        <g id="Group_3588" data-name="Group 3588" transform="translate(82.019 60.157)">
          <path id="Path_4843" data-name="Path 4843" d="M131.633,370c-5.2.172-12.8-4.491-19.684-9.209a1.243,1.243,0,1,1,1.4-2.052c3.941,2.7,14.4,9.868,19.168,8.647a2.617,2.617,0,0,0,1.793-1.449,3.213,3.213,0,0,0-1.416-4.311l-7.016-3.546a1.244,1.244,0,0,1-.27-2.033c.12-.11.242-.22.359-.335a1.243,1.243,0,0,1,1.432-.222l10.38,5.251a3.208,3.208,0,1,0,2.9-5.725l-10.445-5.282a1.243,1.243,0,0,1-.672-1.26l.012-.1c.01-.069.019-.139.024-.208a1.244,1.244,0,0,1,1.8-.988l3.812,1.927h0a3.2,3.2,0,0,0,2.451.1,3.3,3.3,0,0,0,1.944-1.621c.842-1.729-.024-3.223-2.984-5.151-1.143-.746-2.489-1.671-3.914-2.654-2.135-1.468-4.558-3.135-7.15-4.789a1.243,1.243,0,0,1,1.337-2.1c2.63,1.679,5.069,3.357,7.224,4.84,1.473,1.014,2.745,1.889,3.862,2.616,1.485.968,6,3.914,3.864,8.324a5.742,5.742,0,0,1-2.869,2.69l2.826,1.43a5.694,5.694,0,0,1-4.825,10.308,5.655,5.655,0,0,1-.442,3.953,5.07,5.07,0,0,1-3.393,2.736A6.94,6.94,0,0,1,131.633,370Z" transform="translate(-111.406 -332.706)"/>
        </g>
        <g id="Group_3589" data-name="Group 3589">
          <path id="Path_4844" data-name="Path 4844" d="M148.648,388.11a13.493,13.493,0,0,1-4.247-.543l-4.039-1.184a88.63,88.63,0,0,1-63.257-76.107l26.879-2.728a61.385,61.385,0,0,0,43.974,52.91L152,361.642a13.511,13.511,0,0,1-3.35,26.468Z" transform="translate(-77.106 -307.548)" fill="#035aa7"/>
        </g>
      </g>
    </g>
    <g id="Group_3576" data-name="Group 3576" transform="translate(1255.188 598.838)">
      <path id="Path_4793" data-name="Path 4793" d="M400.788,336.854,378.026,368.54l2.181,0a32.15,32.15,0,0,0,25.705-12.893h0a4.112,4.112,0,0,1,4.044,3.326L411.8,368.5l8.094-.01.163-30.512Z" transform="translate(-367.078 -130.007)" fill="#035aa7"/>
      <g id="Group_3551" data-name="Group 3551" transform="translate(24.846 32.491)">
        <g id="Group_3550" data-name="Group 3550">
          <path id="Path_4794" data-name="Path 4794" d="M468.882,321.932a12.176,12.176,0,0,1-1.829.11c-31.114-.447-57.9-13.046-79.622-37.449a12.086,12.086,0,0,1,18.058-16.069c17.264,19.4,37.515,29,61.913,29.347a12.088,12.088,0,0,1,1.48,24.06Z" transform="translate(-383.096 -263.196)" fill="#035aa7"/>
          <path id="Path_4795" data-name="Path 4795" d="M467.972,324.062a13.622,13.622,0,0,0,1.824-.122,13.446,13.446,0,0,0,11.535-13.049,13.366,13.366,0,0,0-13.171-13.553c-24.017-.347-43.962-9.806-60.978-28.919a13.362,13.362,0,1,0-19.962,17.767c21.963,24.68,49.067,37.422,80.555,37.877Zm-70.784-57.57c.213,0,.428.007.643.019a10.748,10.748,0,0,1,7.446,3.6c17.516,19.68,38.073,29.421,62.848,29.778a10.81,10.81,0,0,1,10.653,10.964,10.874,10.874,0,0,1-9.328,10.555h0a11.3,11.3,0,0,1-1.636.1c-30.744-.442-57.217-12.9-78.687-37.021a10.811,10.811,0,0,1,8.061-18Z" transform="translate(-383.838 -263.938)"/>
        </g>
      </g>
      <g id="Group_3552" data-name="Group 3552" transform="translate(46.487 115.943)">
        <path id="Path_4796" data-name="Path 4796" d="M481.8,300.66c7.791,8.412,7.422,22.3.239,30.954-7.3,8.79-18.965,9.316-29.526,10.007L426.7,343.307c-4.964.325-10.136.263-15.065.988a16.376,16.376,0,0,1-4.749-32.406q20.111-4.451,40.218-8.912c5.98-1.325,12.26-3.529,18.489-3.357a22.058,22.058,0,0,1,2.826.249c3.34.524,6.485-1.313,9.78-.992A5.42,5.42,0,0,1,481.8,300.66Z" transform="translate(-392.889 -298.838)"/>
      </g>
      <g id="Group_3553" data-name="Group 3553" transform="translate(31.448 123.945)">
        <path id="Path_4797" data-name="Path 4797" d="M430.595,322.8l-22.3,63.78c-11.246,3.264-17.872,1.169-21.7-4.173.026-.112.053-.23.081-.344l12.284-67.738a16.373,16.373,0,0,1,31.631,8.474Z" transform="translate(-386.599 -302.184)"/>
      </g>
      <g id="Group_3554" data-name="Group 3554" transform="translate(44.792 9.128)">
        <path id="Path_4798" data-name="Path 4798" d="M455.167,255.436a9.1,9.1,0,0,0-7.85-.689c-2.575.99-4.809,2.905-7.53,3.36-4.823.806-12.881-4.8-16.834-.029-2.97,3.582.416,9.809-2.6,13.352-1.92,2.255-5.363,2.14-8.321,1.966-7.57-.445-19.7,1.2-19.852,11.086-.105,7.1,6.473,13.979,11.851,17.817,12.236,8.733,30.758,11.518,43.754,2.786,10.835-7.276,7.669-16.8,3.814-26.853-1.717-4.486-.2-7.58,2.463-11.138s6.212-7.429,1.71-11.208A6.166,6.166,0,0,0,455.167,255.436Z" transform="translate(-392.18 -254.168)"/>
      </g>
      <g id="Group_3556" data-name="Group 3556" transform="translate(78.539 49.178)">
        <path id="Path_4799" data-name="Path 4799" d="M415.182,283.327c.21-.151.426-.3.641-.447l-1-7.42L430,271.677l2.288,6.191c.167.438,1.987.419,2.418.507,14.225,2.939,16.2,18,11.277,29.553-.462,1.083.237,7.009.935,7.6,6.107,5.22,14.754,11.509,13.178,20.708-1.545,9.008-12.121,13.331-20.038,14.907-16,3.185-33.23-6.727-29.88-25.134a79.961,79.961,0,0,0,1.518-12.489,6.4,6.4,0,0,0-1.275-2.573A20.15,20.15,0,0,1,415.182,283.327Z" transform="translate(-405.418 -269.86)" fill="#035aa7"/>
        <g id="Group_3555" data-name="Group 3555">
          <path id="Path_4800" data-name="Path 4800" d="M434.9,354.332a32.448,32.448,0,0,0,6.332-.626c5.753-1.143,19.34-5.01,21.248-16.15,1.592-9.287-6-15.667-12.109-20.794-.483-.406-.959-.806-1.42-1.2a19.517,19.517,0,0,1-.662-6.023c3.3-7.776,3.364-16.392.17-22.5a17.61,17.61,0,0,0-12.566-9.108,6.412,6.412,0,0,0-.782-.086c-.17-.012-.478-.036-.736-.067-.574-1.554-2.061-5.576-2.061-5.576l-.476-1.286-17.843,4.448,1.062,7.855a21.768,21.768,0,0,0-5.026,29.651,7.667,7.667,0,0,1,1.009,1.769,78.026,78.026,0,0,1-1.492,12.155c-1.428,7.841.655,14.983,5.866,20.108C420.282,351.694,427.393,354.332,434.9,354.332Zm-4.986-79.778c.665,1.8,1.793,4.852,1.813,4.9.474,1.248,1.9,1.353,3.154,1.449.172.012.318.022.414.036a14.449,14.449,0,0,1,10.45,7.523c2.786,5.325,2.673,12.96-.294,19.923-.624,1.461-.026,8.195,1.349,9.369q.778.664,1.6,1.353c5.791,4.864,12.355,10.375,11.059,17.932-1.631,9.527-14.821,12.865-18.826,13.663-8.716,1.734-17.559-.557-23.073-5.985-3.159-3.106-6.59-8.642-5-17.374a80.155,80.155,0,0,0,1.54-12.755c0-.832-.44-1.829-1.54-3.443a18.68,18.68,0,0,1,4.393-25.517h0c.2-.143.4-.287.6-.426l.784-.533-.947-7Zm18.355,35.026,0,0Z" transform="translate(-406.293 -270.917)" fill="#035aa7"/>
        </g>
      </g>
      <g id="Group_3558" data-name="Group 3558" transform="translate(78.727 18.031)">
        <circle id="Ellipse_138" data-name="Ellipse 138" cx="13.583" cy="13.583" r="13.583" transform="translate(0.09 27.083) rotate(-83.534)" fill="#fff"/>
        <g id="Group_3557" data-name="Group 3557">
          <path id="Path_4801" data-name="Path 4801" d="M421.476,288.125a15.388,15.388,0,0,0,2.059-.141,15.1,15.1,0,1,0-2.059.141Zm.036-27.171a12.075,12.075,0,1,1-1.66.115A12.143,12.143,0,0,1,421.512,260.954Z" transform="translate(-406.371 -257.891)"/>
        </g>
      </g>
      <g id="Group_3559" data-name="Group 3559" transform="translate(7.382 7.635)">
        <path id="Path_4802" data-name="Path 4802" d="M385.644,287.208a1.533,1.533,0,0,0,1.3-2.346c-1.456-2.327-2.769-4.6-3.929-6.607-.775-1.344-1.506-2.611-2.147-3.656-1.872-3.061-1.358-4.1-.526-4.766a2.542,2.542,0,0,1,1.884-.471,2.445,2.445,0,0,1,1.659.863l2.339,3.025a1.533,1.533,0,0,0,2.523-.146l.141-.222a1.533,1.533,0,0,0-.081-1.762l-6.4-8.281a2.45,2.45,0,0,1,.438-3.436,2.453,2.453,0,0,1,3.436.438l6.368,8.235a1.529,1.529,0,0,0,1.71.509c.134-.045.268-.086.4-.127a1.532,1.532,0,0,0,.775-2.406l-4.3-5.564a2.448,2.448,0,0,1,.44-3.436,1.928,1.928,0,0,1,1.667-.4c4.132.811,9.964,10.854,11.88,14.154a1.532,1.532,0,1,0,2.649-1.538c-4.175-7.193-9.1-14.675-13.941-15.622a5,5,0,0,0-4.13.985,5.46,5.46,0,0,0-1.837,2.549,5.514,5.514,0,0,0-7.979,7.535l1.239,1.6a5.435,5.435,0,0,0-2.788,1.129c-2.463,1.97-2.523,4.916-.175,8.754.619,1.014,1.31,2.207,2.109,3.589,1.172,2.03,2.5,4.328,3.984,6.7A1.53,1.53,0,0,0,385.644,287.208Z" transform="translate(-376.535 -253.544)" fill="#090928"/>
      </g>
      <g id="Group_3560" data-name="Group 3560" transform="translate(0 112.167)">
        <path id="Path_4803" data-name="Path 4803" d="M397.767,328.232a1.533,1.533,0,0,0,.277-3.039c-2.7-.5-5.261-1.074-7.523-1.576-1.514-.337-2.944-.658-4.146-.894-3.518-.691-3.936-1.772-3.862-2.836a2.527,2.527,0,0,1,.925-1.7,2.441,2.441,0,0,1,1.758-.638h0s.234.021,3.812.325a1.533,1.533,0,0,0,1.6-1.958c-.017-.057-.031-.115-.045-.172l-.022-.079a1.53,1.53,0,0,0-1.351-1.133l-10.433-.887a2.45,2.45,0,0,1,.414-4.883l10.373.882a1.538,1.538,0,0,0,1.533-.913c.057-.131.117-.258.179-.385a1.53,1.53,0,0,0-1.248-2.2l-7.009-.6a2.453,2.453,0,0,1-2.233-2.649,1.92,1.92,0,0,1,.832-1.5c3.391-2.5,14.732.007,18.46.827a1.532,1.532,0,0,0,.66-2.991c-8.123-1.791-16.963-3.228-20.937-.3a5.005,5.005,0,0,0-2.068,3.709,5.477,5.477,0,0,0,.638,3.075,5.515,5.515,0,0,0,.148,10.976l2.013.17a5.462,5.462,0,0,0-1.055,2.817c-.215,3.147,1.915,5.184,6.329,6.052,1.165.227,2.511.529,4.072.875,2.284.509,4.876,1.088,7.628,1.6A1.605,1.605,0,0,0,397.767,328.232Z" transform="translate(-373.448 -297.259)" fill="#090928"/>
      </g>
      <g id="Group_3564" data-name="Group 3564" transform="translate(29.983 75.79)">
        <g id="Group_3561" data-name="Group 3561" transform="translate(60.202)">
          <path id="Path_4804" data-name="Path 4804" d="M411.6,289.855q2.514-3.587,4.744-7.547Z" transform="translate(-410.555 -281.681)"/>
          <path id="Path_4805" data-name="Path 4805" d="M413.253,290.953c1.691-2.415,3.309-4.99,4.811-7.654l-2.226-1.253c-1.459,2.592-3.032,5.1-4.675,7.441Z" transform="translate(-411.163 -282.046)"/>
        </g>
        <g id="Group_3562" data-name="Group 3562" transform="translate(58.095 7.441)">
          <path id="Path_4806" data-name="Path 4806" d="M410.705,288.381q1.094-1.427,2.14-2.917Z" transform="translate(-409.694 -284.732)"/>
          <path id="Path_4807" data-name="Path 4807" d="M412.307,289.584c.736-.961,1.468-1.956,2.171-2.96l-2.09-1.466c-.684.973-1.394,1.942-2.107,2.872Z" transform="translate(-410.282 -285.158)"/>
        </g>
        <g id="Group_3563" data-name="Group 3563" transform="translate(0 10.313)">
          <path id="Path_4808" data-name="Path 4808" d="M464.86,299.618c-15.158,20.6-36.461,34.2-63.508,40.5-.227.053-.457.1-.686.139a12.086,12.086,0,0,1-4.8-23.68c20.846-4.859,36.815-14.684,48.486-29.895Z" transform="translate(-385.244 -285.907)" fill="#035aa7"/>
          <path id="Path_4809" data-name="Path 4809" d="M399.338,342.167a13.364,13.364,0,0,0,2.291-.2c.249-.043.5-.093.756-.153,27.3-6.363,48.914-20.153,64.247-40.988l-2.056-1.514c-14.962,20.33-36.081,33.792-62.769,40.014-.2.048-.409.089-.612.124a10.809,10.809,0,0,1-4.295-21.179c21.234-4.95,37.331-14.88,49.209-30.361l-2.025-1.554c-11.5,14.993-27.126,24.617-47.764,29.428a13.364,13.364,0,0,0,3.02,26.38Z" transform="translate(-385.987 -286.359)"/>
        </g>
      </g>
      <path id="Path_4810" data-name="Path 4810" d="M411.091,273.066c-2.241-.8-5.361-3.2-5.7-5.672a7.022,7.022,0,0,1,6-7.91,8.3,8.3,0,0,1,2.386.017l1.837.4Z" transform="translate(-329.098 -237.752)" fill="#fff"/>
      <g id="Group_3566" data-name="Group 3566" transform="translate(74.697 20.122)">
        <path id="Path_4811" data-name="Path 4811" d="M409.735,272.43a6.3,6.3,0,0,1-4.342-5.036,7.022,7.022,0,0,1,6-7.91,8.3,8.3,0,0,1,2.386.017l1.837.4Z" transform="translate(-403.794 -257.875)" fill="#fff"/>
        <g id="Group_3565" data-name="Group 3565">
          <path id="Path_4812" data-name="Path 4812" d="M410.626,274.854a1.532,1.532,0,0,0,.516-2.975,4.755,4.755,0,0,1-3.34-3.8,5.488,5.488,0,0,1,4.694-6.184,6.656,6.656,0,0,1,1.9.007l1.789.387a1.532,1.532,0,0,0,.65-2.994L415,258.9l-.091-.017a9.748,9.748,0,0,0-2.829-.019,8.563,8.563,0,0,0-7.315,9.634,7.822,7.822,0,0,0,5.344,6.27A1.5,1.5,0,0,0,410.626,274.854Z" transform="translate(-404.686 -258.766)" fill="#090928"/>
        </g>
      </g>
      <path id="Path_4813" data-name="Path 4813" d="M416.288,275.84c2.343.4,6.239-.165,7.745-2.154a7.023,7.023,0,0,0-1.361-9.837,8.232,8.232,0,0,0-2.088-1.155l-1.8-.552Z" transform="translate(-313.848 -233.948)" fill="#fff"/>
      <g id="Group_3568" data-name="Group 3568" transform="translate(102.399 26.661)">
        <path id="Path_4814" data-name="Path 4814" d="M416.912,275.948a6.3,6.3,0,0,0,6.253-2.262,7.023,7.023,0,0,0-1.361-9.837,8.232,8.232,0,0,0-2.088-1.155l-1.8-.552Z" transform="translate(-415.379 -260.609)" fill="#fff"/>
        <g id="Group_3567" data-name="Group 3567">
          <path id="Path_4815" data-name="Path 4815" d="M419.086,278.482a7.621,7.621,0,0,0,6.193-2.982,8.549,8.549,0,0,0-1.657-11.982,9.841,9.841,0,0,0-2.475-1.368l-.088-.029-1.793-.552a1.531,1.531,0,1,0-.9,2.927l1.748.538a6.779,6.779,0,0,1,1.662.928,5.49,5.49,0,0,1,1.062,7.69,4.756,4.756,0,0,1-4.775,1.679,1.532,1.532,0,1,0-.512,3.02A9.162,9.162,0,0,0,419.086,278.482Z" transform="translate(-416.271 -261.5)" fill="#090928"/>
        </g>
      </g>
      <path id="Path_4816" data-name="Path 4816" d="M409.167,255.692c-3.472,5.94,1.466,13.551,6.282,17.1,6.471,4.763,19.177,6.652,23.635-1.884,5.512-10.562-7.834-13.257-15.517-12.064C413,260.484,409.167,255.692,409.167,255.692Z" transform="translate(-325.376 -242.92)"/>
      <g id="Group_3569" data-name="Group 3569" transform="translate(80.965)">
        <path id="Path_4817" data-name="Path 4817" d="M407.4,256.245h0a5.3,5.3,0,0,0,4.885,6.263l10.5.65.772-6.545-8.647-4.173A5.3,5.3,0,0,0,407.4,256.245Z" transform="translate(-407.307 -248.181)" fill="#ea676c"/>
        <path id="Path_4818" data-name="Path 4818" d="M426.869,252.583h0a5.3,5.3,0,0,1-1.8,7.736l-9.261,5-3.448-5.617,6.1-7.415A5.3,5.3,0,0,1,426.869,252.583Z" transform="translate(-400.281 -250.351)" fill="#ea676c"/>
      </g>
      <path id="Path_4819" data-name="Path 4819" d="M417.265,339.365l-.1,38.462,1.779-1.258a32.159,32.159,0,0,0,13.56-25.361h0a4.108,4.108,0,0,1,5.22.385l7.006,6.715,6.607-4.675-17.468-25.019Z" transform="translate(-312.625 -141.471)" fill="#035aa7"/>
      <g id="Group_3570" data-name="Group 3570" transform="translate(64.052 128.401)">
        <path id="Path_4820" data-name="Path 4820" d="M457.948,364.2c-3.847,7.052-7.2,11.664-17.848,11.583l-37.336-46.616a16.373,16.373,0,1,1,27.692-17.475Z" transform="translate(-400.234 -304.048)"/>
      </g>
      <g id="Group_3575" data-name="Group 3575" transform="translate(69.243 131.821)">
        <path id="Path_4824" data-name="Path 4824" d="M402.85,306.4a.459.459,0,0,0,0-.918.459.459,0,0,0,0,.918Z" transform="translate(-402.405 -305.478)" fill="#3b2ff6"/>
      </g>
    </g>
    <g id="Group_5485" data-name="Group 5485" transform="translate(1284.133 749.2)">
      <g id="Group_3515" data-name="Group 3515" transform="translate(0 0.037)">
        <path id="Path_4752" data-name="Path 4752" d="M449.009,333.234l-.968-9.322h-44.47l.969,9.322Z" transform="translate(-360.485 -297.998)" fill="#183c6c"/>
        <path id="Path_4753" data-name="Path 4753" d="M444.958,349.021l-.968-9.322H399.52l.968,9.322Z" transform="translate(-366.121 -276.035)" fill="#183c6c"/>
        <path id="Path_4754" data-name="Path 4754" d="M440.907,364.808l-.969-9.322h-44.47l.968,9.322Z" transform="translate(-371.756 -254.073)" fill="#183c6c"/>
        <path id="Path_4755" data-name="Path 4755" d="M436.857,380.6l-.968-9.322h-44.47l.968,9.322Z" transform="translate(-377.392 -232.109)" fill="#183c6c"/>
        <path id="Path_4756" data-name="Path 4756" d="M403.21,508.45h12.15l43.962-195.375h-12.15Z" transform="translate(-360.987 -313.075)" fill="#183c6c"/>
        <g id="Group_3514" data-name="Group 3514">
          <g id="Group_3513" data-name="Group 3513" transform="translate(0.804)">
            <path id="Path_4757" data-name="Path 4757" d="M385.889,508.45h12.15L442,313.075h-12.15Z" transform="translate(-385.889 -313.075)" fill="#183c6c"/>
            <path id="Path_4758" data-name="Path 4758" d="M433.593,313.08,389.619,508.441h-3.73L429.863,313.08Z" transform="translate(-385.889 -313.068)" fill="#183c6c" opacity="0.5" style="mix-blend-mode: screen;isolation: isolate"/>
          </g>
          <path id="Path_4848" data-name="Path 4848" d="M0,0H14.945V2.505H0Z" transform="translate(0 192.87)" fill="#183c6c"/>
        </g>
        <path id="Path_4849" data-name="Path 4849" d="M0,0H14.945V2.505H0Z" transform="translate(41.049 192.87)" fill="#183c6c"/>
      </g>
      <g id="Group_3523" data-name="Group 3523" transform="translate(36.864)">
        <g id="Group_3516" data-name="Group 3516" transform="translate(26.179 25.945)">
          <rect id="Rectangle_1689" data-name="Rectangle 1689" width="9.322" height="44.47" transform="translate(44.47 0.005) rotate(90)" fill="#183c6c"/>
          <path id="Path_4759" data-name="Path 4759" d="M444.962,326.3H415.718l-.789-2.391h29.244Z" transform="translate(-407.727 -323.91)" fill="#183c6c" opacity="0.8" style="mix-blend-mode: screen;isolation: isolate"/>
        </g>
        <g id="Group_3517" data-name="Group 3517" transform="translate(39.787 63.701)">
          <rect id="Rectangle_1690" data-name="Rectangle 1690" width="9.322" height="44.47" transform="translate(44.47 0) rotate(90)" fill="#183c6c"/>
          <path id="Path_4760" data-name="Path 4760" d="M450.212,342.091H420.968l-.789-2.391h29.244Z" transform="translate(-414.031 -339.7)" fill="#183c6c" opacity="0.8" style="mix-blend-mode: screen;isolation: isolate"/>
        </g>
        <g id="Group_3518" data-name="Group 3518" transform="translate(53.395 101.451)">
          <rect id="Rectangle_1691" data-name="Rectangle 1691" width="9.322" height="44.47" transform="translate(44.47 0) rotate(90)" fill="#183c6c"/>
          <path id="Path_4761" data-name="Path 4761" d="M455.379,357.878H426.135l-.789-2.391H454.59Z" transform="translate(-420.452 -355.487)" fill="#183c6c" opacity="0.8" style="mix-blend-mode: screen;isolation: isolate"/>
        </g>
        <g id="Group_3519" data-name="Group 3519" transform="translate(67.003 139.201)">
          <rect id="Rectangle_1692" data-name="Rectangle 1692" width="9.322" height="44.47" transform="translate(44.47 0) rotate(90)" fill="#183c6c"/>
          <path id="Path_4762" data-name="Path 4762" d="M460.546,373.665H431.3l-.789-2.391h29.244Z" transform="translate(-426.872 -371.274)" fill="#183c6c" opacity="0.8" style="mix-blend-mode: screen;isolation: isolate"/>
        </g>
        <g id="Group_3520" data-name="Group 3520" transform="translate(12.706 0.037)">
          <path id="Path_4763" data-name="Path 4763" d="M482.694,508.451h-12.15L406.283,313.075h12.15Z" transform="translate(-406.283 -313.075)" fill="#183c6c"/>
          <rect id="Rectangle_1693" data-name="Rectangle 1693" width="14.945" height="2.505" transform="translate(62.533 192.87)" fill="#183c6c"/>
        </g>
        <g id="Group_3521" data-name="Group 3521" transform="translate(54.124 0.037)">
          <path id="Path_4764" data-name="Path 4764" d="M500.014,508.451h-12.15L423.6,313.075h12.15Z" transform="translate(-423.604 -313.075)" fill="#183c6c"/>
          <rect id="Rectangle_1694" data-name="Rectangle 1694" width="14.945" height="2.505" transform="translate(62.462 192.87)" fill="#183c6c"/>
        </g>
        <g id="Group_3522" data-name="Group 3522">
          <rect id="Rectangle_1695" data-name="Rectangle 1695" width="9.321" height="75.628" rx="0.5" transform="translate(75.63 0.012) rotate(90)" fill="#183c6c"/>
          <path id="Path_4765" data-name="Path 4765" d="M476.6,314.256v4.663a1.2,1.2,0,0,0-1.2-1.2H402.165a1.2,1.2,0,0,0-1.2,1.2v-4.663a1.2,1.2,0,0,1,1.2-1.2h73.242A1.2,1.2,0,0,1,476.6,314.256Z" transform="translate(-400.969 -313.06)" fill="#183c6c" opacity="0.8" style="mix-blend-mode: screen;isolation: isolate"/>
        </g>
      </g>
    </g>
    <g id="Group_5486" data-name="Group 5486" transform="translate(627.275 -0.079)">
      <g id="Group_3525" data-name="Group 3525">
        <rect id="Rectangle_1696" data-name="Rectangle 1696" width="5.833" height="375.333" fill="#183c6c"/>
      </g>
      <g id="Group_3528" data-name="Group 3528" transform="translate(643.093)">
        <g id="Group_3526" data-name="Group 3526" transform="translate(0 357.778)">
          <path id="Path_4766" data-name="Path 4766" d="M385.607,221.7l-5.811-.483,4.79-57.513a15.161,15.161,0,0,1,11.8-13.642,14.69,14.69,0,0,1,16.169,6.588l.158.256c4.307,7.154,5.789,15.32,7.226,23.219.292,1.607.583,3.214.9,4.8,2.757,13.929,7.181,23.321,13.924,29.562l-3.96,4.283c-7.695-7.121-12.678-17.516-15.686-32.712-.318-1.621-.617-3.257-.913-4.895-1.4-7.721-2.731-15.012-6.48-21.241l-.129-.213a8.854,8.854,0,0,0-9.849-3.981,9.454,9.454,0,0,0-7.346,8.455Z" transform="translate(-379.796 -149.623)" fill="#183c6c"/>
        </g>
        <g id="Group_3527" data-name="Group 3527" transform="translate(9.184)">
          <rect id="Rectangle_1697" data-name="Rectangle 1697" width="5.833" height="202.314" fill="#183c6c"/>
        </g>
      </g>
    </g>
  </g>
</svg>
