<svg xmlns="http://www.w3.org/2000/svg" width="687.921" height="421.798" viewBox="0 0 687.921 421.798">
  <g id="Group_3602" data-name="Group 3602" transform="translate(-593.357 -308.682)">
    <g id="Group_3532" data-name="Group 3532" transform="translate(598.931 308.682)">
      <path id="Path_4767" data-name="Path 4767" d="M734.422,550.745,114.709,499.157a17.128,17.128,0,0,1-15.648-18.489l28.4-341.143a11.469,11.469,0,0,1,12.382-10.478l630.99,52.525a11.468,11.468,0,0,1,10.478,12.382L752.91,535.1A17.128,17.128,0,0,1,734.422,550.745Z" transform="translate(-99.001 -129.007)" fill="#ecedee"/>
      <g id="Group_3531" data-name="Group 3531" transform="translate(27.427)">
        <path id="Path_4768" data-name="Path 4768" d="M764.318,206.353,110.471,151.924l1.031-12.4a11.469,11.469,0,0,1,12.382-10.478l630.99,52.525a11.468,11.468,0,0,1,10.478,12.382Z" transform="translate(-110.471 -129.007)" fill="#183c6c"/>
        <g id="Group_3530" data-name="Group 3530" transform="translate(571.217 53.011)">
          <path id="Path_4769" data-name="Path 4769" d="M361.24,157.625a5.953,5.953,0,1,1-5.44-6.428A5.954,5.954,0,0,1,361.24,157.625Z" transform="translate(-349.354 -151.176)" fill="#fff0eb"/>
          <path id="Path_4770" data-name="Path 4770" d="M371.876,158.51a5.954,5.954,0,1,1-5.44-6.428A5.956,5.956,0,0,1,371.876,158.51Z" transform="translate(-334.562 -149.945)" fill="#fff0eb"/>
          <path id="Path_4771" data-name="Path 4771" d="M382.51,159.393a5.954,5.954,0,1,1-5.44-6.425A5.954,5.954,0,0,1,382.51,159.393Z" transform="translate(-319.768 -148.713)" fill="#fff0eb"/>
        </g>
      </g>
    </g>
    <g id="Group_3541" data-name="Group 3541" transform="translate(593.357 596.732)">
      <path id="Path_4784" data-name="Path 4784" d="M772.59,281.7,485.622,290,375.1,293.181,97.6,301.192l-.263-8.752-.67-23.506L217.9,265.443h.024L369.1,261.067l82.688-2.391,27.762-.789,292.109-8.417.813,27.738Z" transform="translate(-96.67 -249.47)" fill="#fcc574"/>
      <text id="ERROR" transform="translate(7.617 43.425) rotate(-1.652)" fill="#fff" font-size="24" font-family="SegoeUI, Segoe UI"><tspan x="0" y="0">ERROR</tspan></text>
      <text id="ERROR-2" data-name="ERROR" transform="translate(121.653 40.136) rotate(-1.652)" fill="#fff" font-size="24" font-family="SegoeUI, Segoe UI"><tspan x="0" y="0">ERROR</tspan></text>
      <text id="ERROR-3" data-name="ERROR" transform="translate(235.687 36.847) rotate(-1.652)" fill="#fff" font-size="24" font-family="SegoeUI, Segoe UI"><tspan x="0" y="0">ERROR</tspan></text>
      <text id="ERROR-4" data-name="ERROR" transform="translate(349.72 33.558) rotate(-1.652)" fill="#fff" font-size="24" font-family="SegoeUI, Segoe UI"><tspan x="0" y="0">ERROR</tspan></text>
      <text id="ERROR-5" data-name="ERROR" transform="translate(463.756 30.269) rotate(-1.652)" fill="#fff" font-size="24" font-family="SegoeUI, Segoe UI"><tspan x="0" y="0">ERROR</tspan></text>
      <text id="ERROR-6" data-name="ERROR" transform="translate(577.795 26.98) rotate(-1.652)" fill="#fff" font-size="24" font-family="SegoeUI, Segoe UI"><tspan x="0" y="0">ERROR</tspan></text>
      <path id="Path_4785" data-name="Path 4785" d="M452.163,283.825l-77.451,2.609-277.5,8.011-.263-8.752c52.893-2.128,231.157-.143,237.637-1.865,5.906-1.554-79.2-17.982-117.049-25.132L368.71,254.32C379.8,262.044,452.163,283.825,452.163,283.825Z" transform="translate(-96.28 -242.723)" fill="#fcc574" opacity="0.5" style="mix-blend-mode: multiply;isolation: isolate"/>
      <path id="Path_4786" data-name="Path 4786" d="M565.983,276.806l-286.968,8.3L245.18,253.779l27.762-.789,86.179,10.784,78.027,12.934a130.433,130.433,0,0,0,29.051,1.526l99.665-5.923Z" transform="translate(109.937 -244.573)" fill="#fcc574" opacity="0.5" style="mix-blend-mode: multiply;isolation: isolate"/>
    </g>
    <g id="Group_3542" data-name="Group 3542" transform="translate(594.41 563.256)">
      <path id="Path_4787" data-name="Path 4787" d="M770.95,322.151l-3.085,23.721-1.076,8.273L97.11,267.464l4.137-31.994,19.464,2.511Z" transform="translate(-97.11 -235.47)" fill="#fcc574"/>
      <path id="Path_4788" data-name="Path 4788" d="M767.865,345.872l-1.076,8.273L97.11,267.464l4.137-31.994,19.464,2.511c.837,9.373,3.682,20.23,12.171,23.314C147.014,266.436,661.218,332.266,767.865,345.872Z" transform="translate(-97.11 -235.47)" fill="#fcc574" opacity="0.5" style="mix-blend-mode: multiply;isolation: isolate"/>
      <text id="ERROR-7" data-name="ERROR" transform="matrix(0.992, 0.128, -0.128, 0.992, 8, 25.011)" fill="#fff" font-size="24" font-family="SegoeUI, Segoe UI"><tspan x="0" y="0">ERROR</tspan></text>
      <text id="ERROR-8" data-name="ERROR" transform="matrix(0.992, 0.128, -0.128, 0.992, 121.141, 39.655)" fill="#fff" font-size="24" font-family="SegoeUI, Segoe UI"><tspan x="0" y="0">ERROR</tspan></text>
      <text id="ERROR-9" data-name="ERROR" transform="matrix(0.992, 0.128, -0.128, 0.992, 234.279, 54.299)" fill="#fff" font-size="24" font-family="SegoeUI, Segoe UI"><tspan x="0" y="0">ERROR</tspan></text>
      <text id="ERROR-10" data-name="ERROR" transform="matrix(0.992, 0.128, -0.128, 0.992, 347.419, 68.943)" fill="#fff" font-size="24" font-family="SegoeUI, Segoe UI"><tspan x="0" y="0">ERROR</tspan></text>
      <text id="ERROR-11" data-name="ERROR" transform="matrix(0.992, 0.128, -0.128, 0.992, 460.558, 83.586)" fill="#fff" font-size="24" font-family="SegoeUI, Segoe UI"><tspan x="0" y="0">ERROR</tspan></text>
      <text id="ERROR-12" data-name="ERROR" transform="matrix(0.992, 0.128, -0.128, 0.992, 573.7, 98.23)" fill="#fff" font-size="24" font-family="SegoeUI, Segoe UI"><tspan x="0" y="0">ERROR</tspan></text>
    </g>
    <g id="Group_3594" data-name="Group 3594" transform="translate(-9.69 6.051)">
      <g id="Group_3592" data-name="Group 3592" transform="matrix(0.996, 0.087, -0.087, 0.996, 764.112, 394.995)">
        <path id="Rectangle_1704" data-name="Rectangle 1704" d="M0,0H5.992A10.925,10.925,0,0,1,16.918,10.925v0A10.945,10.945,0,0,1,5.973,21.871H0a0,0,0,0,1,0,0V0A0,0,0,0,1,0,0Z" transform="translate(48.65 95.332)" fill="#183c6c"/>
        <path id="Rectangle_1705" data-name="Rectangle 1705" d="M0,0H6.087A11.154,11.154,0,0,1,17.241,11.154v0A11.134,11.134,0,0,1,6.107,22.288H0a0,0,0,0,1,0,0V0A0,0,0,0,1,0,0Z" transform="translate(28.062 106.737) rotate(122.521)" fill="#183c6c"/>
        <path id="Rectangle_1706" data-name="Rectangle 1706" d="M0,0H5.992A10.925,10.925,0,0,1,16.918,10.925v0A10.945,10.945,0,0,1,5.973,21.871H0a0,0,0,0,1,0,0V0A0,0,0,0,1,0,0Z" transform="translate(110.227 95.332)" fill="#183c6c"/>
        <path id="Rectangle_1707" data-name="Rectangle 1707" d="M0,0H9.939A11.155,11.155,0,0,1,21.093,11.155v0A11.175,11.175,0,0,1,9.918,22.33H0a0,0,0,0,1,0,0V0A0,0,0,0,1,0,0Z" transform="translate(101.681 129.351) rotate(90)" fill="#183c6c"/>
        <path id="Path_4846" data-name="Path 4846" d="M92.868,95.332V9.912q.02-.637,0-1.222l-.027-.6-.008-.062C92.319,1.206,87.574,0,82.356,0H70.639c-5.8,0-8.775,5.056-11.831,9.945l-3.57,5.2h0L0,95.538l6.7,21.621H43.479V95.332h-16.5L70.639,31.541l-.013,63.791v38.492H92.868V117.159h15.65V95.332Z" transform="translate(8.743 0)" fill="#183c6c"/>
        <rect id="Rectangle_1708" data-name="Rectangle 1708" width="16.918" height="21.827" transform="translate(39.193 95.332)" fill="#183c6c"/>
      </g>
      <g id="Group_3593" data-name="Group 3593" transform="matrix(0.996, 0.087, -0.087, 0.996, 1021.928, 419.493)">
        <path id="Rectangle_1704-2" data-name="Rectangle 1704" d="M0,0H5.992A10.925,10.925,0,0,1,16.918,10.925v0A10.945,10.945,0,0,1,5.973,21.871H0a0,0,0,0,1,0,0V0A0,0,0,0,1,0,0Z" transform="translate(48.65 95.332)" fill="#183c6c"/>
        <path id="Rectangle_1705-2" data-name="Rectangle 1705" d="M0,0H6.087A11.154,11.154,0,0,1,17.241,11.154v0A11.134,11.134,0,0,1,6.107,22.288H0a0,0,0,0,1,0,0V0A0,0,0,0,1,0,0Z" transform="translate(28.062 106.737) rotate(122.521)" fill="#183c6c"/>
        <path id="Rectangle_1706-2" data-name="Rectangle 1706" d="M0,0H5.992A10.925,10.925,0,0,1,16.918,10.925v0A10.945,10.945,0,0,1,5.973,21.871H0a0,0,0,0,1,0,0V0A0,0,0,0,1,0,0Z" transform="translate(110.227 95.332)" fill="#183c6c"/>
        <path id="Rectangle_1707-2" data-name="Rectangle 1707" d="M0,0H9.939A11.155,11.155,0,0,1,21.093,11.155v0A11.175,11.175,0,0,1,9.918,22.33H0a0,0,0,0,1,0,0V0A0,0,0,0,1,0,0Z" transform="translate(101.681 129.351) rotate(90)" fill="#183c6c"/>
        <path id="Path_4846-2" data-name="Path 4846" d="M92.868,95.332V9.912q.02-.637,0-1.222l-.027-.6-.008-.062C92.319,1.206,87.574,0,82.356,0H70.639c-5.8,0-8.775,5.056-11.831,9.945l-3.57,5.2h0L0,95.538l6.7,21.621H43.479V95.332h-16.5L70.639,31.541l-.013,63.791v38.492H92.868V117.159h15.65V95.332Z" transform="translate(8.743 0)" fill="#183c6c"/>
        <rect id="Rectangle_1708-2" data-name="Rectangle 1708" width="16.918" height="21.827" transform="translate(39.193 95.332)" fill="#183c6c"/>
      </g>
      <path id="Path_4847" data-name="Path 4847" d="M52.717,0C17.9,0,0,32.115,0,78.058q0,5.213.3,10.185h0v.016h0c.077.654,2.762,22.78,14.254,21.305,13.067-1.677,11.3-23.35,11.3-23.35q-.185-3.976-.185-8.155c0-31.223,7.393-53.749,27.039-53.749S79.951,46.835,79.951,78.058c0,31-7.586,54.417-27.234,54.417a22.825,22.825,0,0,1-2.808-.171,62.293,62.293,0,0,1-11.4-3.443q-2.475-.99-4.789-2.1S21.293,119.972,17.2,131.8c-3.6,10.4,8.879,18.156,9.249,18.383h0l.008,0h0q2.873,1.459,5.964,2.7a64.136,64.136,0,0,0,11.455,3.438l.017-.065a50.809,50.809,0,0,0,8.821.75c35.016,0,52.913-32.562,52.913-78.95C105.629,32.115,87.732,0,52.717,0Z" transform="matrix(0.996, 0.087, -0.087, 0.996, 903.508, 403.129)" fill="#183c6c" stroke="#ecedee" stroke-width="3"/>
    </g>
  </g>
</svg>
