<svg xmlns="http://www.w3.org/2000/svg" width="1922.657" height="356.01" viewBox="0 0 1922.657 356.01">
  <g id="Group_5484" data-name="Group 5484" transform="translate(2.44 -3240)">
    <g id="Group_442" data-name="Group 442" transform="translate(268.621 3230)">
      <g id="Group_245" data-name="Group 245" transform="translate(0 4.999)">
        <path id="Path_317" data-name="Path 317" d="M2010.709,829.031c-8.428,9.853-36.311-7.825-54.331-8.37-32.113-.96-77.937-5.9-118.311-15.807.684-45.9,10.585-83.272,30.7-124.467,10.981-22.507,34.556-49.565,59.535-47.747v13.5a58.277,58.277,0,0,1,11.039,1.033,52.687,52.687,0,0,1,25.721,12.857A105.914,105.914,0,0,0,1984,695.25c.349,1.862.625,3.752.822,5.658l5.81,45.26Z" transform="translate(-1841.01 -515.266)" fill="#035aa7"/>
        <path id="Path_318" data-name="Path 318" d="M1938.95,597.085h49.038l8.341,35.886H1930.61Z" transform="translate(-1876.626 -491.295)" fill="#035aa7"/>
        <g id="Group_242" data-name="Group 242" transform="translate(54.654 30.523)">
          <ellipse id="Ellipse_20" data-name="Ellipse 20" cx="29.497" cy="29.497" rx="29.497" ry="29.497" transform="translate(58.423 66.606) rotate(-172.027)" fill="#fff"/>
          <g id="Group_241" data-name="Group 241" transform="translate(1.988 1.988)">
            <path id="Path_319" data-name="Path 319" d="M1962.968,466.03a31.315,31.315,0,1,0-31.315-31.315A31.351,31.351,0,0,0,1962.968,466.03Zm0-58.994a27.679,27.679,0,1,1-27.679,27.679A27.711,27.711,0,0,1,1962.968,407.036Z" transform="translate(-1931.653 -403.4)" fill="#090928"/>
          </g>
        </g>
        <path id="Path_320" data-name="Path 320" d="M1979.468,387.374c-8.974.693-19.678-1.708-27.481-5.3-5.33-2.454-9.164-6.7-14.55-4.375a14.724,14.724,0,0,0-8.471,13.224c0,1.395-1.924,4.376-1.887,6.185.033,1.605,2.332,1.832,1.886,3.12-4.015,11.607-17.27,7.05-23.613.34-7.792-8.242-10.383-24.666,1.845-30.421a12.724,12.724,0,0,1,4.867-1.092c3.507-.148,7.272,1.594,10.381-.047,5.053-2.671,2.8-9.637,3.406-14.155,2.855-21.193,28.607-20.676,42.928-13.5a42.948,42.948,0,0,1,19.527,19.749c3.308,6.816,4.168,20.475-3.766,24.907A12.425,12.425,0,0,1,1979.468,387.374Z" transform="translate(-1857.838 -331.883)" fill="#090928"/>
        <g id="Group_244" data-name="Group 244" transform="translate(61.98 36.262)">
          <path id="Path_321" data-name="Path 321" d="M2021.616,433.908c-6.05-2.834-13.768-6.5-20.564-4.206-6.645,2.247-11.474,10.24-10.442,17.168a7.844,7.844,0,0,0,5.279,6.535Z" transform="translate(-1988.651 -427.152)" fill="#fff"/>
          <g id="Group_243" data-name="Group 243">
            <path id="Path_322" data-name="Path 322" d="M1993.312,452.633a1.818,1.818,0,0,0,.651-3.516,6.057,6.057,0,0,1-4.132-5.106c-.91-6.116,3.4-13.209,9.226-15.178,6.039-2.041,13.245,1.335,19.035,4.047l.177.083a1.818,1.818,0,1,0,1.542-3.293l-.176-.082c-6.38-2.989-14.32-6.71-21.743-4.2-7.488,2.532-12.827,11.305-11.657,19.158a9.666,9.666,0,0,0,6.427,7.966A1.817,1.817,0,0,0,1993.312,452.633Z" transform="translate(-1986.074 -424.561)" fill="#090928"/>
          </g>
        </g>
        <path id="Path_323" data-name="Path 323" d="M1836.913,735.994l2.043,16.813a48.356,48.356,0,0,1-18.194-6.639c-37.356-23.016-36.338-92.549-36.338-92.549h-5.25a10.537,10.537,0,0,1-9.592-6.174c-.044-.094-.08-.182-.117-.276a10.424,10.424,0,0,1-.843-4.087A10.509,10.509,0,0,1,1789.188,640l5.592,18.667c.131.451.262.9.407,1.352a105.909,105.909,0,0,0,18.943,35.225,152.109,152.109,0,0,0,43.7,36.774Z" transform="translate(-1671.136 -513.251)" fill="#ea676c"/>
      </g>
      <g id="Group_246" data-name="Group 246" transform="translate(27.737 154.856)">
        <path id="Path_324" data-name="Path 324" d="M1800.87,856.428a113.26,113.26,0,0,0,30.6-4.451c25.212-7.085,46.189-20.815,56.448-28.368a26.247,26.247,0,1,0-31.122-42.274c-12.561,9.248-26.968,16.576-39.527,20.1-13.247,3.722-23.855,3.352-31.531-1.1-8.31-4.821-13.816-14.885-14.026-25.64-.154-7.874,2.008-16.575,6.428-25.862a26.247,26.247,0,0,0-47.4-22.558c-7.955,16.714-11.828,33.351-11.512,49.449.571,29.146,15.963,55.975,40.169,70.018C1771.647,852.849,1785.673,856.428,1800.87,856.428Z" transform="translate(-1719.214 -711.303)" fill="#035aa7"/>
      </g>
      <g id="Group_248" data-name="Group 248" transform="translate(41.348 216.432)">
        <g id="Group_247" data-name="Group 247">
          <path id="Path_325" data-name="Path 325" d="M1782.891,945.554h0a115.334,115.334,0,0,0,31.1-4.52c25.489-7.163,46.675-21.028,57.035-28.655a28.065,28.065,0,0,0-33.279-45.2c-11.484,8.455-24.873,15.414-36.734,19.1-13.633,4.231-24.814,4.162-32.333-.2-7.773-4.509-12.923-13.97-13.122-24.1a1.818,1.818,0,0,0-1.816-1.782h-.036a1.817,1.817,0,0,0-1.782,1.853c.223,11.377,6.084,22.045,14.932,27.177,8.421,4.886,20.605,5.069,35.236.528,12.413-3.852,25.841-10.827,37.812-19.64a24.429,24.429,0,1,1,28.967,39.346c-10.161,7.48-30.928,21.075-55.863,28.082a111.7,111.7,0,0,1-30.113,4.384c-14.973,0-28.618-3.512-40.557-10.438a76.48,76.48,0,0,1-24.184-22.253,1.818,1.818,0,0,0-2.97,2.1,80.1,80.1,0,0,0,25.33,23.3C1753.01,941.877,1767.27,945.554,1782.891,945.554Z" transform="translate(-1714.847 -860.188)" fill="#090928"/>
        </g>
      </g>
      <g id="Group_249" data-name="Group 249" transform="translate(199.476 193.687)">
        <path id="Path_326" data-name="Path 326" d="M1605.006,870.029a1.81,1.81,0,0,0,.553-.086c16.885-5.388,34.689-12.146,38.724-21.42a9.284,9.284,0,0,0-.138-7.974,10.444,10.444,0,0,0-6.52-5.568l.673-.318a10.465,10.465,0,1,0-8.939-18.925l-6.8,3.212c.036-.1.071-.192.105-.288a10.676,10.676,0,0,0-.364-8.183c-3.974-8.071-13.506-4.785-16.64-3.705-2.457.847-5.325,1.755-8.646,2.807-4.834,1.531-10.313,3.267-16.011,5.294a1.818,1.818,0,1,0,1.219,3.425c5.637-2.006,11.084-3.731,15.89-5.253,3.205-1.015,6.233-1.974,8.734-2.836,6.753-2.328,10.4-1.768,12.193,1.874a7.023,7.023,0,0,1,.193,5.378,6.83,6.83,0,0,1-3.388,3.98l-7.507,3.546a1.817,1.817,0,0,0-.477,2.961c.1.1.2.2.3.3l.129.129a1.819,1.819,0,0,0,2.06.357l20.559-9.711a6.829,6.829,0,1,1,5.834,12.349l-20.438,9.654a1.818,1.818,0,0,0-1.03,1.85c.037.326.063.651.087.976a1.818,1.818,0,0,0,2.589,1.512l13.812-6.523a6.837,6.837,0,0,1,9.091,3.258,5.716,5.716,0,0,1,.091,4.971c-3.921,9.013-27.586,16.565-36.495,19.407a1.818,1.818,0,0,0,.552,3.55Z" transform="translate(-1579.795 -805.192)" fill="#090928"/>
      </g>
    </g>
    <path id="Path_460" data-name="Path 460" d="M4644-9392s442.217,141.627,1008.6,121.532c13.234-.47,26.634-1.032,40.1-1.688C6278.112-9300.687,6561.766-9392,6561.766-9392" transform="translate(-4644 12853.357)" fill="none" stroke="#2295d6" stroke-width="16"/>
    <path id="Path_6023" data-name="Path 6023" d="M-5.106,14.116S-.439,1.107-.574.31" transform="matrix(-0.921, 0.391, -0.391, -0.921, 1342.508, 3568.232)" fill="none" stroke="#3d3d3d" stroke-linecap="round" stroke-width="6"/>
    <path id="Path_6024" data-name="Path 6024" d="M0,13.63S.8,1.59.457,0" transform="matrix(-0.921, 0.391, -0.391, -0.921, 1523.473, 3545.076)" fill="none" stroke="#3d3d3d" stroke-linecap="round" stroke-width="6"/>
    <path id="Path_6025" data-name="Path 6025" d="M1.465,16.442S.711,1.067.575.182" transform="translate(1327.379 3569.322) rotate(-159)" fill="none" stroke="#3d3d3d" stroke-linecap="round" stroke-width="6"/>
    <path id="Path_6026" data-name="Path 6026" d="M.942,15.4S.34,1.437,0,0" transform="translate(1505.992 3548.886) rotate(-159)" fill="none" stroke="#3d3d3d" stroke-linecap="round" stroke-width="6"/>
    <path id="Path_6027" data-name="Path 6027" d="M-1.408-.9S.8,12.041.457,13.63" transform="matrix(0.921, 0.391, -0.391, 0.921, 874.184, 3578.83)" fill="none" stroke="#3d3d3d" stroke-linecap="round" stroke-width="6"/>
    <path id="Path_6028" data-name="Path 6028" d="M.942,0S.34,13.962,0,15.4" transform="translate(880.469 3576.934) rotate(-21)" fill="none" stroke="#3d3d3d" stroke-linecap="round" stroke-width="6"/>
    <path id="Path_6029" data-name="Path 6029" d="M0,0S1.052,13.1.916,13.9" transform="matrix(0.921, 0.391, -0.391, 0.921, 1053.32, 3574.164)" fill="none" stroke="#3d3d3d" stroke-linecap="round" stroke-width="6"/>
    <path id="Path_6030" data-name="Path 6030" d="M1.035,0S.136,12.938,0,13.822" transform="translate(1061.064 3574.418) rotate(-21)" fill="none" stroke="#3d3d3d" stroke-linecap="round" stroke-width="6"/>
    <path id="Path_6031" data-name="Path 6031" d="M0,0S.8,12.041.457,13.63" transform="matrix(0.921, 0.391, -0.391, 0.921, 405.541, 3541.529)" fill="none" stroke="#3d3d3d" stroke-linecap="round" stroke-width="6"/>
    <path id="Path_6032" data-name="Path 6032" d="M.942,0S.34,13.962,0,15.4" transform="translate(411.82 3542.396) rotate(-21)" fill="none" stroke="#3d3d3d" stroke-linecap="round" stroke-width="6"/>
    <path id="Path_6033" data-name="Path 6033" d="M0,0S1.052,13.1.916,13.9" transform="matrix(0.921, 0.391, -0.391, 0.921, 588.32, 3563.437)" fill="none" stroke="#3d3d3d" stroke-linecap="round" stroke-width="6"/>
    <path id="Path_6034" data-name="Path 6034" d="M1.035,0S.136,12.938,0,13.822" transform="translate(593.064 3564.418) rotate(-21)" fill="none" stroke="#3d3d3d" stroke-linecap="round" stroke-width="6"/>
  </g>
</svg>
