<svg xmlns="http://www.w3.org/2000/svg" width="310.223" height="221.403" viewBox="0 0 310.223 221.403">
  <g id="Group_3509" data-name="Group 3509" transform="translate(1783 15922.307)">
    <g id="Group_2810" data-name="Group 2810" transform="translate(-1783 -15922.307)">
      <path id="Path_4079" data-name="Path 4079" d="M127.462,117.039l89.1-68.082s79.894,47.577,85.064,56.093" transform="translate(-66.339 -45.025)" fill="none" stroke="#000" stroke-linecap="round" stroke-width="6"/>
      <g id="Group_2803" data-name="Group 2803" transform="translate(46.609 71.966)">
        <path id="Path_4068" data-name="Path 4068" d="M215.806,98.532l5.042,3.514c4.583,3.192,11.39,2.667,15.2-1.175l4.2-4.225c3.807-3.842,3.182-9.545-1.4-12.742L233.8,80.391c-4.583-3.192-11.39-2.667-15.2,1.175L214.4,85.8C210.592,89.638,211.218,95.341,215.806,98.532Zm6.62-14.915a6.511,6.511,0,0,1,8.052-.62,4.282,4.282,0,0,1,.741,6.746,6.5,6.5,0,0,1-8.052.62A4.282,4.282,0,0,1,222.426,83.617Z" transform="translate(-211.909 -78.302)" fill="#035aa7"/>
      </g>
      <g id="Group_2804" data-name="Group 2804" transform="translate(220.72 60.511)">
        <path id="Path_4069" data-name="Path 4069" d="M250.333,95.86l5.047,3.514c4.583,3.192,11.39,2.667,15.2-1.175l4.19-4.225c3.812-3.842,3.187-9.545-1.4-12.737l-5.042-3.514c-4.583-3.192-11.39-2.667-15.2,1.175l-4.2,4.225C245.124,86.966,245.749,92.669,250.333,95.86Zm6.626-14.91a6.5,6.5,0,0,1,8.052-.625,4.283,4.283,0,0,1,.741,6.746,6.505,6.505,0,0,1-8.052.625A4.283,4.283,0,0,1,256.958,80.951Z" transform="translate(-246.44 -75.635)" fill="#035aa7"/>
      </g>
      <g id="Group_2811" data-name="Group 2811" transform="translate(0 70.488)">
        <path id="Path_4070" data-name="Path 4070" d="M49.4,145.416l222.038-18.285c21.884-1.8,38.141-19.275,36.122-38.822l-5.768-55.892C299.772,12.869,280.218-1.655,258.33.152L36.292,18.437C14.408,20.239-1.85,37.707.17,57.259l5.768,55.887C7.952,132.7,27.512,147.217,49.4,145.416Z" transform="matrix(1, 0.017, -0.017, 1, 2.54, 0)" fill="#09091d"/>
      </g>
      <g id="Group_2809" data-name="Group 2809" transform="translate(6.783 87.493)" opacity="0.02">
        <path id="Path_4074" data-name="Path 4074" d="M345.956,80.986l-110.076,8.5c-19.216,1.487-33.49,15.873-31.721,31.973l5.415,49.187c1.77,16.1,18.944,28.06,38.159,26.577l112.774-8.713Z" transform="translate(-204.011 -80.986)" fill="#5932cb"/>
      </g>
      <g id="Group_2808" data-name="Group 2808" transform="translate(142.665 0)">
        <path id="Path_4073" data-name="Path 4073" d="M232.733,61.661a6.741,6.741,0,0,0,0,9.888,7.665,7.665,0,0,0,10.426,0,6.741,6.741,0,0,0,0-9.888A7.665,7.665,0,0,0,232.733,61.661Z" transform="translate(-230.574 -59.615)" fill="#7ca5af"/>
      </g>
    </g>
    <path id="Path_4080" data-name="Path 4080" d="M33.945,0l232.14.879C279.155,1.23,297.1,14.534,297.1,32.548l1.2,56.1a31.371,31.371,0,0,1-31.893,31.865L33.945,118.988C18.6,117.952,3.323,104.524,3.323,86.51L2,32.922C2,14.908,15.931,0,33.945,0Z" transform="matrix(0.998, -0.07, 0.07, 0.998, -1782.008, -15826.01)" fill="#035aa7"/>
    <path id="Path_4075" data-name="Path 4075" d="M1686.847-17421.336s.9,1.055,0,4.229" transform="translate(-3236.803 1559.516)" fill="none" stroke="#09091d" stroke-linecap="round" stroke-width="4"/>
    <path id="Path_4078" data-name="Path 4078" d="M1687.247-17421.336s-.9,1.055,0,4.229" transform="translate(-3407.255 1571.157)" fill="none" stroke="#09091d" stroke-linecap="round" stroke-width="4"/>
    <path id="Path_4076" data-name="Path 4076" d="M1686.847-17421.336s.9,1.055,0,4.229" transform="translate(-3232.849 1559.516)" fill="none" stroke="#09091d" stroke-linecap="round" stroke-width="4"/>
    <path id="Path_4077" data-name="Path 4077" d="M1687.247-17421.336s-.9,1.055,0,4.229" transform="translate(-3411.209 1571.157)" fill="none" stroke="#09091d" stroke-linecap="round" stroke-width="4"/>
    <text id="الباقات" transform="matrix(0.998, -0.07, 0.07, 0.998, -1636.558, -15752.533)" fill="#fff" font-size="100" font-family="Somar-Bold, Somar" font-weight="700"><tspan x="-97.633" y="0">الباقات</tspan></text>
  </g>
</svg>
