<svg xmlns="http://www.w3.org/2000/svg" width="1890.258" height="2011.156" viewBox="0 0 1890.258 2011.156">
  <g id="Group_5482" data-name="Group 5482" transform="translate(-4.743 -1179.416)">
    <path id="Subtraction_10" data-name="Subtraction 10" d="M4859.861,16806.061v0l-74.7-1775.2,1775.2-74.688,66.2,1573.313-6.112,14.846-129.186,165.725-85.667,27.275-21.839,4.613-1523.9,64.121Zm119.608-153.27c-.606,0-1.218.012-1.818.035a42.486,42.486,0,0,0,1.746,84.936c.639,0,1.254-.014,1.827-.039a42.484,42.484,0,0,0-1.754-84.932Zm-8.127-193.178c-.619,0-1.23.012-1.818.037a42.485,42.485,0,0,0,1.746,84.934c.639,0,1.254-.014,1.827-.039a42.484,42.484,0,0,0-1.754-84.932Zm-8.143-193.179c-.583,0-1.189.013-1.8.037a42.487,42.487,0,0,0,1.753,84.938c.6,0,1.215-.013,1.819-.038a42.487,42.487,0,0,0-1.769-84.937Zm-8.12-193.174c-.616,0-1.225.013-1.811.037a42.485,42.485,0,0,0,1.754,84.934c.6,0,1.215-.013,1.819-.038a42.485,42.485,0,0,0-1.753-84.933Zm-8.128-193.179c-.6,0-1.214.013-1.81.038a42.485,42.485,0,0,0,1.747,84.934h.016c.6,0,1.208-.013,1.81-.038a42.485,42.485,0,0,0-1.762-84.934Zm-8.138-193.177c-.614,0-1.221.013-1.8.037a42.487,42.487,0,0,0,1.757,84.938c.609,0,1.221-.013,1.819-.038a42.487,42.487,0,0,0-1.764-84.937Zm-8.128-193.179c-.6,0-1.21.013-1.8.038a42.487,42.487,0,0,0,1.758,84.938c.608,0,1.22-.013,1.819-.038a42.487,42.487,0,0,0-1.773-84.937Zm-8.116-193.174c-.6,0-1.209.013-1.811.038a42.485,42.485,0,0,0,1.755,84.934c.608,0,1.22-.013,1.817-.038a42.485,42.485,0,0,0-1.762-84.934Zm-8.125-193.174c-.605,0-1.217.013-1.818.038a42.484,42.484,0,0,0,1.744,84.931c.593,0,1.207-.013,1.825-.039a42.483,42.483,0,0,0-1.75-84.93Z" transform="translate(-4748.667 -13615.988)" fill="#cfd0d2" stroke="rgba(0,0,0,0)" stroke-miterlimit="10" stroke-width="1" style="mix-blend-mode: multiply;isolation: isolate"/>
    <path id="Subtraction_9" data-name="Subtraction 9" d="M4859.854,16806.055v0l-74.688-1775.2,1775.193-74.687,69.153,1643.442-106.377,136.465-1663.281,69.98Zm119.62-153.264c-.615,0-1.229.014-1.825.039a42.483,42.483,0,0,0,1.745,84.93c.633,0,1.247-.014,1.823-.039a42.483,42.483,0,0,0-1.727-84.93Zm-8.127-193.178c-.62,0-1.234.014-1.826.039a42.485,42.485,0,0,0,1.751,84.934c.589,0,1.2-.014,1.817-.039a42.485,42.485,0,0,0-1.727-84.934Zm-8.135-193.178c-.608,0-1.219.013-1.818.038a42.485,42.485,0,0,0,1.744,84.935c.593,0,1.207-.013,1.825-.039a42.485,42.485,0,0,0-1.75-84.934Zm-8.128-193.178c-.607,0-1.219.013-1.817.038a42.485,42.485,0,0,0,1.743,84.935c.593,0,1.207-.013,1.825-.039a42.485,42.485,0,0,0-1.75-84.934Zm-8.127-193.178c-.607,0-1.219.013-1.818.038a42.487,42.487,0,0,0,1.75,84.938c.6,0,1.217-.013,1.818-.038a42.487,42.487,0,0,0-1.75-84.937Zm-8.121-193.174c-.621,0-1.235.014-1.825.039a42.485,42.485,0,0,0,1.75,84.933c.6,0,1.216-.013,1.818-.038a42.485,42.485,0,0,0-1.743-84.934Zm-8.135-193.178c-.6,0-1.213.013-1.818.038a42.485,42.485,0,0,0,1.744,84.934c.608,0,1.222-.013,1.825-.038a42.485,42.485,0,0,0-1.75-84.934Zm-8.127-193.178c-.6,0-1.214.013-1.818.038a42.5,42.5,0,0,0-14.3,81.786,42.116,42.116,0,0,0,16.04,3.147c.608,0,1.222-.013,1.825-.038a42.485,42.485,0,0,0-1.75-84.934Zm-8.128-193.178c-.6,0-1.213.013-1.817.038a42.487,42.487,0,0,0,1.749,84.938c.6,0,1.217-.013,1.819-.038a42.487,42.487,0,0,0-1.75-84.937Z" transform="translate(-4779.904 -13645.385)" fill="#f6f6f6" stroke="rgba(0,0,0,0)" stroke-miterlimit="10" stroke-width="1"/>
    <path id="Path_4277" data-name="Path 4277" d="M1035.831,1708.042l-1.289,14.733c-1.006,4.6-1.672,11.679-4.688,19.554-6.7,17.5-16.821,32.74-42.943,59.816-21.733,22.542-33.617,34.887-53.866,49.928-13.438,9.977-28.635,21.105-47.4,30.528,0,0-13.526,5.811-13.572,5.855-1.713.664-27.763,10.592-74.132,15.082l-23.579,2.166,103.627-170.853C1025.922,1740.427,1035.07,1711.5,1035.831,1708.042Z" transform="matrix(0.996, -0.087, 0.087, 0.996, 697.019, 1294.914)" fill="#dbdbdb"/>
    <g id="Group_3073" data-name="Group 3073" transform="matrix(0.998, 0.07, -0.07, 0.998, 215.789, 1179.416)" opacity="0.8">
      <path id="Path_4274" data-name="Path 4274" d="M553.931,218.776q8.325,35.8,15.408,71.866c5.114,26.048,9.724,52.187,14.3,78.332l701.216-132.685a569.293,569.293,0,0,1-15.656-75.3c-1.456-10.592-2.675-21.456-7.4-31.041-1.838-3.731-4.234-7.364-4.622-11.507-.3-3.16.618-6.309.825-9.481.3-4.762-1.007-9.469-2.305-14.061-2.014-10.658-11.223-25.939-10.064-37.276L548.119,189.6C551.085,198.722,552.02,210.551,553.931,218.776Z" transform="translate(-548.119 -57.623)" fill="#2295d6" opacity="0.8"/>
      <path id="Path_4279" data-name="Path 4279" d="M-4417.8-14585.908l22.071,180.146,626.933-75.159-20.878-133.022" transform="translate(5462.599 14385.576) rotate(-4)" fill="none" stroke="#000" stroke-linecap="round" stroke-width="5"/>
      <text id="المدونة" transform="translate(202.479 224.498) rotate(-11)" font-size="150" font-family="Somar-Black, Somar" font-weight="800"><tspan x="0" y="0">المدونة</tspan></text>
    </g>
  </g>
</svg>
