<svg xmlns="http://www.w3.org/2000/svg" width="1355.628" height="1408.574" viewBox="0 0 1355.628 1408.574">
  <path id="Path_5960" data-name="Path 5960" d="M988.764,522.62c-67.38-21.028-124.866,13.53-169.8,61.652-38.341,41.058-71.071,112.092-138.371,99.022-43.868-8.518-77.1-60.736-57.289-100.792,8.9-18,25.852-30.568,37.454-46.954,22.12-31.248,21.65-76.7-1.113-107.485S593.561,383.51,557.2,395.506c-44.868,14.8-71.47,60.915-111.841,85.46-40.844,24.832-97.531,23.764-134.124-6.989s-46.3-90.841-17.116-128.7c28.8-37.364,79.218-43.447,113.9-72.537,32.658-27.4,50.531-71.938,46.8-114.291C441.346,5.758,251.128-34.08,136.334,28.173-53.711,131.234-22.792,392.6,93.521,538.495c58.773,73.718,132.313,134.836,210.722,186.643C384.958,778.469,468.1,828.768,555.977,869.5c75.177,34.843,155.9,68.181,239.951,69.893,106.261,2.162,206.412-60.989,257.224-153.17,36.171-65.62,47.566-162.612-4.121-223.734A128.072,128.072,0,0,0,988.764,522.62Z" transform="translate(542.047 1408.574) rotate(-120)" fill="#f6f6f6" opacity="0.9"/>
</svg>
