<svg xmlns="http://www.w3.org/2000/svg" width="431.924" height="308.259" viewBox="0 0 431.924 308.259">
  <g id="Group_3509" data-name="Group 3509" transform="translate(1783 15922.307)">
    <g id="Group_2810" data-name="Group 2810" transform="translate(-1783 -15922.307)">
      <path id="Path_4079" data-name="Path 4079" d="M127.462,143.747l124.052-94.79s111.236,66.241,118.435,78.1" transform="translate(-42.361 -43.482)" fill="none" stroke="#000" stroke-linecap="round" stroke-width="6"/>
      <g id="Group_2803" data-name="Group 2803" transform="translate(64.894 100.199)">
        <path id="Path_4068" data-name="Path 4068" d="M217.335,106.469l7.02,4.893c6.381,4.444,15.859,3.714,21.166-1.636l5.841-5.883c5.3-5.349,4.43-13.289-1.952-17.74l-7.027-4.893C236,76.766,226.524,77.5,221.217,82.846l-5.834,5.89C210.076,94.085,210.946,102.025,217.335,106.469ZM226.552,85.7a9.066,9.066,0,0,1,11.211-.863c3.377,2.352,3.84,6.557,1.032,9.393a9.056,9.056,0,0,1-11.211.864C224.207,92.744,223.744,88.539,226.552,85.7Z" transform="translate(-211.909 -78.302)" fill="#035aa7"/>
      </g>
      <g id="Group_2804" data-name="Group 2804" transform="translate(307.308 84.25)">
        <path id="Path_4069" data-name="Path 4069" d="M251.86,103.795l7.027,4.893c6.382,4.444,15.859,3.714,21.166-1.636l5.834-5.883c5.307-5.349,4.437-13.289-1.952-17.733l-7.02-4.893c-6.381-4.444-15.859-3.714-21.166,1.636l-5.841,5.883C244.608,91.411,245.479,99.351,251.86,103.795Zm9.225-20.759a9.057,9.057,0,0,1,11.211-.871c3.377,2.359,3.84,6.564,1.032,9.393a9.057,9.057,0,0,1-11.211.87C258.74,90.07,258.277,85.865,261.085,83.036Z" transform="translate(-246.44 -75.635)" fill="#035aa7"/>
      </g>
      <g id="Group_2811" data-name="Group 2811" transform="translate(0 98.14)">
        <path id="Path_4070" data-name="Path 4070" d="M68.78,202.462,377.923,177c30.469-2.509,53.1-26.836,50.293-54.052l-8.031-77.818C417.373,17.918,390.147-2.3,359.672.212L50.529,25.67C20.06,28.178-2.575,52.5.236,79.722l8.031,77.811C11.072,184.756,38.3,204.971,68.78,202.462Z" transform="matrix(1, 0.017, -0.017, 1, 3.537, 0)" fill="#09091d"/>
      </g>
      <g id="Group_2809" data-name="Group 2809" transform="translate(9.444 121.817)" opacity="0.02">
        <path id="Path_4074" data-name="Path 4074" d="M401.641,80.986,248.382,92.822c-26.754,2.071-46.628,22.1-44.164,44.515l7.54,68.483c2.464,22.423,26.375,39.068,53.129,37L421.9,230.693Z" transform="translate(-204.011 -80.986)" fill="#5932cb"/>
      </g>
      <g id="Group_2808" data-name="Group 2808" transform="translate(198.632 0)">
        <path id="Path_4073" data-name="Path 4073" d="M233.58,62.464a9.385,9.385,0,0,0,0,13.767,10.671,10.671,0,0,0,14.516,0,9.385,9.385,0,0,0,0-13.767A10.671,10.671,0,0,0,233.58,62.464Z" transform="translate(-230.574 -59.615)" fill="#7ca5af"/>
      </g>
    </g>
    <path id="Path_4080" data-name="Path 4080" d="M44.484,0,367.692,1.224c18.2.488,43.181,19.011,43.181,44.092l1.675,78.113c0,25.081-19.324,44.366-44.4,44.366L44.484,165.667c-21.361-1.442-42.635-20.138-42.635-45.219L0,45.837C0,20.756,19.4,0,44.484,0Z" transform="matrix(0.998, -0.07, 0.07, 0.998, -1778.848, -15788.427)" fill="#035aa7"/>
    <path id="Path_4075" data-name="Path 4075" d="M1686.847-17421.336s1.252,1.469,0,5.887" transform="translate(-3145.379 1583.244)" fill="none" stroke="#09091d" stroke-linecap="round" stroke-width="4"/>
    <path id="Path_4078" data-name="Path 4078" d="M1687.4-17421.336s-1.252,1.469,0,5.887" transform="translate(-3382.7 1599.453)" fill="none" stroke="#09091d" stroke-linecap="round" stroke-width="4"/>
    <path id="Path_4076" data-name="Path 4076" d="M1686.847-17421.336s1.252,1.469,0,5.887" transform="translate(-3139.875 1583.244)" fill="none" stroke="#09091d" stroke-linecap="round" stroke-width="4"/>
    <path id="Path_4077" data-name="Path 4077" d="M1687.4-17421.336s-1.252,1.469,0,5.887" transform="translate(-3388.205 1599.453)" fill="none" stroke="#09091d" stroke-linecap="round" stroke-width="4"/>
    <text id="سياسة_الخصوصية" data-name="سياسة
الخصوصية" transform="matrix(0.998, -0.07, 0.07, 0.998, -1575.839, -15738.724)" fill="#fff" font-size="80" font-family="Somar-Bold, Somar" font-weight="700"><tspan x="-81.973" y="0">سياسة</tspan><tspan y="0"></tspan><tspan x="-121.12" y="70">الخصوصية</tspan></text>
  </g>
</svg>
