<svg xmlns="http://www.w3.org/2000/svg" width="1534.98" height="1325.949" viewBox="0 0 1534.98 1325.949">
  <g id="Group_5485" data-name="Group 5485" transform="translate(7 -107.71)">
    <path id="Path_4944" data-name="Path 4944" d="M-3263.533-3180.083l-1529.382.259-5.6,1325.69s38.7-519.77,692.506-797.441S-3263.533-3180.083-3263.533-3180.083Z" transform="translate(4791.514 3287.793)" fill="#ecedee" opacity="0.3"/>
    <g id="Group_5486" data-name="Group 5486" transform="translate(-399.532 -678.191)" opacity="0.2">
      <g id="Group_3765" data-name="Group 3765" transform="translate(530.891 813.741)">
        <path id="Path_4993" data-name="Path 4993" d="M684.267,886.985l-15.628-3.009q-.393-2.631-1.026-5.239L680.44,870.1a6.636,6.636,0,0,0,1.8-9.21l-15.218-22.6a6.635,6.635,0,0,0-9.208-1.795L645.183,845a59.055,59.055,0,0,0-5.188-3.427l2.884-14.91a6.638,6.638,0,0,0-5.254-7.775l-25.991-5.025a6.634,6.634,0,0,0-7.772,5.254l-2.892,14.948a58.656,58.656,0,0,0-5.794,1.179l-8.505-12.629a6.635,6.635,0,0,0-9.208-1.8L555.5,835.608a6.635,6.635,0,0,0-1.8,9.208l8.487,12.6a58.317,58.317,0,0,0-3.979,6.127l-15-2.614a6.633,6.633,0,0,0-7.675,5.394L530.991,892.4a6.631,6.631,0,0,0,5.394,7.675l14.961,2.609q.42,2.474,1.051,4.923l-12.6,8.485A6.634,6.634,0,0,0,538,925.3l14.788,21.959A6.635,6.635,0,0,0,562,949.056l12.626-8.5a59.418,59.418,0,0,0,6.507,4.178l-2.653,15.742a6.635,6.635,0,0,0,5.315,7.621l26.383,4.967a6.634,6.634,0,0,0,7.769-5.414l2.775-16.476q1.963-.363,3.913-.863l9.562,14.2a6.633,6.633,0,0,0,9.207,1.8l21.959-14.788a6.633,6.633,0,0,0,1.8-9.208l-9.543-14.172q1.726-2.329,3.2-4.8l16.366,3.149a6.633,6.633,0,0,0,7.79-5.384l4.572-26.478A6.635,6.635,0,0,0,684.267,886.985ZM633.3,927.66a41.233,41.233,0,1,1,11.165-57.232A41.231,41.231,0,0,1,633.3,927.66Z" transform="translate(-530.891 -813.741)" fill="#8eb8ff"/>
      </g>
      <g id="Group_3768" data-name="Group 3768" transform="translate(539.884 822.599)">
        <g id="Group_3766" data-name="Group 3766" transform="translate(0)">
          <path id="Path_4994" data-name="Path 4994" d="M647.687,1009.844a7.664,7.664,0,0,1-1.419-.133l-26.383-4.968a7.607,7.607,0,0,1-6.062-8.7l2.543-15.093a60.327,60.327,0,0,1-5.5-3.532l-12.084,8.138a7.577,7.577,0,0,1-10.5-2.05l-14.789-21.959a7.568,7.568,0,0,1,2.05-10.5l12.054-8.118c-.306-1.239-.571-2.48-.792-3.707l-14.315-2.5a7.577,7.577,0,0,1-6.156-8.756l4.547-26.081a7.568,7.568,0,0,1,8.755-6.156l14.356,2.5a60.139,60.139,0,0,1,3.323-5.118l-8.118-12.054a7.577,7.577,0,0,1,2.049-10.5L613.2,855.774a7.567,7.567,0,0,1,10.5,2.05l8.139,12.083c1.518-.371,3.057-.683,4.592-.933l2.766-14.306a7.577,7.577,0,0,1,8.867-5.993l25.993,5.026a7.577,7.577,0,0,1,5.994,8.867L677.3,876.835c1.413.851,2.811,1.775,4.167,2.754l12.084-8.138a7.567,7.567,0,0,1,10.5,2.049l15.219,22.6a7.577,7.577,0,0,1-2.049,10.5l-12.291,8.278c.307,1.327.571,2.678.789,4.032l14.983,2.884a7.607,7.607,0,0,1,6.028,8.719l-4.57,26.477a7.568,7.568,0,0,1-8.888,6.144l-15.727-3.027c-.792,1.288-1.638,2.556-2.525,3.781l9.177,13.625a7.568,7.568,0,0,1-2.05,10.5l-21.959,14.789a7.568,7.568,0,0,1-10.5-2.049l-9.2-13.656c-.889.217-1.79.415-2.69.592l-2.668,15.834a7.573,7.573,0,0,1-7.444,6.313Zm-36.772-34.7.53.391a58.37,58.37,0,0,0,6.4,4.114l.579.32-2.763,16.394a5.73,5.73,0,0,0,4.566,6.548l26.383,4.967a5.7,5.7,0,0,0,6.675-4.654l2.885-17.12.643-.119c1.289-.238,2.585-.523,3.85-.847l.638-.163,9.931,14.746a5.707,5.707,0,0,0,7.911,1.544l21.959-14.789a5.7,5.7,0,0,0,1.544-7.911l-9.912-14.719.393-.531c1.124-1.516,2.185-3.1,3.155-4.723l.336-.561,17.007,3.273a5.7,5.7,0,0,0,6.694-4.627l4.571-26.477a5.729,5.729,0,0,0-4.539-6.566L704.074,920.5l-.1-.655c-.259-1.734-.6-3.468-1.009-5.156l-.154-.632,13.367-9a5.706,5.706,0,0,0,1.544-7.911l-15.219-22.6A5.7,5.7,0,0,0,694.595,873l-13.174,8.872-.53-.391a58.355,58.355,0,0,0-5.106-3.373l-.57-.334,3.01-15.561a5.7,5.7,0,0,0-4.514-6.678l-25.993-5.027a5.705,5.705,0,0,0-6.677,4.514l-3.016,15.6-.652.1a58.184,58.184,0,0,0-5.7,1.159l-.638.163-8.873-13.174a5.7,5.7,0,0,0-7.911-1.544l-21.959,14.789a5.707,5.707,0,0,0-1.544,7.911l8.854,13.146-.393.531a58.233,58.233,0,0,0-3.916,6.031l-.324.574-15.652-2.728a5.7,5.7,0,0,0-6.594,4.636l-4.547,26.081a5.706,5.706,0,0,0,4.636,6.593l15.612,2.722.11.652c.269,1.6.617,3.225,1.035,4.844l.165.639L576.584,952.6a5.7,5.7,0,0,0-1.544,7.911l14.789,21.959a5.707,5.707,0,0,0,7.911,1.544Z" transform="translate(-566.218 -848.536)" fill="#c4ddff"/>
        </g>
        <g id="Group_3767" data-name="Group 3767" transform="translate(38.486 46.032)">
          <path id="Path_4995" data-name="Path 4995" d="M759.315,1106.16a42.588,42.588,0,0,1-8.163-.793A42.2,42.2,0,0,1,717.4,1069.4l1.854-.239a40.328,40.328,0,0,0,32.256,34.376,40.69,40.69,0,0,0,7.8.758,40.32,40.32,0,0,0,22.939-73.4l1.067-1.535a42.186,42.186,0,0,1-24,76.8Z" transform="translate(-717.401 -1029.359)" fill="#c4ddff"/>
        </g>
      </g>
    </g>
    <g id="Group_5487" data-name="Group 5487" transform="matrix(0.875, -0.485, 0.485, 0.875, -1030.499, 489.775)" opacity="0.2">
      <path id="Path_4996" data-name="Path 4996" d="M1551.232,639.943l-5.917-35.758a8.825,8.825,0,0,0-10.147-7.266l-19.981,3.306a78.568,78.568,0,0,0-4.382-7.015l11.735-16.448a8.825,8.825,0,0,0-2.058-12.309L1491.813,544a8.825,8.825,0,0,0-12.309,2.058l-11.765,16.489a78.423,78.423,0,0,0-7.662-1.779l-3.306-19.981a8.825,8.825,0,0,0-10.147-7.266l-34.747,5.75a8.825,8.825,0,0,0-7.266,10.147l3.3,19.935a78.523,78.523,0,0,0-8.2,5.214L1383,563.1a8.824,8.824,0,0,0-12.269,2.284l-19.926,29.041a8.826,8.826,0,0,0,2.284,12.27l16.659,11.43q-.863,3.223-1.45,6.537l-19.935,3.3a8.825,8.825,0,0,0-7.266,10.147l5.75,34.747A8.825,8.825,0,0,0,1357,680.125l19.981-3.306a78.5,78.5,0,0,0,5.561,8.655l-11.915,17.579a8.825,8.825,0,0,0,2.215,12.16l29.174,20.6a8.825,8.825,0,0,0,12.4-2.258l12.47-18.4q2.577.647,5.209,1.122l3.718,22.469a8.825,8.825,0,0,0,10.147,7.266l34.747-5.75a8.825,8.825,0,0,0,7.266-10.147l-3.71-22.423q3.377-1.864,6.532-4.034l18.059,12.861a8.825,8.825,0,0,0,12.4-2.208l20.172-29.508a8.825,8.825,0,0,0-2.166-12.169l-17.246-12.282q.981-3.4,1.657-6.905l20.3-3.359A8.825,8.825,0,0,0,1551.232,639.943Z" transform="translate(0 -66.475)" fill="#c4ddff"/>
      <g id="Group_3770" data-name="Group 3770" transform="translate(1373.864 439.724)">
        <path id="Path_4997" data-name="Path 4997" d="M1530.666,654.592a9.9,9.9,0,0,1-9.737-8.278l-3.6-21.731c-1.274-.242-2.551-.517-3.814-.821l-12.054,17.785a9.891,9.891,0,0,1-13.892,2.53l-29.174-20.6a9.943,9.943,0,0,1-2.482-13.629l11.915-17.579,1.764,1.2-11.915,17.579a7.8,7.8,0,0,0,1.947,10.692l29.174,20.6a7.759,7.759,0,0,0,10.9-1.985l12.888-19.016.724.181c1.694.425,3.422.8,5.138,1.107l.74.133,3.841,23.21a7.759,7.759,0,0,0,8.922,6.389l34.747-5.75a7.759,7.759,0,0,0,6.388-8.922l-3.834-23.166.66-.364c2.206-1.218,4.373-2.556,6.443-3.979l.615-.423,18.666,13.294a7.76,7.76,0,0,0,10.906-1.941l20.172-29.508a7.8,7.8,0,0,0-1.9-10.7l-17.861-12.72.209-.725c.646-2.241,1.2-4.533,1.635-6.812l.141-.729,21.03-3.48a7.768,7.768,0,0,0,6.389-8.922l-5.917-35.758a7.759,7.759,0,0,0-8.922-6.388l-20.723,3.429-.365-.658a77.672,77.672,0,0,0-4.322-6.92l-.432-.617,12.173-17.061a7.758,7.758,0,0,0-1.809-10.823l-28.67-20.456a7.768,7.768,0,0,0-10.823,1.81l-12.2,17.1-.723-.207c-2.473-.707-5.016-1.3-7.558-1.755l-.74-.133-3.429-20.723a7.769,7.769,0,0,0-8.922-6.388l-52.477,7.991-.321-2.107,52.463-7.989A9.9,9.9,0,0,1,1544,448l3.184,19.243c2.117.4,4.23.892,6.3,1.462l11.33-15.879a9.9,9.9,0,0,1,13.8-2.307l28.67,20.456a9.89,9.89,0,0,1,2.307,13.8l-11.3,15.837c1.286,1.873,2.508,3.829,3.643,5.833l19.244-3.184a9.891,9.891,0,0,1,11.373,8.143l5.917,35.758a9.9,9.9,0,0,1-8.143,11.373l-19.57,3.239c-.375,1.853-.821,3.712-1.33,5.542l16.634,11.846a9.941,9.941,0,0,1,2.428,13.638L1608.3,622.307a9.89,9.89,0,0,1-13.9,2.475l-17.455-12.431c-1.731,1.166-3.523,2.272-5.344,3.3l3.588,21.683a9.89,9.89,0,0,1-8.143,11.373l-34.747,5.75A10.031,10.031,0,0,1,1530.666,654.592Z" transform="translate(-1454.23 -439.724)" fill="#2872ff"/>
      </g>
      <path id="Path_4998" data-name="Path 4998" d="M1602.92,809.219a54.43,54.43,0,0,1-16.519,8.647,55.27,55.27,0,0,1-24.7,2.079,54.857,54.857,0,1,1,41.223-10.726Z" transform="translate(-123.293 -192.357)" fill="#fff"/>
    </g>
  </g>
</svg>
