<svg xmlns="http://www.w3.org/2000/svg" xmlns:xlink="http://www.w3.org/1999/xlink" width="105.665" height="103.775" viewBox="0 0 105.665 103.775">
  <defs>
    <filter id="Path_4987" x="0" y="0" width="105.665" height="103.775" filterUnits="userSpaceOnUse">
      <feOffset input="SourceAlpha"/>
      <feGaussianBlur stdDeviation="4.5" result="blur"/>
      <feFlood flood-opacity="0.161"/>
      <feComposite operator="in" in2="blur"/>
      <feComposite in="SourceGraphic"/>
    </filter>
  </defs>
  <g id="Group_3781" data-name="Group 3781" transform="translate(-2784.271 10769.5)">
    <g transform="matrix(1, 0, 0, 1, 2784.27, -10769.5)" filter="url(#Path_4987)">
      <path id="Path_4987-2" data-name="Path 4987" d="M66.69,26.1A31.225,31.225,0,0,1,61.4,51.627,32.033,32.033,0,0,1,56.436,57a32.83,32.83,0,0,1-9.287,5.628c-.771.309-1.563.593-2.369.847-.227.073-.456.142-.686.21q-1.221.358-2.492.629a2.087,2.087,0,0,1-.234.049l-.008,0c-.125.03-.254.056-.379.08q-1.464.286-2.92.444-.481.051-.963.088a34.717,34.717,0,0,1-13.181-1.463l-.009,0q-1.429-.441-2.808-1.006A33.6,33.6,0,0,1,.794,38.994C-3.207,21.379,8.3,4.212,26.5.651S62.689,8.485,66.69,26.1Z" transform="translate(25.92 13.5) rotate(11)" fill="#fff"/>
    </g>
    <g id="Group_3763" data-name="Group 3763" transform="translate(2828.05 -10735.827) rotate(11)">
      <g id="Group_3757" data-name="Group 3757" transform="translate(0 0)">
        <path id="Path_4988" data-name="Path 4988" d="M.6,6.629a3.271,3.271,0,0,1-.223-.375C-.64,4.251.544,2.014,2.317.892A6.447,6.447,0,0,1,8.8.859a4.286,4.286,0,0,1,1.743,2.463,3.239,3.239,0,0,0,.613,1.429,2.826,2.826,0,0,0,2.339.467,8.246,8.246,0,0,1,6.19,2.017A4.981,4.981,0,0,1,21.4,12.351,2.369,2.369,0,0,1,20.352,13.7a3.577,3.577,0,0,1-3.171-.339c-1.346-.7-1.684-1.99-2.6-3.039a3.95,3.95,0,0,0-3.712-1.113,5.81,5.81,0,0,0-3.111,1.662,5.636,5.636,0,0,0-.46.536c-.087.2-.181.423-.283.655s-.21.476-.326.723c-.129.191-.249.4-.367.618A3.907,3.907,0,0,1,4.137,15.8c-1.2.489-2.385-.781-2.5-1.859-.14-1.33,1.03-2.367,1.268-3.614a2.2,2.2,0,0,0,.018-.752,3.038,3.038,0,0,0-.41-.79,5.908,5.908,0,0,0-.588-.7A11.989,11.989,0,0,1,.6,6.629Z" fill="#090928"/>
      </g>
      <g id="Group_3758" data-name="Group 3758" transform="translate(4.425 29.18)">
        <path id="Path_4989" data-name="Path 4989" d="M26.249,6.715a26.479,26.479,0,0,1-7.5,4.543c-.623.248-1.257.477-1.906.682-.183.058-.368.114-.553.17q-.986.289-2.011.508a1.716,1.716,0,0,1-.189.039h-.006c-.1.025-.205.045-.306.065q-1.181.231-2.357.358c-.262.028-.523.052-.785.073A28.025,28.025,0,0,1,0,11.972a0,0,0,0,1,0,0A19.343,19.343,0,0,1,2.137,6.478a13.181,13.181,0,0,1,2.7-3.252h0A13.24,13.24,0,0,1,11.1.281a13.711,13.711,0,0,1,7.084.41,14.813,14.813,0,0,1,4,2.08A20.6,20.6,0,0,1,26.249,6.715Z" transform="translate(0 0)" fill="#090928"/>
      </g>
      <g id="Group_3759" data-name="Group 3759" transform="translate(9.085 26.036)">
        <path id="Path_4990" data-name="Path 4990" d="M0,2.327,11.893,0l2.725,6.408L.294,9.211Z" transform="translate(0 0)" fill="#090928"/>
      </g>
      <g id="Group_3761" data-name="Group 3761" transform="translate(2.885 8.581)">
        <g id="Group_3760" data-name="Group 3760" transform="translate(0 0)">
          <path id="Path_4991" data-name="Path 4991" d="M16.2,2.266a4.215,4.215,0,0,0-.529-.16A9.7,9.7,0,0,1,12.9.964,6.819,6.819,0,0,0,8.1.127,7.454,7.454,0,0,0,4.284,2.409a14.684,14.684,0,0,1-2.63,2.33,3.9,3.9,0,0,0-.67.521,3.18,3.18,0,0,0-.1,4.507A3.415,3.415,0,0,0,4.7,10.6a6.818,6.818,0,0,0,6.228,1.973,6.358,6.358,0,0,0,4.816-4.068A3.18,3.18,0,0,0,18.29,6.325,3.3,3.3,0,0,0,16.2,2.266Z" fill="#035aa7"/>
        </g>
      </g>
      <g id="Group_3762" data-name="Group 3762" transform="translate(6.492 16.039)">
        <path id="Path_4992" data-name="Path 4992" d="M11.457.206l-.081.053a3.172,3.172,0,0,1-3.225.1,2.968,2.968,0,0,0-1.979-.3A2.806,2.806,0,0,0,4.448,1.129a3.015,3.015,0,0,1-2.992,1.1l-.048-.009a1.144,1.144,0,0,0-1.2,1.76,7.425,7.425,0,0,0,7.542,3.07h0a6.891,6.891,0,0,0,5.579-5.722A1.206,1.206,0,0,0,11.457.206Z" transform="translate(0 0)" fill="#090928"/>
      </g>
    </g>
  </g>
</svg>
