<svg xmlns="http://www.w3.org/2000/svg" width="36.305" height="43.972" viewBox="0 0 36.305 43.972">
  <path id="Path_4943" data-name="Path 4943" d="M1128.5,1399.188l-2.633,0a.387.387,0,0,1-.05.007,1.37,1.37,0,0,0-1.13.6l-1.787,2.706a.782.782,0,0,0-.05.068,3.131,3.131,0,0,1-.413.509,3.176,3.176,0,0,1-4.986-.632c-.03-.046-.05-.076-.076-.112l-2.2-3.811.01,0a1.36,1.36,0,0,1-.195-.7,1.369,1.369,0,0,1,2.563-.676h0l1.93,3.343a1.02,1.02,0,0,0,1.709-.124l1.237-2.232a3.432,3.432,0,0,1,2.953-1.686l.046,0,3.247,0a.685.685,0,0,0,.659-.683.676.676,0,0,0-.084-.334s.006,0,.006,0l-2.25-3.9.011-.007a1.3,1.3,0,0,1,2.2-1.38l0,0,0,.012a.045.045,0,0,1,.009.013l2.189,3.859c.007.014.007.023.016.039a3.434,3.434,0,0,1-2.946,5.133Zm-11.276-27.536a1.374,1.374,0,0,1,2.346-.971l.006-.006a8.25,8.25,0,1,1-5.833-2.416,1.375,1.375,0,0,1,0,2.75,5.507,5.507,0,1,0,3.927,1.654,1.369,1.369,0,0,1-.446-1.01Zm-18.6,7.605a1.375,1.375,0,1,1-1.375,1.375,1.376,1.376,0,0,1,1.375-1.375Zm31.121-.912a6.255,6.255,0,0,1-3.386,8.175l-.892.369a3.7,3.7,0,0,1-.351.168,1.556,1.556,0,0,0-.845.848c0,.007-.009,0-.014.012l-.5,1.2a6.258,6.258,0,0,1-8.176,3.386l-.859-.357a3.065,3.065,0,0,1-.391-.135,1.554,1.554,0,0,0-1.2,0c-.016.006-.025,0-.041,0l-1.187.492a6.258,6.258,0,0,1-8.176-3.386l-.241-.582a.688.688,0,0,0-1.246-.06s0,0-.007,0l-4.01,6.946s.011,0,.006,0a.678.678,0,0,0-.084.334.685.685,0,0,0,.659.683l3.247,0,.046,0a3.429,3.429,0,0,1,2.953,1.686l1.237,2.232a1.021,1.021,0,0,0,1.709.124l3.108-5.383.011.007a1.37,1.37,0,0,1,2.58.646,1.352,1.352,0,0,1-.169.648h0l-.025.044a.872.872,0,0,1-.05.087l-3.345,5.8c-.026.036-.046.066-.073.112a3.3,3.3,0,0,1-.491.632,3.184,3.184,0,0,1-4.5,0,3.131,3.131,0,0,1-.413-.509c-.018-.03-.034-.045-.05-.068l-1.787-2.706a1.37,1.37,0,0,0-1.13-.6.379.379,0,0,1-.05-.007l-2.633,0a3.435,3.435,0,0,1-2.946-5.133c.009-.016.009-.025.016-.039l3.9-6.871s.009,0,.009-.01a3.433,3.433,0,0,1,6.093.294l.348.841a3.224,3.224,0,0,0,4.212,1.744l1.443-.6a.574.574,0,0,0,.137-.034,4.006,4.006,0,0,1,3.082,0,1.228,1.228,0,0,0,.229.068l1.364.564a3.224,3.224,0,0,0,4.212-1.744l.619-1.5a.553.553,0,0,0,.041-.069,4.022,4.022,0,0,1,2.179-2.179,1.05,1.05,0,0,0,.178-.1l1.405-.58a3.225,3.225,0,0,0,1.743-4.212l-.643-1.556s0-.012,0-.019a4.008,4.008,0,0,1,0-3.082c.016-.041.022-.075.034-.114l.614-1.485a3.226,3.226,0,0,0-1.743-4.212l-1.59-.657a4.012,4.012,0,0,1-2.17-2.175c-.007-.013-.014-.021-.018-.032l-.644-1.558a3.226,3.226,0,0,0-4.212-1.744l-1.571.651a.108.108,0,0,1-.019,0,4.013,4.013,0,0,1-3.082,0h0l-1.583-.656a3.226,3.226,0,0,0-4.212,1.744l-.627,1.519a.646.646,0,0,0-.041.069,4.006,4.006,0,0,1-2.181,2.179l-.027.017-1.545.639a3.226,3.226,0,0,0-1.743,4.212l.47,1.136-.01,0a1.393,1.393,0,1,1-2.556,1.1l-.4-.956a6.258,6.258,0,0,1,3.386-8.175l1.148-.475c.03-.013.05-.025.085-.039a1.559,1.559,0,0,0,.845-.848c0-.007.009,0,.013-.012l.507-1.226a6.258,6.258,0,0,1,8.176-3.386l1.239.513h0a1.553,1.553,0,0,0,1.18.006l1.253-.52a6.258,6.258,0,0,1,8.176,3.386l.482,1.162c.014.03.025.052.039.087a1.557,1.557,0,0,0,.8.82l1.279.53a6.255,6.255,0,0,1,3.386,8.175l-.4.958c-.03.089-.063.188-.112.3a1.566,1.566,0,0,0,0,1.18l.513,1.237Z" transform="translate(-1095.593 -1360.032)" fill="#035aa7" fill-rule="evenodd"/>
</svg>
