<svg xmlns="http://www.w3.org/2000/svg" width="19.402" height="29.114" viewBox="0 0 19.402 29.114">
  <path id="Path_4946" data-name="Path 4946" d="M1297.2,357.183l-4.994,4.988a4.692,4.692,0,0,1-3.08,1.367,1.547,1.547,0,0,1-.259.02,2.425,2.425,0,0,1-2.425-2.425V359.92a1.214,1.214,0,0,0-1.213-1.213h-9.7a1.213,1.213,0,0,1,0-2.425h10.308a3.033,3.033,0,0,1,3.031,3.032v.588a.9.9,0,0,0,1.505.681c.05-.042.1-.076.152-.123l4.946-4.946a2.332,2.332,0,0,0,0-3.3l-4.946-4.946a2.482,2.482,0,0,0-.247-.2.9.9,0,0,0-.5-.168.911.911,0,0,0-.91.909v.588a3.033,3.033,0,0,1-3.031,3.032H1273.1a1.214,1.214,0,0,0-1.213,1.213v1.213c0,1.34-2.425,2.425-2.425,2.425v-4.244a3.033,3.033,0,0,1,3.032-3.032h12.733a1.213,1.213,0,0,0,1.213-1.213V346.58a2.425,2.425,0,0,1,2.425-2.425,1.547,1.547,0,0,1,.259.02,4.7,4.7,0,0,1,3.08,1.367l4.994,4.988a4.7,4.7,0,0,1,0,6.653Z" transform="translate(-344.155 1298.576) rotate(-90)" fill="#1cd83c" fill-rule="evenodd"/>
</svg>
