<svg xmlns="http://www.w3.org/2000/svg" width="38.495" height="43.995" viewBox="0 0 38.495 43.995">
  <path id="Path_4937" data-name="Path 4937" d="M827,175.123a1.375,1.375,0,1,1-1.375-1.375A1.375,1.375,0,0,1,827,175.123Zm0,23.372H803.624a4.124,4.124,0,0,1-4.124-4.124V165.5A5.5,5.5,0,0,1,805,160H815.31a3.438,3.438,0,0,1,3.437,3.437h0V171a2.749,2.749,0,0,0,2.75,2.75,1.375,1.375,0,0,1,0,2.75A5.5,5.5,0,0,1,816,171v-6.874a1.376,1.376,0,0,0-1.375-1.375H805a2.749,2.749,0,0,0-2.75,2.75v28.184a2.063,2.063,0,0,0,2.062,2.062H827a2.749,2.749,0,0,0,2.75-2.75V175.455a2.74,2.74,0,0,0-.8-1.943l-7.628-7.625a1.376,1.376,0,0,1,1.946-1.946l7.625,7.626a5.487,5.487,0,0,1,1.611,3.888V193a5.5,5.5,0,0,1-5.5,5.5Zm-5.5,2.75a1.375,1.375,0,0,1,0,2.75H800.874A6.874,6.874,0,0,1,794,197.12V176.5a1.375,1.375,0,1,1,2.75,0V197.12a4.124,4.124,0,0,0,4.125,4.125Zm-26.122-28.871A1.375,1.375,0,1,1,796.75,171a1.375,1.375,0,0,1-1.375,1.375Z" transform="translate(-794 -160)" fill="#035aa7" fill-rule="evenodd"/>
</svg>
