<svg xmlns="http://www.w3.org/2000/svg" width="280" height="709.893" viewBox="0 0 280 709.893">
  <g id="Group_5484" data-name="Group 5484" transform="translate(-79 -3362.805)">
    <g id="Group_5249" data-name="Group 5249" transform="translate(-1170 1983.028)">
      <g id="Group_432" data-name="Group 432" transform="translate(1249 1525.268)">
        <g id="Group_431" data-name="Group 431">
          <path id="Path_341" data-name="Path 341" d="M800.811,260.752c-1.248-.059-2.561-.117-3.809-.117H628.569c-1.215,0-2.462.059-3.677.117-28.992,1.759-51.942,23.277-52.008,49.6V469.1h.729V710.634H797c30.863,0,55.882-22.339,55.882-49.9V310.472C852.884,284.088,829.9,262.511,800.811,260.752Z" transform="translate(-572.884 -260.635)" fill="#035aa7"/>
        </g>
        <g id="Group_428" data-name="Group 428" transform="translate(67.318 11.719)">
          <g id="Group_417" data-name="Group 417" transform="translate(150.753 0)">
            <ellipse id="Ellipse_27" data-name="Ellipse 27" cx="11.05" cy="11.05" rx="11.05" ry="11.05" fill="#fff"/>
          </g>
          <g id="Group_418" data-name="Group 418" transform="translate(-20)">
            <path id="Path_459" data-name="Path 459" d="M427.451,378.609A11.049,11.049,0,1,0,438.5,367.558,11.05,11.05,0,0,0,427.451,378.609Z" transform="translate(-427.451 -367.558)" fill="#fff"/>
          </g>
        </g>
      </g>
      <g id="Group_430" data-name="Group 430" transform="translate(1297.381 1525.267)">
        <path id="Path_461" data-name="Path 461" d="M990.115,257.32s-6.643-4.955,1.715-15.042" transform="translate(-987.612 -242.278)" fill="none" stroke="#3d3d3d" stroke-linecap="round" stroke-miterlimit="10" stroke-width="6"/>
        <path id="Path_462" data-name="Path 462" d="M990.133,256.894c-2.917-2.127-6.193-7.282-2.693-14.769" transform="translate(-977.987 -241.831)" fill="none" stroke="#3d3d3d" stroke-linecap="round" stroke-miterlimit="10" stroke-width="6"/>
      </g>
      <g id="Group_429" data-name="Group 429" transform="translate(1472.923 1525.268)">
        <path id="Path_461-2" data-name="Path 461" d="M989.326,257.321s6.642-4.956-1.715-15.042" transform="translate(-978.499 -242.278)" fill="none" stroke="#3d3d3d" stroke-linecap="round" stroke-miterlimit="10" stroke-width="6"/>
        <path id="Path_462-2" data-name="Path 462" d="M985.926,256.894c2.917-2.127,6.193-7.283,2.692-14.769" transform="translate(-985.926 -241.831)" fill="none" stroke="#3d3d3d" stroke-linecap="round" stroke-miterlimit="10" stroke-width="6"/>
      </g>
    </g>
    <path id="Path_5847" data-name="Path 5847" d="M5230.479-9285.491l-.061,6.53s-.389,99.569,4.578,100.962" transform="translate(-5099.651 12686.295)" fill="none" stroke="#3d3d3d" stroke-linecap="round" stroke-width="8"/>
    <path id="Path_5855" data-name="Path 5855" d="M5230.479-9285.491l-.061,6.53s-.389,99.569,4.578,100.962" transform="translate(-5099.651 13245.765)" fill="none" stroke="#3d3d3d" stroke-linecap="round" stroke-width="8"/>
    <path id="Path_5846" data-name="Path 5846" d="M5239.82-9305.4v4.708s2.877,41.929,1.553,101.385" transform="translate(-4932.741 12707.48)" fill="none" stroke="#3d3d3d" stroke-linecap="round" stroke-width="8"/>
    <path id="Path_5856" data-name="Path 5856" d="M5239.82-9305.4v4.708s2.877,41.929,1.553,101.385" transform="translate(-4932.741 13266.95)" fill="none" stroke="#3d3d3d" stroke-linecap="round" stroke-width="8"/>
    <g id="Group_432-2" data-name="Group 432" transform="translate(118.498 3362.805)">
      <g id="Group_428-2" data-name="Group 428" transform="translate(0 0)">
        <g id="Group_417-2" data-name="Group 417" transform="translate(176.029 0.001)">
          <ellipse id="Ellipse_27-2" data-name="Ellipse 27" cx="12.488" cy="12.488" rx="12.488" ry="12.488" fill="#fff"/>
        </g>
        <g id="Group_418-2" data-name="Group 418">
          <path id="Path_459-2" data-name="Path 459" d="M427.451,380.047a12.488,12.488,0,1,1,12.486,12.489A12.488,12.488,0,0,1,427.451,380.047Z" transform="translate(-427.451 -367.558)" fill="#fff"/>
        </g>
      </g>
    </g>
    <g id="Group_5250" data-name="Group 5250" transform="translate(118.498 3922.978)">
      <g id="Group_428-3" data-name="Group 428" transform="translate(0 0)">
        <g id="Group_417-3" data-name="Group 417" transform="translate(176.029 0.001)">
          <ellipse id="Ellipse_27-3" data-name="Ellipse 27" cx="12.488" cy="12.488" rx="12.488" ry="12.488" fill="#fff"/>
        </g>
        <g id="Group_418-3" data-name="Group 418">
          <path id="Path_459-3" data-name="Path 459" d="M427.451,380.047a12.488,12.488,0,1,1,12.486,12.489A12.488,12.488,0,0,1,427.451,380.047Z" transform="translate(-427.451 -367.558)" fill="#fff"/>
        </g>
      </g>
    </g>
    <g id="Group_430-2" data-name="Group 430" transform="translate(122.504 3383.709)">
      <path id="Path_461-3" data-name="Path 461" d="M990.441,242.278s-7.507,5.6,1.938,17" transform="translate(-987.612 -242.254)" fill="none" stroke="#3d3d3d" stroke-linecap="round" stroke-miterlimit="10" stroke-width="6"/>
      <path id="Path_462-3" data-name="Path 462" d="M990.68,242.125c-3.3,2.4-7,8.23-3.043,16.691" transform="translate(-976.953 -242.125)" fill="none" stroke="#3d3d3d" stroke-linecap="round" stroke-miterlimit="10" stroke-width="6"/>
    </g>
    <g id="Group_5251" data-name="Group 5251" transform="translate(122.504 3943.882)">
      <path id="Path_461-4" data-name="Path 461" d="M990.441,242.278s-7.507,5.6,1.938,17" transform="translate(-987.612 -242.254)" fill="none" stroke="#3d3d3d" stroke-linecap="round" stroke-miterlimit="10" stroke-width="6"/>
      <path id="Path_462-4" data-name="Path 462" d="M990.68,242.125c-3.3,2.4-7,8.23-3.043,16.691" transform="translate(-976.953 -242.125)" fill="none" stroke="#3d3d3d" stroke-linecap="round" stroke-miterlimit="10" stroke-width="6"/>
    </g>
    <g id="Group_429-2" data-name="Group 429" transform="translate(300.46 3383.707)">
      <path id="Path_461-5" data-name="Path 461" d="M990.036,242.278s9.39,5.352-2.424,16.244" transform="translate(-978.508 -242.254)" fill="none" stroke="#3d3d3d" stroke-linecap="round" stroke-miterlimit="10" stroke-width="6"/>
      <path id="Path_462-5" data-name="Path 462" d="M985.926,242.125c3.3,2.3,7,7.858,3.043,15.936" transform="translate(-985.926 -242.125)" fill="none" stroke="#3d3d3d" stroke-linecap="round" stroke-miterlimit="10" stroke-width="6"/>
    </g>
    <g id="Group_5252" data-name="Group 5252" transform="translate(300.46 3943.88)">
      <path id="Path_461-6" data-name="Path 461" d="M989.55,242.278s7.507,5.6-1.938,17" transform="translate(-977.313 -242.254)" fill="none" stroke="#3d3d3d" stroke-linecap="round" stroke-miterlimit="10" stroke-width="6"/>
      <path id="Path_462-6" data-name="Path 462" d="M985.926,242.125c3.3,2.4,7,8.231,3.043,16.692" transform="translate(-985.926 -242.125)" fill="none" stroke="#3d3d3d" stroke-linecap="round" stroke-miterlimit="10" stroke-width="6"/>
    </g>
  </g>
</svg>
