<svg xmlns="http://www.w3.org/2000/svg" width="1061.163" height="4342.996" viewBox="0 0 1061.163 4342.996">
  <g id="Group_170" data-name="Group 170" transform="translate(0 4342.996) rotate(-90)" opacity="0.4">
    <g id="Group_169" data-name="Group 169" transform="translate(0)">
      <path id="Path_192" data-name="Path 192" d="M344.743,974.175C527.372,914.71,667.535,787.388,800.067,646.134c127.566-135.957,253.941-279.179,420.023-361.891,342.378-170.515,744.636-84.046,1079.989,62.15,374.727,163.355,726.75,409.178,1131.978,480.887,198.72,35.164,411.343,18.277,584.415-99.861,143.385-97.883,221.11-252.91,253.494-427.165,18.4-98.984,24.7-199.563,29.669-300.253H4343c-1.376,28.544-2.838,57.041-4.7,85.407-10.784,164.874-31.858,336.191-113.279,480.439-92.465,163.839-256.358,267.868-429.808,305.681-211.667,46.149-431.182,2.163-633.275-69.331-194.717-68.883-379.081-166.068-563.574-260.632C2246.217,361.08,1855.933,177.9,1455.348,254.03c-93.7,17.8-184.705,50.569-267.729,100.374-81.946,49.152-154.081,113.708-222.047,182.451C832.6,671.367,712.209,824.23,553.4,926.031,389.224,1031.272,191.371,1077.589.85,1055.964c-.289-.028-.569-.084-.85-.112v-47.259A807.906,807.906,0,0,0,344.743,974.175Z" transform="translate(0 0)" fill="#f5f2f6"/>
    </g>
  </g>
</svg>
