<svg id="shopping" xmlns="http://www.w3.org/2000/svg" width="41.544" height="35.607" viewBox="0 0 41.544 35.607">
  <g id="Group_2721" data-name="Group 2721" transform="translate(0 0)">
    <path id="Path_3795" data-name="Path 3795" d="M-21.187,24.586a4.307,4.307,0,0,0-4.507-1.679L-35.1,25.148a4.069,4.069,0,0,1-1.714.039l-4.541-.865a1,1,0,0,1-.856-.942,1.028,1.028,0,0,1,1.08-.961h1.325a3.769,3.769,0,0,0,3.816-3.709A3.769,3.769,0,0,0-39.806,15h-4.234a9.237,9.237,0,0,0-2.806.435L-53.2,17.455a1.472,1.472,0,0,0-1.38-.972h-5.935A1.483,1.483,0,0,0-62,17.967v16.32a1.483,1.483,0,0,0,1.484,1.484h5.935a1.468,1.468,0,0,0,1.451-1.322l8.463.9a21.755,21.755,0,0,0,2.279.12,21.245,21.245,0,0,0,6-.865,1.482,1.482,0,0,0,1.006-1.841,1.481,1.481,0,0,0-1.841-1.006,18.264,18.264,0,0,1-7.13.641l-8.743-.927V20.535l7.151-2.273a6.272,6.272,0,0,1,1.906-.3h4.234a.8.8,0,0,1,.849.742.8.8,0,0,1-.849.742h-1.325a3.994,3.994,0,0,0-4.047,3.929,3.972,3.972,0,0,0,3.267,3.857l4.541.865a7.085,7.085,0,0,0,2.96-.067l9.4-2.243a1.313,1.313,0,0,1,1.386.493,1.017,1.017,0,0,1,.135.939,1.188,1.188,0,0,1-.81.737l-6.6,1.936A1.483,1.483,0,0,0-31.9,31.738,1.486,1.486,0,0,0-30.474,32.8a1.447,1.447,0,0,0,.417-.061l6.6-1.935a4.181,4.181,0,0,0,2.774-2.6A3.964,3.964,0,0,0-21.187,24.586ZM-56.065,32.8h-2.967V19.451h2.967Z" transform="translate(62 -0.164)" fill="#035aa7"/>
    <path id="Path_3796" data-name="Path 3796" d="M-53.516,18.353a1.483,1.483,0,0,0,1.484-1.484V8.55a.583.583,0,0,1,.583-.583h21.088a.583.583,0,0,1,.583.583V22.8a1.483,1.483,0,0,0,1.484,1.484A1.483,1.483,0,0,0-26.811,22.8V8.55A3.554,3.554,0,0,0-30.361,5H-51.45A3.554,3.554,0,0,0-55,8.55v8.319A1.483,1.483,0,0,0-53.516,18.353Z" transform="translate(65.385 -5)" fill="#035aa7"/>
    <path id="Path_3797" data-name="Path 3797" d="M-45.065,9.484A1.483,1.483,0,0,0-46.549,8h-2.967A1.483,1.483,0,0,0-51,9.484a1.483,1.483,0,0,0,1.484,1.484h.1a6.941,6.941,0,0,0,5.638,5.921,5.67,5.67,0,0,0,.761.05,6.637,6.637,0,0,0,4.4-1.766,7.407,7.407,0,0,0,2.332-4.206h.12A1.483,1.483,0,0,0-34.68,9.484,1.483,1.483,0,0,0-36.164,8h-2.967a1.483,1.483,0,0,0-1.484,1.484,1.464,1.464,0,0,0,1.273,1.441A4.413,4.413,0,0,1-40.6,12.967a3.576,3.576,0,0,1-2.786.981,3.938,3.938,0,0,1-3.013-3.01A1.471,1.471,0,0,0-45.065,9.484Z" transform="translate(67.32 -3.549)" fill="#035aa7"/>
  </g>
</svg>
