<svg xmlns="http://www.w3.org/2000/svg" width="43.995" height="27.497" viewBox="0 0 43.995 27.497">
  <path id="Path_4938" data-name="Path 4938" d="M506.163,179.86a1.376,1.376,0,1,1,1.945,0,1.377,1.377,0,0,1-1.945,0Zm11.668-1.945a8.25,8.25,0,1,1-11.668,11.667,8.084,8.084,0,0,1-2.415-5.833h.009a1.372,1.372,0,1,1,2.743.03,5.372,5.372,0,0,0,1.609,3.859,5.5,5.5,0,0,0,7.777-7.777,5.375,5.375,0,0,0-3.827-1.609,1.372,1.372,0,1,1-.062-2.743V175.5a8.127,8.127,0,0,1,5.834,2.415Zm14.788,7.209a1.37,1.37,0,0,1-1.237-.786C527.567,177.8,520.111,172.75,512,172.75a21.967,21.967,0,0,0-19.03,11,21.954,21.954,0,0,0,29.314,8.439l.007.012A1.353,1.353,0,0,1,523,192a1.371,1.371,0,0,1,.444,2.669A24.494,24.494,0,0,1,490,183.748a24.634,24.634,0,0,1,43.658-1.031,3.088,3.088,0,0,1,.247.555,1.365,1.365,0,0,1-1.285,1.851Zm-5.5,4.124a1.375,1.375,0,1,1-1.375,1.375,1.376,1.376,0,0,1,1.375-1.375Z" transform="translate(-490 -170)" fill="#035aa7" fill-rule="evenodd"/>
</svg>
