<svg xmlns="http://www.w3.org/2000/svg" width="659.839" height="746.879" viewBox="0 0 659.839 746.879">
  <path id="Path_5859" data-name="Path 5859" d="M838.576,164.17C878.6,131.2,963.77,127.728,1014.861,139.24c71.226,16.049,124.273,75.176,157.775,138.422,42.222,79.706,61.227,171.712,48.766,260.563s-57.247,173.93-127.467,231.992c-47.992,39.681-106.252,66.091-166.153,85-54.685,17.261-112.279,28.7-169.545,23.768s-114.44-27.648-152.21-69.829-52.815-105.144-29.766-156.4C606.173,586.236,685.6,557.2,738.006,505.525c35.575-35.082,29.229-91.833,35.626-140.606,5.921-45.142-.955-87.89,15.811-131.925A165.882,165.882,0,0,1,838.576,164.17Z" transform="translate(-565.331 -133.259)" fill="#f6f6f6"/>
</svg>
