<svg id="t_shirt" data-name="t shirt" xmlns="http://www.w3.org/2000/svg" width="41.542" height="35.607" viewBox="0 0 41.542 35.607">
  <path id="Path_3774" data-name="Path 3774" d="M-215.246,196h-11.105a2.5,2.5,0,0,0-2.473,2.122,4.481,4.481,0,0,1-4.4,3.813,4.481,4.481,0,0,1-4.4-3.811A2.5,2.5,0,0,0-240.107,196h-11.105A2.792,2.792,0,0,0-254,198.789v9.258a2.792,2.792,0,0,0,2.788,2.789h3.147v4.451a1.483,1.483,0,0,0,1.484,1.484,1.483,1.483,0,0,0,1.484-1.484v-5.935a1.483,1.483,0,0,0-1.484-1.484h-4.451v-8.9H-240.5a7.465,7.465,0,0,0,7.267,5.935,7.467,7.467,0,0,0,7.267-5.935h10.537v8.9h-4.451a1.483,1.483,0,0,0-1.484,1.484V228.2a.444.444,0,0,1-.444.444h-22.851a.444.444,0,0,1-.444-.444v-6.975a1.483,1.483,0,0,0-1.484-1.484,1.483,1.483,0,0,0-1.484,1.484V228.2a3.414,3.414,0,0,0,3.411,3.411H-221.8a3.414,3.414,0,0,0,3.411-3.411v-17.36h3.147a2.792,2.792,0,0,0,2.788-2.789v-9.258A2.792,2.792,0,0,0-215.246,196Z" transform="translate(254 -196)" fill="#035aa7"/>
</svg>
