<svg xmlns="http://www.w3.org/2000/svg" width="280" height="454.224" viewBox="0 0 280 454.224">
  <g id="Group_5254" data-name="Group 5254" transform="translate(-1249 -1521.043)">
    <g id="Group_432" data-name="Group 432" transform="translate(1249 1525.268)">
      <g id="Group_431" data-name="Group 431">
        <path id="Path_341" data-name="Path 341" d="M800.811,260.752c-1.248-.059-2.561-.117-3.809-.117H628.569c-1.215,0-2.462.059-3.677.117-28.992,1.759-51.942,23.277-52.008,49.6V469.1h.729V710.634H797c30.863,0,55.882-22.339,55.882-49.9V310.472C852.884,284.088,829.9,262.511,800.811,260.752Z" transform="translate(-572.884 -260.635)" fill="#035aa7"/>
      </g>
      <g id="Group_428" data-name="Group 428" transform="translate(67.318 11.719)">
        <g id="Group_417" data-name="Group 417" transform="translate(150.753 0)">
          <ellipse id="Ellipse_27" data-name="Ellipse 27" cx="11.05" cy="11.05" rx="11.05" ry="11.05" fill="#fff"/>
        </g>
        <g id="Group_418" data-name="Group 418" transform="translate(-20)">
          <path id="Path_459" data-name="Path 459" d="M427.451,378.609A11.049,11.049,0,1,0,438.5,367.558,11.05,11.05,0,0,0,427.451,378.609Z" transform="translate(-427.451 -367.558)" fill="#fff"/>
        </g>
      </g>
    </g>
    <g id="Group_430" data-name="Group 430" transform="translate(1297.381 1525.267)">
      <path id="Path_461" data-name="Path 461" d="M990.115,257.32s-6.643-4.955,1.715-15.042" transform="translate(-987.612 -242.278)" fill="none" stroke="#3d3d3d" stroke-linecap="round" stroke-miterlimit="10" stroke-width="6"/>
      <path id="Path_462" data-name="Path 462" d="M990.133,256.894c-2.917-2.127-6.193-7.282-2.693-14.769" transform="translate(-977.987 -241.831)" fill="none" stroke="#3d3d3d" stroke-linecap="round" stroke-miterlimit="10" stroke-width="6"/>
    </g>
    <g id="Group_429" data-name="Group 429" transform="translate(1472.923 1525.268)">
      <path id="Path_461-2" data-name="Path 461" d="M989.326,257.321s6.642-4.956-1.715-15.042" transform="translate(-978.499 -242.278)" fill="none" stroke="#3d3d3d" stroke-linecap="round" stroke-miterlimit="10" stroke-width="6"/>
      <path id="Path_462-2" data-name="Path 462" d="M985.926,256.894c2.917-2.127,6.193-7.283,2.692-14.769" transform="translate(-985.926 -241.831)" fill="none" stroke="#3d3d3d" stroke-linecap="round" stroke-miterlimit="10" stroke-width="6"/>
    </g>
  </g>
</svg>
