<svg xmlns="http://www.w3.org/2000/svg" width="756.658" height="361.985" viewBox="0 0 756.658 361.985">
  <g id="Group_3073" data-name="Group 3073" transform="matrix(0.998, 0.07, -0.07, 0.998, 21.719, 0)" opacity="0.8">
    <path id="Path_4274" data-name="Path 4274" d="M553.931,218.776q8.325,35.8,15.408,71.866c5.114,26.048,9.724,52.187,14.3,78.332l701.216-132.685a569.293,569.293,0,0,1-15.656-75.3c-1.456-10.592-2.675-21.456-7.4-31.041-1.838-3.731-4.234-7.364-4.622-11.507-.3-3.16.618-6.309.825-9.481.3-4.762-1.007-9.469-2.305-14.061-2.014-10.658-11.223-25.939-10.064-37.276L548.119,189.6C551.085,198.722,552.02,210.551,553.931,218.776Z" transform="translate(-548.119 -57.623)" fill="#2295d6" opacity="0.8"/>
    <text id="المدونة" transform="translate(202.479 224.498) rotate(-11)" font-size="150" font-family="Somar-Black, Somar" font-weight="800"><tspan x="0" y="0">المدونة</tspan></text>
  </g>
</svg>
