<svg id="Group_3081" data-name="Group 3081" xmlns="http://www.w3.org/2000/svg" width="256.11" height="257.078" viewBox="0 0 256.11 257.078">
  <path id="Path_4283" data-name="Path 4283" d="M903.47,436.953,928.8,401.048a10.7,10.7,0,0,0-2.575-14.91l-20.063-14.153a95.224,95.224,0,0,0,2.189-9.786l24.131-4.209a10.7,10.7,0,0,0,8.7-12.377l-7.337-42.063a10.7,10.7,0,0,0-12.378-8.7l-24.191,4.219a94.937,94.937,0,0,0-5.1-8.057l14.154-20.064a10.7,10.7,0,0,0-2.575-14.91l-34.89-24.613A10.7,10.7,0,0,0,853.956,234l-14.12,20.018a95.075,95.075,0,0,0-11.52-2.482l-4.665-24.112a10.7,10.7,0,0,0-12.536-8.472l-41.92,8.109a10.7,10.7,0,0,0-8.472,12.536l4.652,24.047q-3.488,2.048-6.816,4.409l-20.017-14.121a10.7,10.7,0,0,0-14.909,2.575L699.019,291.4a10.7,10.7,0,0,0,2.575,14.91l20.064,14.154a95.117,95.117,0,0,0-2.567,12.2L693.842,337.7a10.7,10.7,0,0,0-8.439,12.382l7.649,42.617a10.7,10.7,0,0,0,12.622,8.6l26.427-5.268q1.674,2.752,3.542,5.4L719.726,424A10.7,10.7,0,0,0,722.3,438.9l34.89,24.613a10.7,10.7,0,0,0,14.909-2.575l15.884-22.515q4.5,1.266,9.072,2.078L801.7,466.98a10.7,10.7,0,0,0,12.588,8.653l42.53-8.3a10.7,10.7,0,0,0,8.488-12.348L860.871,429.7q3.742-2.1,7.309-4.55l20.381,14.379A10.7,10.7,0,0,0,903.47,436.953Z" transform="translate(-685.233 -218.755)" fill="#fdb958"/>
  <path id="Path_4328" data-name="Path 4328" d="M74.273,0A74.273,74.273,0,1,1,0,74.273,74.273,74.273,0,0,1,74.273,0Z" transform="translate(41.313 69.103) rotate(-10.421)" fill="#f6f6f6"/>
</svg>
