<svg xmlns="http://www.w3.org/2000/svg" width="66.954" height="66.954" viewBox="0 0 66.954 66.954">
  <path id="Path_4789" data-name="Path 4789" d="M116.839,191.88V179.824h-8.51a25.493,25.493,0,0,0-3.054-7.36l6.021-6.021-8.525-8.525-6.021,6.021a25.486,25.486,0,0,0-7.36-3.051v-8.513H77.336v8.513a25.5,25.5,0,0,0-7.363,3.051l-6.021-6.021-8.525,8.525,6.021,6.021a25.487,25.487,0,0,0-3.051,7.36H49.885V191.88H58.4a25.488,25.488,0,0,0,3.051,7.36l-6.021,6.021,8.525,8.525,6.021-6.021a25.5,25.5,0,0,0,7.363,3.051v8.513H89.39v-8.513a25.486,25.486,0,0,0,7.36-3.051l6.021,6.021,8.525-8.525-6.021-6.021a25.494,25.494,0,0,0,3.054-7.36Zm-33.477,2.64a8.668,8.668,0,1,1,8.668-8.668A8.668,8.668,0,0,1,83.362,194.52Z" transform="translate(-49.885 -152.375)" fill="#035aa7"/>
</svg>
