<svg xmlns="http://www.w3.org/2000/svg" width="46.031" height="46.031" viewBox="0 0 46.031 46.031">
  <path id="Path_4792" data-name="Path 4792" d="M456.676,145.647v-8.288h-5.851a17.59,17.59,0,0,0-2.1-5.06l4.139-4.139L447,122.3l-4.139,4.139a17.59,17.59,0,0,0-5.06-2.1v-5.851h-8.288v5.851a17.563,17.563,0,0,0-5.06,2.1l-4.142-4.139-5.861,5.861L418.6,132.3a17.519,17.519,0,0,0-2.1,5.06h-5.851v8.288H416.5a17.491,17.491,0,0,0,2.1,5.06l-4.142,4.142,5.861,5.861,4.142-4.142a17.431,17.431,0,0,0,5.06,2.1v5.851H437.8v-5.851a17.458,17.458,0,0,0,5.06-2.1L447,160.709l5.861-5.861-4.139-4.139a17.577,17.577,0,0,0,2.1-5.062Zm-23.015,1.815a5.959,5.959,0,1,1,5.959-5.959A5.957,5.957,0,0,1,433.66,147.462Z" transform="translate(-410.645 -118.488)" fill="#035aa7"/>
</svg>
