<svg xmlns="http://www.w3.org/2000/svg" width="46.031" height="46.031" viewBox="0 0 46.031 46.031">
  <path id="Path_4790" data-name="Path 4790" d="M113.541,164.159v-8.288h-5.851a17.517,17.517,0,0,0-2.1-5.06l4.139-4.139-5.861-5.861-4.139,4.139a17.576,17.576,0,0,0-5.062-2.1V137H86.381v5.851a17.589,17.589,0,0,0-5.06,2.1l-4.139-4.139-5.861,5.861,4.139,4.139a17.518,17.518,0,0,0-2.1,5.06H67.51v8.288h5.854a17.518,17.518,0,0,0,2.1,5.06l-4.139,4.139,5.861,5.861,4.139-4.139a17.521,17.521,0,0,0,5.06,2.1v5.851h8.288v-5.851a17.508,17.508,0,0,0,5.062-2.1l4.139,4.139,5.861-5.861-4.139-4.139a17.518,17.518,0,0,0,2.1-5.06Zm-23.015,1.815a5.959,5.959,0,1,1,5.961-5.959A5.96,5.96,0,0,1,90.525,165.974Z" transform="translate(-67.51 -137)" fill="#035aa7"/>
</svg>
