<svg xmlns="http://www.w3.org/2000/svg" width="46.031" height="46.031" viewBox="0 0 46.031 46.031">
  <path id="Path_4791" data-name="Path 4791" d="M439.734,136.022v-8.288H433.88a17.518,17.518,0,0,0-2.1-5.06l4.139-4.139-5.861-5.861-4.139,4.139a17.589,17.589,0,0,0-5.06-2.1v-5.851h-8.29v5.851a17.589,17.589,0,0,0-5.06,2.1l-4.139-4.139-5.861,5.861,4.139,4.139a17.518,17.518,0,0,0-2.1,5.06H393.7v8.288h5.851a17.491,17.491,0,0,0,2.1,5.06l-4.139,4.142,5.861,5.861,4.139-4.142a17.457,17.457,0,0,0,5.06,2.1v5.851h8.29v-5.851a17.457,17.457,0,0,0,5.06-2.1l4.139,4.142,5.861-5.861-4.139-4.139a17.505,17.505,0,0,0,2.1-5.062Zm-23.015,1.815a5.959,5.959,0,1,1,5.959-5.959A5.959,5.959,0,0,1,416.718,137.837Z" transform="translate(-393.703 -108.863)" fill="#035aa7"/>
</svg>
