<svg xmlns="http://www.w3.org/2000/svg" width="52.845" height="52.845" viewBox="0 0 52.845 52.845">
  <path id="Path_4732" data-name="Path 4732" d="M385.128,634.024c-.016.019-.019.036-.038.055a3.3,3.3,0,0,0,0,4.67c.019.017.021.033.038.052l5.776,5.776a6.6,6.6,0,0,1,0,9.33l-7,7a6.6,6.6,0,0,1-9.33,0l-5.775-5.776c-.02-.016-.036-.019-.053-.038a3.3,3.3,0,0,0-4.67,0,1.651,1.651,0,0,1-2.336-2.334l0,0,.517-.521a.545.545,0,0,0,.072-.058,5.78,5.78,0,0,1,8.172,0,.545.545,0,0,0,.072.058l5.756,5.757a4.123,4.123,0,0,0,5.83,0l5.831-5.831a4.123,4.123,0,0,0,0-5.83l-5.757-5.756a.626.626,0,0,0-.058-.072,5.774,5.774,0,0,1,0-8.172c.022-.025.039-.047.058-.072l5.757-5.756a4.123,4.123,0,0,0,0-5.83l-5.831-5.831a4.123,4.123,0,0,0-5.83,0l-5.756,5.757c-.025.019-.047.036-.072.058a5.774,5.774,0,0,1-8.172,0c-.025-.022-.047-.039-.072-.058l-5.756-5.757a4.123,4.123,0,0,0-5.83,0l-5.831,5.831a4.123,4.123,0,0,0,0,5.83l5.757,5.756c.019.025.035.047.058.072a5.774,5.774,0,0,1,0,8.172.624.624,0,0,0-.058.072l-5.757,5.756a4.123,4.123,0,0,0,0,5.83l5.792,5.792-.006.006c.008.008.019.011.028.019a1.651,1.651,0,0,1-2.334,2.336c-.008-.008-.012-.022-.019-.031l0,0-6.376-6.376a6.6,6.6,0,0,1,0-9.33L347.7,638.8c.017-.019.019-.036.038-.052a3.3,3.3,0,0,0,0-4.67c-.019-.019-.021-.035-.038-.055l-5.776-5.776a6.6,6.6,0,0,1,0-9.33l7-7a6.6,6.6,0,0,1,9.33,0l5.775,5.776a.61.61,0,0,1,.055.038,3.305,3.305,0,0,0,4.67,0c.02-.019.033-.021.053-.038l5.775-5.776a6.6,6.6,0,0,1,9.33,0l7,7a6.6,6.6,0,0,1,0,9.33l-5.776,5.776Zm-26.97,22.2a1.651,1.651,0,1,1-1.651,1.651,1.652,1.652,0,0,1,1.651-1.651Z" transform="translate(-339.99 -609.99)" fill="#ff0527" fill-rule="evenodd"/>
</svg>
